M48
;Layer_Color=9474304
;FILE_FORMAT=4:4
METRIC,LZ
;TYPE=PLATED
T01F00S00C0.3000
T03F00S00C1.0200
T04F00S00C1.0600
T05F00S00C3.2000
;TYPE=NON_PLATED
T06F00S00C1.7000
%
T01
X0010473Y0004473
X0013473Y0010473
X0007473
X0019473
X00243645Y00094345
X00266831Y00093585
X0025654Y0007239
X0028473Y0004473
X00309685Y00059335
X00304255Y00080735
X0030861Y0009398
X0029845
X0032004
X0036449Y0009906
X00366135Y000807
X0037719Y0007747
X00357249Y00060454
X0043473Y0010473
X0049473
X0022473Y0004473
X0016473
X0055473Y0010473
X0061473
X0067473
X0073473
X0079473
X0086106Y001016
X0092456Y0010033
X0089027Y0004318
X0082473Y0004473
X0076473
X0070473
X0064473
X0097986Y00038475
Y00053715
X0100653Y00054985
Y00039745
Y00021965
X0097986Y00023235
X0103574Y00020695
Y00037205
Y00054985
X0106426Y0005715
X0108251Y0005572
Y0003794
Y0001889
X0106426Y0002032
Y0003683
X0110918Y0003794
Y0002016
X0113839
Y0003794
Y0005445
X011676
Y0003794
Y0001889
X0118999Y0002032
Y0003683
Y0005461
X0121666
Y0003937
Y0002159
X0124714Y0002286
Y000381
Y0005461
X0127323Y00055505
Y00037725
Y00022485
X0132842Y0002032
X0132969Y0003683
Y0005334
X0128143Y0008509
X0128016Y0014097
X0130175
X0124603Y0014121
X012192Y0010033
X012065
X0119253
X0117729
X0116459Y001397
X0115189
X0112052Y0013516
X0110109Y0011557
X0106738Y00127375
X0106819Y0010144
X0110918Y0005572
X0097917Y001016
X0133985Y001143
X0139173Y00122471
X0138557Y0005334
Y0003683
Y0002032
X0141224
Y000381
Y0005461
X0135509Y0005334
Y000381
Y0002032
X0137033Y0016256
X0133731Y0019304
X0139473Y0022473
X0145473
X0145542Y0014605
X0142473Y0028473
X0136473
X0139473Y0034473
X0145473
X0142473Y0040473
X0139573Y0043688
X0145473Y0046473
X0142473Y0052473
X0133473Y0046473
X0133477Y0040259
X0132207Y0038481
X013081Y003683
X012954Y0035306
X0128143Y0033655
X0126619Y0032004
X0124587Y0033147
X0125857Y0034925
X0127381Y0036957
X0128778Y0038735
X0130175Y0040386
X0131318Y004191
X0132842Y0042799
X0133096Y0034417
X0131318Y0032893
X0129667Y0031369
X0128016Y0029845
X0128524Y0027178
X0129921Y0028448
X0131191Y0029591
X0132461Y0030607
X0125095Y0030226
X012319Y0031242
X0121666Y0029464
X0123698Y0028448
X0124333Y0026289
X0122301Y0026924
X0121285Y0025654
X0122809Y0024892
X0122682Y0021971
X0121285Y0020828
X0120015Y0024257
X0117602Y002413
X01163315Y00224781
X0114554Y0020193
X011303
X011176
X0108204Y0018669
X0106426Y0018796
Y0020316
Y00216535
Y002286
X01074475Y0028473
X0112473
X0118473
X0120269Y0027559
X0118999Y0025908
X0124264Y00232785
X012573Y0024511
X0127Y0025781
X0126238Y0028194
X0121473Y0034473
X0118473Y0040473
X0124473
X0121473Y0046473
X0115473
X0109473
X0103473
X0097473
X0100473Y0040473
X0106473
X0112473
X0109473Y0034473
X01040488Y00350488
X0097473Y0034473
X0094473Y0028473
X0100473
X0097473Y0022473
X0094473Y0016473
X0100473
X010668Y0015367
X0115316Y0016256
X0116332
X0127508Y0017145
X0131572Y0020574
X0132842Y0020193
X01302965Y0052473
X0124473
X0118473
X0112473
X0106473
X0100473
X0088473
X0087884Y0048641
X0086614Y0045339
X0084074Y0043561
X00823359Y00429981
X0081661Y0042418
X0081846Y00479165
X0083058Y0046863
X0082473Y0052473
X007747Y004826
X0076473Y0040473
X0070473
X0073279Y0036195
X0071501Y0031115
X0070739Y0026416
X00676003Y00273603
X0065405Y0023876
X00642983Y00231693
X0062738Y0021336
X0061473Y0022473
X0061468Y0020193
X0060325Y001905
X0064473Y0016473
X0076473
X0082473
X0088473
X0085473Y0022473
X0079473
X0073473
X0076473Y0028473
X0079473Y0034473
X0081153Y0033909
X0085473Y0034473
X0084836Y0037592
X0083566Y0037973
X0088519Y0042545
X0089662Y0043561
X0088473Y0028473
X0067473Y0034473
X00608965Y00338455
X0061468Y0032004
X0057404Y003048
X0058039Y0028575
X00590333Y00273978
X00542095Y00271325
X00544163Y00220635
X0055753Y0034417
X0058166
X0061473Y0046473
X00580232Y0051758
X0056515Y0052451
Y0053594
X0070473Y0052473
X0052473
X0046473
X0043053Y0052832
Y0051816
X0040473Y0052473
X0037473Y0046473
X0031473
X0025473
X0022473Y0052473
X0019685Y0053467
X00161665Y0053028
X0015494Y0052197
X0014732Y0051435
X0028473Y0052473
X0030353Y0052324
Y0053467
X0032385Y0053594
X0030099Y0051181
X0030226Y0031115
X0031496Y002794
X0033655Y0027178
X0035941
X00408745Y00271325
X00401125Y00233225
X00411285Y00219255
X0040473Y0016473
X0034473
X0035814Y0019558
X0031473Y0022473
X00272855Y00220525
X00262695Y00234495
X00270315Y00271325
X002413Y0027305
X0022479
X0018669Y0027178
X0016473Y0028473
X0016891Y0029591
X0020828Y0031623
X0020574Y0032639
X0019685Y0033274
X0025473Y0034473
X0034798Y0034036
Y0032893
Y003175
X0037473Y0034473
X0043473
X0044196Y0030988
X0047879Y0031623
Y0032766
Y0033909
X0049473Y0034473
X00531398Y00338358
X00525585Y00325249
X00508Y0027305
X0048514
X0045339
X0046473Y0028473
X00534475Y00234133
X0052451Y0020955
X0052473Y0016473
X0028473
X00222055Y00187155
X0016473Y0016473
X0012573Y0018161
X0010473Y0016473
X0004473
X0005461Y0027051
X0007366
X0008763
X00138235Y00271325
X00130615Y00231955
X00140775Y00217985
X0004473Y0028473
X0004318Y0029718
X0005334
X0003175
X0007473Y0034473
Y0046473
X0013473
X0004473Y0052473
X0006604Y0055372
Y005715
X0009525Y0057277
X0013462Y0057531
X0010287Y0061214
X0009271Y0062611
X0004473Y0064473
X0007473Y0070473
X0012065Y0066802
X0010473Y0076473
X0004473
X0007473Y0082473
X0010668Y0083058
Y0083947
Y0084963
X0013473Y0082473
X0014605Y0085471
X0014224Y0086487
X001524
X0015875Y0086995
X0014605Y0087503
X00145155Y0089212
X001524Y0089662
Y0090297
X0014605
X0014478Y0091186
X0015367
X0016473Y0088473
X0019558Y0089281
Y0090297
X0019553Y009137
X0020574Y0091313
X0020828Y0090297
Y0089281
X00200341Y008697
X0019473Y0082473
X00189994Y00792101
X0017907Y0079248
X0016383Y0075184
X0024003Y0075311
X0023876Y0076454
X0024638Y0077978
X0023876Y0081407
X0023622Y0083185
X0028473Y0088473
X0034473
X0040473
X0046473
X00467365Y00864879
X0046863Y0080137
X00526444Y00803531
X00508895Y0075888
X0042418Y0075946
X0040005Y0080264
X0030734Y0077978
X0029591
X0031473Y0070473
X0036957Y0065659
X00360592Y00630737
X00370453Y00619117
X0036473Y0057277
X0039624Y0057912
X0042799Y0058039
X0043473Y0058473
X0045593Y0058039
Y0053848
X0043053Y0053975
X0049784Y0057277
X0052959Y0057785
X0050165Y0062103
X0049022Y0063119
X0046473Y0064473
X0050927Y0065659
X0032893Y0058293
X0031473Y0058473
X00292105Y00577841
X002667Y0057785
X0023749Y0057277
X0019812Y0057404
X0019473Y0058473
X0016764Y0057404
X0024511Y0061595
X0023495Y0062992
X0025273Y006604
X0019473Y0070473
X0050292Y0091567
X00553552Y00864508
X0058801Y008636
X0058473Y0088473
X0058674Y0089281
X0056388Y008001
X0054356
X00584575Y0075888
X0066294Y0077343
X0073279
X00740732Y00775397
X00727626Y00784184
X0073279Y0080264
X0074168Y0080772
X0072263Y0081661
X0068707Y0083947
X0070473Y0088473
X0076473
X0082473
X0088473
X0082473Y0076473
X00797132Y00748872
X0079502Y0078994
X0078359
X0079473Y0070473
X0075311Y0071882
X0073473Y0070473
X00703589Y00715005
X0067473Y0070473
X0064473Y0064473
X0070473
X0076473
X0082473
X00853721Y00703721
X0085473Y0058473
X0061473
X0056896Y0057785
X0054991
X0055473Y0058473
X0058473Y0064473
X0072771Y007493
X0097473Y0070473
X0103473
X0109473
X0115473
X01211587Y00707873
X0118473Y0076473
X0112473
X0106473
X0100473
X0103473Y0082473
X0109473
X0115473
X0121473
X0127473
X0124473Y0076473
Y0064473
X01302965
X0127473Y0058473
X0121473
X0118473Y0064473
X0112473
X0106473
X0100473
X0103473Y0058473
X0109473
X0097473
Y0082473
X0094473Y0088473
X0100473
X0106473
X0112473
X0118473
X0124473
X0136473
X0142473
X0145473Y0082473
X0139473
X0142473Y0076473
X0145473Y0070473
X0139473
X0133473
Y0058473
X0139473
X0145473
X0142473Y0064473
X0139473Y0094473
X0127473
X0121473
X0115473
X0109473
X0103473
X0097473
X0085473
X0079473
X0073473
X0067473
X0061473
X0055473
X0049473
X0043473
X0037473
X0031473
X0025473
X0019473
X0013473
X001143Y0094488
Y0093599
Y0095504
T03
X0041148Y0008636
X0043688
X0054991Y0039497
Y0042037
X0057912
Y0039497
X0060833
Y0042037
X0063754
Y0039497
X0066675
Y0042037
X0069596
Y0039497
X005207
Y0042037
X0049149
Y0039497
X0046228
Y0042037
X0043307
Y0039497
X0040386
Y0042037
X0037465
Y0039497
X0034544
Y0042037
X0031623
Y0039497
X0028702
Y0042037
X0025781
Y0039497
X002286
Y0042037
X0019939
Y0039497
X0017018
Y0042037
X0020193Y0021844
X0022733
X0033909Y0021971
X0036449
X0047117Y0022225
X0049657
X0009271Y00216446
X0006731
X0005334Y0039497
Y0042037
X0008255
Y0039497
X0011176
Y0042037
X0014097
Y0039497
X0013081Y0077851
X0010541
X001524Y0065913
X001778
X002032
X0028321
X0030861
X0033401
X0040259
X0042799
X0045339
X0053848
X0056388
X0058928
X0063119
X0065659
X0070993
X0073533
X0077978
X0080518
X0085598
X0088138
X0128651Y0097663
X0131191
T04
X0134747Y0030976
X0137287
Y0033516
X0134747
Y0036056
X0137287
Y0038596
X0134747
Y0041136
X0137287
Y0043676
X0134747
Y0046216
X0137287
Y0048756
X0134747
Y0051296
X0137287
Y0053836
X0134747
X0093977
Y0051296
Y0048756
Y0046216
Y0043676
Y0041136
Y0038596
Y0036056
Y0033516
Y0030976
X0091437
Y0033516
Y0036056
Y0038596
Y0041136
Y0043676
Y0046216
Y0048756
Y0051296
Y0053836
Y0056376
Y0058916
Y0061456
Y0063996
Y0066536
Y0069076
Y0071616
Y0074156
Y0076696
Y0079236
X0093977
Y0076696
Y0074156
Y0071616
Y0069076
Y0066536
Y0063996
Y0061456
Y0058916
Y0056376
X0134747
X0137287
Y0058916
X0134747
Y0061456
X0137287
Y0063996
X0134747
Y0066536
X0137287
Y0069076
X0134747
Y0071616
X0137287
Y0074156
X0134747
Y0076696
X0137287
Y0079236
X0134747
T05
X000508Y0004826
X0147193
X0135637Y0023616
X0093217
Y0092446
X0135637
X0147193Y0096774
X000508
T06
X000466Y0089281
X001016
M30
