G04*
G04 #@! TF.GenerationSoftware,Altium Limited,Altium Designer,25.3.3 (18)*
G04*
G04 Layer_Color=32768*
%FSLAX44Y44*%
%MOMM*%
G71*
G04*
G04 #@! TF.SameCoordinates,8BA9F0F0-51DE-43A2-9AC8-778ADDE1523D*
G04*
G04*
G04 #@! TF.FilePolarity,Positive*
G04*
G01*
G75*
%ADD14C,0.2000*%
%ADD82C,0.1000*%
%ADD84C,0.0500*%
D14*
X479012Y897438D02*
X496012D01*
X479012Y869438D02*
Y897438D01*
Y869438D02*
X496012D01*
Y897438D01*
X1270310Y962430D02*
X1328110D01*
X1270310D02*
Y990830D01*
X1328110D01*
Y962430D02*
Y990830D01*
X354960Y279839D02*
Y306901D01*
X338460Y279839D02*
X354960D01*
X338460D02*
Y306901D01*
X354960D01*
X200630Y527930D02*
X228630D01*
X200630D02*
Y544930D01*
X228630D01*
Y527930D02*
Y544930D01*
X243610Y436570D02*
X272010D01*
X243610Y378770D02*
Y436570D01*
Y378770D02*
X272010D01*
Y436570D01*
X185190D02*
X213590D01*
X185190Y378770D02*
Y436570D01*
Y378770D02*
X213590D01*
Y436570D01*
X126770D02*
X155170D01*
X126770Y378770D02*
Y436570D01*
Y378770D02*
X155170D01*
Y436570D01*
X68350D02*
X96750D01*
X68350Y378770D02*
Y436570D01*
Y378770D02*
X96750D01*
Y436570D01*
X1190620Y142679D02*
Y169741D01*
X1174120Y142679D02*
X1190620D01*
X1174120D02*
Y169741D01*
X1190620D01*
X225180Y304830D02*
X242180D01*
X225180Y276830D02*
Y304830D01*
Y276830D02*
X242180D01*
Y304830D01*
X309162Y223072D02*
Y240797D01*
X300438Y223072D02*
X309162D01*
X300438D02*
Y240797D01*
X309162D01*
X225180Y240000D02*
X242180D01*
Y268000D01*
X225180D02*
X242180D01*
X225180Y240000D02*
Y268000D01*
X266790Y301380D02*
Y318380D01*
Y301380D02*
X294790D01*
Y318380D01*
X266790D02*
X294790D01*
X200030Y240469D02*
X216530D01*
Y267531D01*
X200030D02*
X216530D01*
X200030Y240469D02*
Y267531D01*
Y305631D02*
X216530D01*
X200030Y278569D02*
Y305631D01*
Y278569D02*
X216530D01*
Y305631D01*
X457918Y611692D02*
Y629417D01*
X466642D01*
Y611692D02*
Y629417D01*
X457918Y611692D02*
X466642D01*
X462250Y528710D02*
X490250D01*
X462250D02*
Y545710D01*
X490250D01*
Y528710D02*
Y545710D01*
X527440Y542140D02*
Y570140D01*
X544440D01*
Y542140D02*
Y570140D01*
X527440Y542140D02*
X544440D01*
X555630Y542729D02*
Y569791D01*
X572130D01*
Y542729D02*
Y569791D01*
X555630Y542729D02*
X572130D01*
X543170Y587980D02*
Y615980D01*
X526170Y587980D02*
X543170D01*
X526170D02*
Y615980D01*
X543170D01*
X569590Y588449D02*
Y615511D01*
X553090Y588449D02*
X569590D01*
X553090D02*
Y615511D01*
X569590D01*
X1239770Y169380D02*
Y186380D01*
Y169380D02*
X1267770D01*
Y186380D01*
X1239770D02*
X1267770D01*
X1095590Y189278D02*
X1106590D01*
X1095590Y167156D02*
Y189278D01*
Y167156D02*
X1106590D01*
Y189278D01*
X1115910Y166739D02*
X1126910D01*
Y188861D01*
X1115910D02*
X1126910D01*
X1115910Y166739D02*
Y188861D01*
X324808Y611692D02*
X333532D01*
Y629417D01*
X324808D02*
X333532D01*
X324808Y611692D02*
Y629417D01*
X356900Y527440D02*
Y544440D01*
X328900D02*
X356900D01*
X328900Y527440D02*
Y544440D01*
Y527440D02*
X356900D01*
X395360Y545950D02*
X412360D01*
Y573950D01*
X395360D02*
X412360D01*
X395360Y545950D02*
Y573950D01*
X419980Y615511D02*
X436480D01*
X419980Y588449D02*
Y615511D01*
Y588449D02*
X436480D01*
Y615511D01*
X422280Y546539D02*
X438780D01*
Y573601D01*
X422280D02*
X438780D01*
X422280Y546539D02*
Y573601D01*
X393060Y615980D02*
X410060D01*
X393060Y587980D02*
Y615980D01*
Y587980D02*
X410060D01*
Y615980D01*
X197568Y610422D02*
X206292D01*
Y628147D01*
X197568D02*
X206292D01*
X197568Y610422D02*
Y628147D01*
X269630Y542140D02*
X286630D01*
Y570140D01*
X269630D02*
X286630D01*
X269630Y542140D02*
Y570140D01*
X292740Y614241D02*
X309240D01*
X292740Y587179D02*
Y614241D01*
Y587179D02*
X309240D01*
Y614241D01*
X295280Y542367D02*
X311780D01*
Y569429D01*
X295280D02*
X311780D01*
X295280Y542367D02*
Y569429D01*
X265820Y614710D02*
X282820D01*
X265820Y586710D02*
Y614710D01*
Y586710D02*
X282820D01*
Y614710D01*
X55328Y606612D02*
X64052D01*
Y624337D01*
X55328D02*
X64052D01*
X55328Y606612D02*
Y624337D01*
X87660Y527440D02*
Y544440D01*
X59660D02*
X87660D01*
X59660Y527440D02*
Y544440D01*
Y527440D02*
X87660D01*
X127390Y538330D02*
X144390D01*
Y566330D01*
X127390D02*
X144390D01*
X127390Y538330D02*
Y566330D01*
X153040Y537287D02*
X169540D01*
Y564349D01*
X153040D02*
X169540D01*
X153040Y537287D02*
Y564349D01*
X123580Y610900D02*
X140580D01*
X123580Y582900D02*
Y610900D01*
Y582900D02*
X140580D01*
Y610900D01*
X150500Y610431D02*
X167000D01*
X150500Y583369D02*
Y610431D01*
Y583369D02*
X167000D01*
Y610431D01*
X1408980Y-85735D02*
Y65365D01*
X1331680D02*
X1408980D01*
X1331680Y-85735D02*
Y65365D01*
Y-85735D02*
X1408980D01*
X1059150D02*
Y65365D01*
X981850D02*
X1059150D01*
X981850Y-85735D02*
Y65365D01*
Y-85735D02*
X1059150D01*
X1162600D02*
Y65365D01*
X1085300D02*
X1162600D01*
X1085300Y-85735D02*
Y65365D01*
Y-85735D02*
X1162600D01*
X1270550D02*
Y65365D01*
X1193250D02*
X1270550D01*
X1193250Y-85735D02*
Y65365D01*
Y-85735D02*
X1270550D01*
X405220Y317110D02*
X433220D01*
Y300110D02*
Y317110D01*
X405220Y300110D02*
X433220D01*
X405220D02*
Y317110D01*
X1089810Y157870D02*
Y174870D01*
X1061810D02*
X1089810D01*
X1061810Y157870D02*
Y174870D01*
Y157870D02*
X1089810D01*
X1089690Y105800D02*
Y122800D01*
X1061690D02*
X1089690D01*
X1061690Y105800D02*
Y122800D01*
Y105800D02*
X1089690D01*
X1108520Y119160D02*
Y151160D01*
Y119160D02*
X1132520D01*
Y151160D01*
X1108520D02*
X1132520D01*
X1376330Y130620D02*
Y154620D01*
X1356330D02*
X1376330D01*
X1356330Y130620D02*
Y154620D01*
Y130620D02*
X1376330D01*
X572218Y240435D02*
X580942D01*
X572218Y222710D02*
Y240435D01*
Y222710D02*
X580942D01*
Y240435D01*
X454970Y208050D02*
Y236450D01*
Y208050D02*
X512770D01*
Y236450D01*
X454970D02*
X512770D01*
X469270Y240107D02*
Y267169D01*
X485770D01*
Y240107D02*
Y267169D01*
X469270Y240107D02*
X485770D01*
X487040Y279839D02*
Y306901D01*
X470540Y279839D02*
X487040D01*
X470540D02*
Y306901D01*
X487040D01*
X512690Y279370D02*
Y307370D01*
X495690Y279370D02*
X512690D01*
X495690D02*
Y307370D01*
X512690D01*
X494420Y239638D02*
Y267638D01*
X511420D01*
Y239638D02*
Y267638D01*
X494420Y239638D02*
X511420D01*
X185730Y204240D02*
Y232640D01*
Y204240D02*
X243530D01*
Y232640D01*
X185730D02*
X243530D01*
X266831Y59335D02*
Y147335D01*
Y59335D02*
X352538D01*
Y147335D01*
X266831D02*
X352538D01*
X1391436Y136740D02*
X1413558D01*
X1391436D02*
Y147740D01*
X1413558D01*
Y136740D02*
Y147740D01*
X1316960Y146440D02*
X1344960D01*
X1316960D02*
Y163440D01*
X1344960D01*
Y146440D02*
Y163440D01*
X1317080Y121040D02*
X1345080D01*
X1317080D02*
Y138040D01*
X1345080D01*
Y121040D02*
Y138040D01*
X1253172Y95833D02*
Y113558D01*
X1244448Y95833D02*
X1253172D01*
X1244448D02*
Y113558D01*
X1253172D01*
X1201810Y111730D02*
Y139730D01*
X1218810D01*
Y111730D02*
Y139730D01*
X1201810Y111730D02*
X1218810D01*
X1176660Y110929D02*
Y137991D01*
X1193160D01*
Y110929D02*
Y137991D01*
X1176660Y110929D02*
X1193160D01*
X1216270Y142210D02*
Y170210D01*
X1199270Y142210D02*
X1216270D01*
X1199270D02*
Y170210D01*
X1216270D01*
X685082Y229103D02*
Y246828D01*
X676358Y229103D02*
X685082D01*
X676358D02*
Y246828D01*
X685082D01*
X39140Y378770D02*
Y436570D01*
X67540D01*
Y378770D02*
Y436570D01*
X39140Y378770D02*
X67540D01*
X272820D02*
Y436570D01*
X301220D01*
Y378770D02*
Y436570D01*
X272820Y378770D02*
X301220D01*
X302030D02*
Y436570D01*
X330430D01*
Y378770D02*
Y436570D01*
X302030Y378770D02*
X330430D01*
X331240D02*
Y436570D01*
X359640D01*
Y378770D02*
Y436570D01*
X331240Y378770D02*
X359640D01*
X360450D02*
Y436570D01*
X388850D01*
Y378770D02*
Y436570D01*
X360450Y378770D02*
X388850D01*
X389660D02*
Y436570D01*
X418060D01*
Y378770D02*
Y436570D01*
X389660Y378770D02*
X418060D01*
X395280Y72160D02*
X453080D01*
X395280D02*
Y100560D01*
X453080D01*
Y72160D02*
Y100560D01*
X418870Y378770D02*
Y436570D01*
X447270D01*
Y378770D02*
Y436570D01*
X418870Y378770D02*
X447270D01*
X448080D02*
Y436570D01*
X476480D01*
Y378770D02*
Y436570D01*
X448080Y378770D02*
X476480D01*
X477290D02*
Y436570D01*
X505690D01*
Y378770D02*
Y436570D01*
X477290Y378770D02*
X505690D01*
X506500D02*
Y436570D01*
X534900D01*
Y378770D02*
Y436570D01*
X506500Y378770D02*
X534900D01*
X535710D02*
Y436570D01*
X564110D01*
Y378770D02*
Y436570D01*
X535710Y378770D02*
X564110D01*
X564920D02*
Y436570D01*
X593320D01*
Y378770D02*
Y436570D01*
X564920Y378770D02*
X593320D01*
X89210Y792710D02*
X147010D01*
Y764310D02*
Y792710D01*
X89210Y764310D02*
X147010D01*
X89210D02*
Y792710D01*
X693730Y673330D02*
X751530D01*
Y644930D02*
Y673330D01*
X693730Y644930D02*
X751530D01*
X693730D02*
Y673330D01*
X839780Y644930D02*
Y673330D01*
Y644930D02*
X897580D01*
Y673330D01*
X839780D02*
X897580D01*
X386270Y84210D02*
Y101210D01*
X378270Y84210D02*
X386270D01*
X378270D02*
Y101210D01*
X386270D01*
X170732Y218468D02*
Y236192D01*
X162008Y218468D02*
X170732D01*
X162008D02*
Y236192D01*
X170732D01*
X334738Y239218D02*
X351238D01*
Y266280D01*
X334738D02*
X351238D01*
X334738Y239218D02*
Y266280D01*
X431248Y238732D02*
X439972D01*
X431248Y221008D02*
Y238732D01*
Y221008D02*
X439972D01*
Y238732D01*
X359888Y238749D02*
X376888D01*
Y266749D01*
X359888D02*
X376888D01*
X359888Y238749D02*
Y266749D01*
X159830Y764930D02*
X167830D01*
Y781930D01*
X159830D02*
X167830D01*
X159830Y764930D02*
Y781930D01*
X208299Y913405D02*
X246361D01*
X208299Y857363D02*
Y913405D01*
Y857363D02*
X246361D01*
Y913405D01*
X630923Y243562D02*
X647423D01*
Y270624D01*
X630923D02*
X647423D01*
X630923Y243562D02*
Y270624D01*
X602733Y243093D02*
X619733D01*
Y271093D01*
X602733D02*
X619733D01*
X602733Y243093D02*
Y271093D01*
X631580Y303560D02*
X648580D01*
X631580Y275560D02*
Y303560D01*
Y275560D02*
X648580D01*
Y303560D01*
X606430Y301821D02*
X622930D01*
X606430Y274759D02*
Y301821D01*
Y274759D02*
X622930D01*
Y301821D01*
X833465Y478980D02*
X850465D01*
Y470980D02*
Y478980D01*
X833465Y470980D02*
X850465D01*
X833465D02*
Y478980D01*
X553642Y908568D02*
X581642D01*
Y891568D02*
Y908568D01*
X553642Y891568D02*
X581642D01*
X553642D02*
Y908568D01*
X480282Y833998D02*
Y861998D01*
X497282D01*
Y833998D02*
Y861998D01*
X480282Y833998D02*
X497282D01*
X508472Y834467D02*
Y861529D01*
X524972D01*
Y834467D02*
Y861529D01*
X508472Y834467D02*
X524972D01*
X508472Y897089D02*
X524972D01*
X508472Y870027D02*
Y897089D01*
Y870027D02*
X524972D01*
Y897089D01*
X602532Y821718D02*
Y839442D01*
X593808Y821718D02*
X602532D01*
X593808D02*
Y839442D01*
X602532D01*
X659475Y793940D02*
X676475D01*
Y785940D02*
Y793940D01*
X659475Y785940D02*
X676475D01*
X659475D02*
Y793940D01*
X676093Y300663D02*
Y317663D01*
Y300663D02*
X704093D01*
Y317663D01*
X676093D02*
X704093D01*
X84450Y276029D02*
Y303091D01*
X67950Y276029D02*
X84450D01*
X67950D02*
Y303091D01*
X84450D01*
X65410Y237205D02*
Y264267D01*
X81910D01*
Y237205D02*
Y264267D01*
X65410Y237205D02*
X81910D01*
X90560Y236736D02*
Y264736D01*
X107560D01*
Y236736D02*
Y264736D01*
X90560Y236736D02*
X107560D01*
X51110Y230646D02*
X108910D01*
Y202246D02*
Y230646D01*
X51110Y202246D02*
X108910D01*
X51110D02*
Y230646D01*
X322890Y233910D02*
X380690D01*
Y205510D02*
Y233910D01*
X322890Y205510D02*
X380690D01*
X322890D02*
Y233910D01*
X97560Y378770D02*
Y436570D01*
X125960D01*
Y378770D02*
Y436570D01*
X97560Y378770D02*
X125960D01*
X155980D02*
Y436570D01*
X184380D01*
Y378770D02*
Y436570D01*
X155980Y378770D02*
X184380D01*
X214400D02*
X242800D01*
Y436570D01*
X214400D02*
X242800D01*
X214400Y378770D02*
Y436570D01*
X623340Y378770D02*
Y436570D01*
X651740D01*
Y378770D02*
Y436570D01*
X623340Y378770D02*
X651740D01*
X710160D02*
Y436570D01*
X681760Y378770D02*
X710160D01*
X681760D02*
Y436570D01*
X710160D01*
X594130Y378770D02*
Y436570D01*
X622530D01*
Y378770D02*
Y436570D01*
X594130Y378770D02*
X622530D01*
X680950D02*
Y436570D01*
X652550Y378770D02*
X680950D01*
X652550D02*
Y436570D01*
X680950D01*
X614990Y673330D02*
X672790D01*
Y644930D02*
Y673330D01*
X614990Y644930D02*
X672790D01*
X614990D02*
Y673330D01*
X763580D02*
X821380D01*
Y644930D02*
Y673330D01*
X763580Y644930D02*
X821380D01*
X763580D02*
Y673330D01*
X689936Y729430D02*
X775644D01*
X689936D02*
Y817430D01*
X775644D01*
Y729430D02*
Y817430D01*
X781500Y381326D02*
X869500D01*
Y467034D01*
X781500D02*
X869500D01*
X781500Y381326D02*
Y467034D01*
X281614Y720540D02*
Y808540D01*
X195906D02*
X281614D01*
X195906Y720540D02*
Y808540D01*
Y720540D02*
X281614D01*
X363610Y307370D02*
X380610D01*
X363610Y279370D02*
Y307370D01*
Y279370D02*
X380610D01*
Y307370D01*
X538570Y301018D02*
Y318018D01*
Y301018D02*
X566570D01*
Y318018D01*
X538570D02*
X566570D01*
X110100Y275680D02*
Y303680D01*
X93100Y275680D02*
X110100D01*
X93100D02*
Y303680D01*
X110100D01*
X134710Y315840D02*
X162710D01*
Y298840D02*
Y315840D01*
X134710Y298840D02*
X162710D01*
X134710D02*
Y315840D01*
D82*
X826850Y529590D02*
X836850D01*
X831850Y524590D02*
Y534590D01*
X806530Y336550D02*
X816530D01*
X811530Y331550D02*
Y341550D01*
X764620Y528320D02*
X774620D01*
X769620Y523320D02*
Y533320D01*
X739220Y406400D02*
X749220D01*
X744220Y401400D02*
Y411400D01*
X1072070Y91440D02*
X1082070D01*
X1077070Y86440D02*
Y96440D01*
X1071850Y140970D02*
X1081850D01*
X1076850Y135970D02*
Y145970D01*
X1330960Y172800D02*
Y182800D01*
X1325960Y177800D02*
X1335960D01*
X1332270Y94060D02*
Y104060D01*
X1327270Y99060D02*
X1337270D01*
X176530Y880700D02*
Y890700D01*
X171530Y885700D02*
X181530D01*
X172800Y659130D02*
X182800D01*
X177800Y654130D02*
Y664130D01*
X308610Y654130D02*
Y664130D01*
X303610Y659130D02*
X313610D01*
X427990Y654130D02*
Y664130D01*
X422990Y659130D02*
X432990D01*
X563880Y654130D02*
Y664130D01*
X558880Y659130D02*
X568880D01*
D84*
X896670Y958710D02*
X1391870D01*
X896670Y200660D02*
Y958710D01*
Y200660D02*
X1391870D01*
Y958710D01*
X294865Y221835D02*
Y241215D01*
X283865Y221835D02*
Y241215D01*
Y221835D02*
X294865D01*
X283865Y241215D02*
X294865D01*
X414870Y240830D02*
X425870D01*
X414870Y221450D02*
X425870D01*
X414870D02*
Y240830D01*
X425870Y221450D02*
Y240830D01*
X145630Y238290D02*
X156630D01*
X145630Y218910D02*
X156630D01*
X145630D02*
Y238290D01*
X156630Y218910D02*
Y238290D01*
X566645Y221473D02*
Y240853D01*
X555645Y221473D02*
Y240853D01*
Y221473D02*
X566645D01*
X555645Y240853D02*
X566645D01*
X340180Y610500D02*
Y629880D01*
X351180Y610500D02*
Y629880D01*
X340180D02*
X351180D01*
X340180Y610500D02*
X351180D01*
X212940Y609230D02*
Y628610D01*
X223940Y609230D02*
Y628610D01*
X212940D02*
X223940D01*
X212940Y609230D02*
X223940D01*
X472020Y611340D02*
X483020D01*
X472020Y630720D02*
X483020D01*
Y611340D02*
Y630720D01*
X472020Y611340D02*
Y630720D01*
X70700Y605420D02*
Y624800D01*
X81700Y605420D02*
Y624800D01*
X70700D02*
X81700D01*
X70700Y605420D02*
X81700D01*
X861850Y488090D02*
Y571090D01*
X801850Y488090D02*
Y571090D01*
X861850D01*
X801850Y488090D02*
X861850D01*
X841530Y295050D02*
Y378050D01*
X781530Y295050D02*
Y378050D01*
X841530D01*
X781530Y295050D02*
X841530D01*
X799620Y486820D02*
Y569820D01*
X739620Y486820D02*
Y569820D01*
X799620D01*
X739620Y486820D02*
X799620D01*
X774220Y364900D02*
Y447900D01*
X714220Y364900D02*
Y447900D01*
X774220D01*
X714220Y364900D02*
X774220D01*
X249815Y250825D02*
Y291825D01*
X290815D01*
Y250825D02*
Y291825D01*
X249815Y250825D02*
X290815D01*
X477340Y593270D02*
X518340D01*
X477340Y552270D02*
Y593270D01*
Y552270D02*
X518340D01*
Y593270D01*
X1094570Y81440D02*
Y101440D01*
X1059570Y81440D02*
Y101440D01*
Y81440D02*
X1094570D01*
X1059570Y101440D02*
X1094570D01*
X385230Y552270D02*
Y593270D01*
X344230Y552270D02*
X385230D01*
X344230D02*
Y593270D01*
X385230D01*
X257990Y552270D02*
Y593270D01*
X216990Y552270D02*
X257990D01*
X216990D02*
Y593270D01*
X257990D01*
X115750Y552270D02*
Y593270D01*
X74750Y552270D02*
X115750D01*
X74750D02*
Y593270D01*
X115750D01*
X1094350Y130970D02*
Y150970D01*
X1059350Y130970D02*
Y150970D01*
Y130970D02*
X1094350D01*
X1059350Y150970D02*
X1094350D01*
X1313460Y187800D02*
X1348460D01*
X1313460Y167800D02*
X1348460D01*
X1313460D02*
Y187800D01*
X1348460Y167800D02*
Y187800D01*
X1314770Y109060D02*
X1349770D01*
X1314770Y89060D02*
X1349770D01*
X1314770D02*
Y109060D01*
X1349770Y89060D02*
Y109060D01*
X1225530Y120710D02*
X1266530D01*
Y161710D01*
X1225530D02*
X1266530D01*
X1225530Y120710D02*
Y161710D01*
X157530Y857700D02*
X195530D01*
X157530Y913700D02*
X195530D01*
X157530Y857700D02*
Y913700D01*
X195530Y857700D02*
Y913700D01*
X138700Y672580D02*
X216900D01*
X138700Y645680D02*
Y672580D01*
X216900Y645680D02*
Y672580D01*
X138700Y645680D02*
X216900D01*
X655503Y250825D02*
X696503D01*
Y291825D01*
X655503D02*
X696503D01*
X655503Y250825D02*
Y291825D01*
X533052Y844008D02*
X574052D01*
Y885008D01*
X533052D02*
X574052D01*
X533052Y844008D02*
Y885008D01*
X14600Y929810D02*
X138100D01*
X14600Y855810D02*
Y929810D01*
Y855810D02*
X138100D01*
Y929810D01*
X71600Y887810D02*
Y897810D01*
X66600Y892810D02*
X76600D01*
X269510Y645680D02*
X347710D01*
Y672580D01*
X269510Y645680D02*
Y672580D01*
X347710D01*
X388890D02*
X467090D01*
X388890Y645680D02*
Y672580D01*
X467090Y645680D02*
Y672580D01*
X388890Y645680D02*
X467090D01*
X524780Y672580D02*
X602980D01*
X524780Y645680D02*
Y672580D01*
X602980Y645680D02*
Y672580D01*
X524780Y645680D02*
X602980D01*
X117735Y250825D02*
Y291825D01*
X158735D01*
Y250825D02*
Y291825D01*
X117735Y250825D02*
X158735D01*
X388245D02*
Y291825D01*
X429245D01*
Y250825D02*
Y291825D01*
X388245Y250825D02*
X429245D01*
X521595D02*
Y291825D01*
X562595D01*
Y250825D02*
Y291825D01*
X521595Y250825D02*
X562595D01*
M02*
