G04*
G04 #@! TF.GenerationSoftware,Altium Limited,Altium Designer,25.3.3 (18)*
G04*
G04 Layer_Color=32768*
%FSLAX44Y44*%
%MOMM*%
G71*
G04*
G04 #@! TF.SameCoordinates,8BA9F0F0-51DE-43A2-9AC8-778ADDE1523D*
G04*
G04*
G04 #@! TF.FilePolarity,Positive*
G04*
G01*
G75*
%ADD83C,0.1500*%
G36*
X270204Y287061D02*
X268263Y286312D01*
Y283631D01*
X270204Y282937D01*
Y282040D01*
X263806Y284481D01*
Y285406D01*
X270204Y288022D01*
Y287061D01*
D02*
G37*
G36*
X268669Y280746D02*
X270204D01*
Y279960D01*
X268669D01*
Y277177D01*
X267948D01*
X263806Y280108D01*
Y280746D01*
X267948D01*
Y281615D01*
X268669D01*
Y280746D01*
D02*
G37*
G36*
X267745Y276345D02*
X267837D01*
X267948Y276336D01*
X268059Y276327D01*
X268309Y276299D01*
X268568Y276262D01*
X268817Y276206D01*
X268937Y276169D01*
X269048Y276132D01*
X269058D01*
X269076Y276123D01*
X269104Y276105D01*
X269141Y276086D01*
X269243Y276031D01*
X269372Y275947D01*
X269520Y275837D01*
X269668Y275707D01*
X269825Y275541D01*
X269964Y275337D01*
Y275328D01*
X269982Y275310D01*
X269991Y275282D01*
X270019Y275236D01*
X270047Y275180D01*
X270075Y275106D01*
X270102Y275032D01*
X270139Y274940D01*
X270176Y274838D01*
X270204Y274727D01*
X270232Y274607D01*
X270260Y274468D01*
X270278Y274330D01*
X270297Y274182D01*
X270315Y273849D01*
Y273766D01*
X270306Y273701D01*
Y273627D01*
X270297Y273534D01*
X270287Y273433D01*
X270278Y273331D01*
X270241Y273100D01*
X270186Y272850D01*
X270112Y272610D01*
X270010Y272379D01*
Y272369D01*
X269991Y272351D01*
X269973Y272323D01*
X269954Y272286D01*
X269881Y272185D01*
X269779Y272064D01*
X269649Y271926D01*
X269501Y271796D01*
X269317Y271667D01*
X269113Y271565D01*
X269104D01*
X269085Y271556D01*
X269048Y271547D01*
X269002Y271528D01*
X268947Y271510D01*
X268873Y271491D01*
X268790Y271463D01*
X268688Y271445D01*
X268577Y271426D01*
X268457Y271399D01*
X268327Y271380D01*
X268189Y271362D01*
X268031Y271343D01*
X267865Y271334D01*
X267689Y271325D01*
X267504D01*
X263806D01*
Y272175D01*
X267504D01*
X267514D01*
X267541D01*
X267588D01*
X267643D01*
X267708Y272185D01*
X267791D01*
X267967Y272194D01*
X268170Y272212D01*
X268374Y272240D01*
X268568Y272277D01*
X268651Y272295D01*
X268734Y272323D01*
X268752Y272332D01*
X268799Y272351D01*
X268864Y272397D01*
X268956Y272453D01*
X269048Y272517D01*
X269150Y272610D01*
X269252Y272721D01*
X269335Y272850D01*
X269344Y272869D01*
X269372Y272915D01*
X269400Y272998D01*
X269437Y273109D01*
X269483Y273239D01*
X269511Y273405D01*
X269538Y273581D01*
X269548Y273775D01*
Y273867D01*
X269538Y273923D01*
Y274006D01*
X269529Y274089D01*
X269492Y274293D01*
X269446Y274515D01*
X269372Y274727D01*
X269270Y274930D01*
X269206Y275023D01*
X269132Y275106D01*
X269122Y275115D01*
X269113Y275125D01*
X269085Y275143D01*
X269048Y275171D01*
X268993Y275199D01*
X268937Y275236D01*
X268854Y275273D01*
X268771Y275310D01*
X268669Y275347D01*
X268549Y275374D01*
X268410Y275411D01*
X268263Y275439D01*
X268096Y275467D01*
X267920Y275485D01*
X267717Y275504D01*
X267504D01*
X263806D01*
Y276354D01*
X267504D01*
X267514D01*
X267551D01*
X267597D01*
X267662D01*
X267745Y276345D01*
D02*
G37*
G36*
X504349Y571920D02*
X500650D01*
X500641D01*
X500614D01*
X500567D01*
X500512D01*
X500447Y571910D01*
X500364D01*
X500188Y571901D01*
X499985Y571883D01*
X499781Y571855D01*
X499587Y571818D01*
X499504Y571799D01*
X499421Y571772D01*
X499402Y571762D01*
X499356Y571744D01*
X499291Y571698D01*
X499199Y571642D01*
X499106Y571577D01*
X499005Y571485D01*
X498903Y571374D01*
X498820Y571245D01*
X498811Y571226D01*
X498783Y571180D01*
X498755Y571097D01*
X498718Y570986D01*
X498672Y570856D01*
X498644Y570690D01*
X498616Y570514D01*
X498607Y570320D01*
Y570228D01*
X498616Y570172D01*
Y570089D01*
X498626Y570006D01*
X498663Y569802D01*
X498709Y569580D01*
X498783Y569368D01*
X498885Y569164D01*
X498949Y569072D01*
X499023Y568989D01*
X499033Y568979D01*
X499042Y568970D01*
X499070Y568952D01*
X499106Y568924D01*
X499162Y568896D01*
X499217Y568859D01*
X499301Y568822D01*
X499384Y568785D01*
X499486Y568748D01*
X499606Y568721D01*
X499744Y568684D01*
X499892Y568656D01*
X500059Y568628D01*
X500234Y568610D01*
X500438Y568591D01*
X500650D01*
X504349D01*
Y567741D01*
X500650D01*
X500641D01*
X500604D01*
X500558D01*
X500493D01*
X500410Y567750D01*
X500318D01*
X500207Y567759D01*
X500096Y567768D01*
X499846Y567796D01*
X499587Y567833D01*
X499338Y567888D01*
X499217Y567925D01*
X499106Y567962D01*
X499097D01*
X499079Y567972D01*
X499051Y567990D01*
X499014Y568009D01*
X498912Y568064D01*
X498783Y568147D01*
X498635Y568258D01*
X498487Y568388D01*
X498330Y568554D01*
X498191Y568758D01*
Y568767D01*
X498173Y568785D01*
X498163Y568813D01*
X498136Y568859D01*
X498108Y568915D01*
X498080Y568989D01*
X498052Y569063D01*
X498016Y569155D01*
X497979Y569257D01*
X497951Y569368D01*
X497923Y569488D01*
X497895Y569627D01*
X497877Y569765D01*
X497858Y569913D01*
X497840Y570246D01*
Y570329D01*
X497849Y570394D01*
Y570468D01*
X497858Y570560D01*
X497868Y570662D01*
X497877Y570764D01*
X497914Y570995D01*
X497969Y571245D01*
X498043Y571485D01*
X498145Y571716D01*
Y571725D01*
X498163Y571744D01*
X498182Y571772D01*
X498200Y571809D01*
X498274Y571910D01*
X498376Y572030D01*
X498506Y572169D01*
X498653Y572299D01*
X498838Y572428D01*
X499042Y572530D01*
X499051D01*
X499070Y572539D01*
X499106Y572548D01*
X499153Y572567D01*
X499208Y572585D01*
X499282Y572604D01*
X499365Y572631D01*
X499467Y572650D01*
X499578Y572668D01*
X499698Y572696D01*
X499828Y572715D01*
X499966Y572733D01*
X500123Y572752D01*
X500290Y572761D01*
X500466Y572770D01*
X500650D01*
X504349D01*
Y571920D01*
D02*
G37*
G36*
Y563987D02*
Y563349D01*
X500207D01*
Y562480D01*
X499486D01*
Y563349D01*
X497951D01*
Y564135D01*
X499486D01*
Y566918D01*
X500207D01*
X504349Y563987D01*
D02*
G37*
G36*
X501270Y561564D02*
X501353D01*
X501455Y561555D01*
X501557Y561537D01*
X501677Y561527D01*
X501806Y561500D01*
X501945Y561481D01*
X502241Y561407D01*
X502546Y561315D01*
X502851Y561185D01*
X502860Y561176D01*
X502888Y561167D01*
X502925Y561148D01*
X502980Y561111D01*
X503054Y561074D01*
X503128Y561028D01*
X503304Y560899D01*
X503507Y560742D01*
X503702Y560547D01*
X503896Y560326D01*
X503979Y560196D01*
X504062Y560067D01*
X504071Y560057D01*
X504081Y560030D01*
X504099Y559993D01*
X504127Y559937D01*
X504155Y559863D01*
X504192Y559780D01*
X504229Y559688D01*
X504266Y559577D01*
X504302Y559456D01*
X504330Y559327D01*
X504367Y559188D01*
X504395Y559040D01*
X504441Y558717D01*
X504460Y558550D01*
Y558255D01*
X504450Y558199D01*
Y558125D01*
X504432Y557949D01*
X504404Y557755D01*
X504358Y557552D01*
X504302Y557330D01*
X504229Y557117D01*
Y557108D01*
X504219Y557090D01*
X504210Y557062D01*
X504192Y557025D01*
X504136Y556923D01*
X504071Y556794D01*
X503979Y556655D01*
X503868Y556507D01*
X503748Y556368D01*
X503600Y556239D01*
X503581Y556221D01*
X503526Y556184D01*
X503443Y556128D01*
X503322Y556054D01*
X503175Y555980D01*
X502990Y555897D01*
X502786Y555814D01*
X502555Y555749D01*
X502352Y556516D01*
X502361D01*
X502370Y556526D01*
X502398Y556535D01*
X502435Y556544D01*
X502518Y556572D01*
X502629Y556609D01*
X502758Y556664D01*
X502879Y556729D01*
X503008Y556794D01*
X503119Y556877D01*
X503128Y556886D01*
X503165Y556914D01*
X503212Y556969D01*
X503276Y557034D01*
X503350Y557117D01*
X503424Y557228D01*
X503498Y557348D01*
X503563Y557487D01*
X503572Y557506D01*
X503591Y557552D01*
X503618Y557635D01*
X503655Y557746D01*
X503683Y557875D01*
X503711Y558023D01*
X503729Y558190D01*
X503739Y558365D01*
Y558467D01*
X503729Y558513D01*
Y558569D01*
X503720Y558708D01*
X503692Y558865D01*
X503665Y559040D01*
X503618Y559207D01*
X503554Y559373D01*
X503544Y559392D01*
X503526Y559447D01*
X503480Y559521D01*
X503433Y559614D01*
X503359Y559725D01*
X503285Y559845D01*
X503193Y559956D01*
X503091Y560057D01*
X503082Y560067D01*
X503045Y560104D01*
X502980Y560150D01*
X502906Y560205D01*
X502814Y560270D01*
X502703Y560335D01*
X502583Y560400D01*
X502453Y560464D01*
X502444D01*
X502426Y560473D01*
X502398Y560483D01*
X502352Y560501D01*
X502296Y560520D01*
X502231Y560538D01*
X502158Y560566D01*
X502074Y560584D01*
X501880Y560631D01*
X501658Y560668D01*
X501427Y560695D01*
X501168Y560705D01*
X501159D01*
X501131D01*
X501085D01*
X501030Y560695D01*
X500956D01*
X500863Y560686D01*
X500771Y560677D01*
X500669Y560668D01*
X500438Y560631D01*
X500197Y560584D01*
X499957Y560510D01*
X499726Y560418D01*
X499717D01*
X499698Y560400D01*
X499670Y560390D01*
X499633Y560363D01*
X499532Y560298D01*
X499402Y560196D01*
X499264Y560076D01*
X499125Y559928D01*
X498996Y559752D01*
X498875Y559558D01*
Y559549D01*
X498866Y559530D01*
X498848Y559503D01*
X498829Y559456D01*
X498811Y559410D01*
X498792Y559346D01*
X498737Y559198D01*
X498690Y559013D01*
X498644Y558809D01*
X498607Y558587D01*
X498598Y558356D01*
Y558264D01*
X498607Y558208D01*
Y558153D01*
X498626Y558014D01*
X498644Y557848D01*
X498681Y557672D01*
X498737Y557478D01*
X498801Y557284D01*
Y557275D01*
X498811Y557256D01*
X498820Y557238D01*
X498838Y557201D01*
X498885Y557099D01*
X498940Y556988D01*
X499005Y556858D01*
X499079Y556720D01*
X499162Y556590D01*
X499254Y556479D01*
X500456D01*
Y558365D01*
X501214D01*
Y555647D01*
X498838D01*
X498829Y555657D01*
X498820Y555675D01*
X498792Y555712D01*
X498755Y555758D01*
X498718Y555814D01*
X498672Y555878D01*
X498616Y555962D01*
X498561Y556045D01*
X498441Y556239D01*
X498311Y556461D01*
X498191Y556692D01*
X498089Y556942D01*
Y556951D01*
X498080Y556969D01*
X498071Y557006D01*
X498052Y557053D01*
X498034Y557117D01*
X498006Y557191D01*
X497988Y557275D01*
X497969Y557358D01*
X497923Y557561D01*
X497877Y557792D01*
X497849Y558042D01*
X497840Y558301D01*
Y558393D01*
X497849Y558458D01*
Y558541D01*
X497858Y558643D01*
X497877Y558754D01*
X497886Y558874D01*
X497942Y559142D01*
X498006Y559429D01*
X498108Y559725D01*
X498163Y559873D01*
X498237Y560020D01*
X498247Y560030D01*
X498256Y560057D01*
X498284Y560094D01*
X498311Y560150D01*
X498358Y560215D01*
X498404Y560279D01*
X498533Y560455D01*
X498700Y560640D01*
X498903Y560834D01*
X499134Y561019D01*
X499402Y561185D01*
X499412D01*
X499439Y561204D01*
X499476Y561222D01*
X499541Y561250D01*
X499606Y561278D01*
X499698Y561306D01*
X499791Y561343D01*
X499902Y561380D01*
X500022Y561417D01*
X500160Y561454D01*
X500299Y561481D01*
X500447Y561509D01*
X500771Y561555D01*
X501113Y561574D01*
X501122D01*
X501159D01*
X501205D01*
X501270Y561564D01*
D02*
G37*
G36*
X371239Y571920D02*
X367541D01*
X367531D01*
X367504D01*
X367457D01*
X367402D01*
X367337Y571910D01*
X367254D01*
X367078Y571901D01*
X366875Y571883D01*
X366671Y571855D01*
X366477Y571818D01*
X366394Y571799D01*
X366311Y571772D01*
X366292Y571762D01*
X366246Y571744D01*
X366181Y571698D01*
X366089Y571642D01*
X365997Y571577D01*
X365895Y571485D01*
X365793Y571374D01*
X365710Y571245D01*
X365701Y571226D01*
X365673Y571180D01*
X365645Y571097D01*
X365608Y570986D01*
X365562Y570856D01*
X365534Y570690D01*
X365507Y570514D01*
X365497Y570320D01*
Y570228D01*
X365507Y570172D01*
Y570089D01*
X365516Y570006D01*
X365553Y569802D01*
X365599Y569580D01*
X365673Y569368D01*
X365775Y569164D01*
X365839Y569072D01*
X365913Y568989D01*
X365923Y568979D01*
X365932Y568970D01*
X365960Y568952D01*
X365997Y568924D01*
X366052Y568896D01*
X366107Y568859D01*
X366191Y568822D01*
X366274Y568785D01*
X366376Y568748D01*
X366496Y568721D01*
X366634Y568684D01*
X366782Y568656D01*
X366949Y568628D01*
X367124Y568610D01*
X367328Y568591D01*
X367541D01*
X371239D01*
Y567741D01*
X367541D01*
X367531D01*
X367494D01*
X367448D01*
X367383D01*
X367300Y567750D01*
X367208D01*
X367097Y567759D01*
X366986Y567768D01*
X366736Y567796D01*
X366477Y567833D01*
X366228Y567888D01*
X366107Y567925D01*
X365997Y567962D01*
X365987D01*
X365969Y567972D01*
X365941Y567990D01*
X365904Y568009D01*
X365802Y568064D01*
X365673Y568147D01*
X365525Y568258D01*
X365377Y568388D01*
X365220Y568554D01*
X365081Y568758D01*
Y568767D01*
X365063Y568785D01*
X365053Y568813D01*
X365026Y568859D01*
X364998Y568915D01*
X364970Y568989D01*
X364943Y569063D01*
X364906Y569155D01*
X364869Y569257D01*
X364841Y569368D01*
X364813Y569488D01*
X364785Y569627D01*
X364767Y569765D01*
X364748Y569913D01*
X364730Y570246D01*
Y570329D01*
X364739Y570394D01*
Y570468D01*
X364748Y570560D01*
X364758Y570662D01*
X364767Y570764D01*
X364804Y570995D01*
X364859Y571245D01*
X364933Y571485D01*
X365035Y571716D01*
Y571725D01*
X365053Y571744D01*
X365072Y571772D01*
X365090Y571809D01*
X365164Y571910D01*
X365266Y572030D01*
X365396Y572169D01*
X365544Y572299D01*
X365728Y572428D01*
X365932Y572530D01*
X365941D01*
X365960Y572539D01*
X365997Y572548D01*
X366043Y572567D01*
X366098Y572585D01*
X366172Y572604D01*
X366255Y572631D01*
X366357Y572650D01*
X366468Y572668D01*
X366588Y572696D01*
X366718Y572715D01*
X366856Y572733D01*
X367014Y572752D01*
X367180Y572761D01*
X367356Y572770D01*
X367541D01*
X371239D01*
Y571920D01*
D02*
G37*
G36*
Y563987D02*
Y563349D01*
X367097D01*
Y562480D01*
X366376D01*
Y563349D01*
X364841D01*
Y564135D01*
X366376D01*
Y566918D01*
X367097D01*
X371239Y563987D01*
D02*
G37*
G36*
Y556711D02*
X370481D01*
Y560492D01*
X368530D01*
Y556951D01*
X367772D01*
Y560492D01*
X365599D01*
Y556563D01*
X364841D01*
Y561343D01*
X371239D01*
Y556711D01*
D02*
G37*
G36*
X243999Y571920D02*
X240301D01*
X240291D01*
X240264D01*
X240217D01*
X240162D01*
X240097Y571910D01*
X240014D01*
X239838Y571901D01*
X239635Y571883D01*
X239431Y571855D01*
X239237Y571818D01*
X239154Y571799D01*
X239071Y571772D01*
X239052Y571762D01*
X239006Y571744D01*
X238941Y571698D01*
X238849Y571642D01*
X238757Y571577D01*
X238655Y571485D01*
X238553Y571374D01*
X238470Y571245D01*
X238461Y571226D01*
X238433Y571180D01*
X238405Y571097D01*
X238368Y570986D01*
X238322Y570856D01*
X238294Y570690D01*
X238267Y570514D01*
X238257Y570320D01*
Y570228D01*
X238267Y570172D01*
Y570089D01*
X238276Y570006D01*
X238313Y569802D01*
X238359Y569580D01*
X238433Y569368D01*
X238535Y569164D01*
X238599Y569072D01*
X238673Y568989D01*
X238683Y568979D01*
X238692Y568970D01*
X238720Y568952D01*
X238757Y568924D01*
X238812Y568896D01*
X238867Y568859D01*
X238951Y568822D01*
X239034Y568785D01*
X239136Y568748D01*
X239256Y568721D01*
X239394Y568684D01*
X239542Y568656D01*
X239709Y568628D01*
X239884Y568610D01*
X240088Y568591D01*
X240301D01*
X243999D01*
Y567741D01*
X240301D01*
X240291D01*
X240254D01*
X240208D01*
X240143D01*
X240060Y567750D01*
X239968D01*
X239857Y567759D01*
X239746Y567768D01*
X239496Y567796D01*
X239237Y567833D01*
X238988Y567888D01*
X238867Y567925D01*
X238757Y567962D01*
X238747D01*
X238729Y567972D01*
X238701Y567990D01*
X238664Y568009D01*
X238562Y568064D01*
X238433Y568147D01*
X238285Y568258D01*
X238137Y568388D01*
X237980Y568554D01*
X237841Y568758D01*
Y568767D01*
X237823Y568785D01*
X237813Y568813D01*
X237786Y568859D01*
X237758Y568915D01*
X237730Y568989D01*
X237703Y569063D01*
X237666Y569155D01*
X237629Y569257D01*
X237601Y569368D01*
X237573Y569488D01*
X237545Y569627D01*
X237527Y569765D01*
X237508Y569913D01*
X237490Y570246D01*
Y570329D01*
X237499Y570394D01*
Y570468D01*
X237508Y570560D01*
X237518Y570662D01*
X237527Y570764D01*
X237564Y570995D01*
X237619Y571245D01*
X237693Y571485D01*
X237795Y571716D01*
Y571725D01*
X237813Y571744D01*
X237832Y571772D01*
X237850Y571809D01*
X237924Y571910D01*
X238026Y572030D01*
X238156Y572169D01*
X238304Y572299D01*
X238488Y572428D01*
X238692Y572530D01*
X238701D01*
X238720Y572539D01*
X238757Y572548D01*
X238803Y572567D01*
X238858Y572585D01*
X238932Y572604D01*
X239015Y572631D01*
X239117Y572650D01*
X239228Y572668D01*
X239348Y572696D01*
X239478Y572715D01*
X239616Y572733D01*
X239774Y572752D01*
X239940Y572761D01*
X240116Y572770D01*
X240301D01*
X243999D01*
Y571920D01*
D02*
G37*
G36*
Y563987D02*
Y563349D01*
X239857D01*
Y562480D01*
X239136D01*
Y563349D01*
X237601D01*
Y564135D01*
X239136D01*
Y566918D01*
X239857D01*
X243999Y563987D01*
D02*
G37*
G36*
Y556988D02*
X243241D01*
Y560464D01*
X241262D01*
Y557459D01*
X240504D01*
Y560464D01*
X237601D01*
Y561315D01*
X243999D01*
Y556988D01*
D02*
G37*
G36*
X101759Y571920D02*
X98061D01*
X98051D01*
X98024D01*
X97977D01*
X97922D01*
X97857Y571910D01*
X97774D01*
X97598Y571901D01*
X97395Y571883D01*
X97191Y571855D01*
X96997Y571818D01*
X96914Y571799D01*
X96831Y571772D01*
X96812Y571762D01*
X96766Y571744D01*
X96701Y571698D01*
X96609Y571642D01*
X96517Y571577D01*
X96415Y571485D01*
X96313Y571374D01*
X96230Y571245D01*
X96221Y571226D01*
X96193Y571180D01*
X96165Y571097D01*
X96128Y570986D01*
X96082Y570856D01*
X96054Y570690D01*
X96026Y570514D01*
X96017Y570320D01*
Y570228D01*
X96026Y570172D01*
Y570089D01*
X96036Y570006D01*
X96073Y569802D01*
X96119Y569580D01*
X96193Y569368D01*
X96295Y569164D01*
X96359Y569072D01*
X96433Y568989D01*
X96443Y568979D01*
X96452Y568970D01*
X96480Y568952D01*
X96517Y568924D01*
X96572Y568896D01*
X96628Y568859D01*
X96711Y568822D01*
X96794Y568785D01*
X96896Y568748D01*
X97016Y568721D01*
X97155Y568684D01*
X97302Y568656D01*
X97469Y568628D01*
X97645Y568610D01*
X97848Y568591D01*
X98061D01*
X101759D01*
Y567741D01*
X98061D01*
X98051D01*
X98014D01*
X97968D01*
X97903D01*
X97820Y567750D01*
X97728D01*
X97617Y567759D01*
X97506Y567768D01*
X97256Y567796D01*
X96997Y567833D01*
X96748Y567888D01*
X96628Y567925D01*
X96517Y567962D01*
X96507D01*
X96489Y567972D01*
X96461Y567990D01*
X96424Y568009D01*
X96322Y568064D01*
X96193Y568147D01*
X96045Y568258D01*
X95897Y568388D01*
X95740Y568554D01*
X95601Y568758D01*
Y568767D01*
X95583Y568785D01*
X95574Y568813D01*
X95546Y568859D01*
X95518Y568915D01*
X95490Y568989D01*
X95463Y569063D01*
X95426Y569155D01*
X95389Y569257D01*
X95361Y569368D01*
X95333Y569488D01*
X95305Y569627D01*
X95287Y569765D01*
X95268Y569913D01*
X95250Y570246D01*
Y570329D01*
X95259Y570394D01*
Y570468D01*
X95268Y570560D01*
X95278Y570662D01*
X95287Y570764D01*
X95324Y570995D01*
X95379Y571245D01*
X95453Y571485D01*
X95555Y571716D01*
Y571725D01*
X95574Y571744D01*
X95592Y571772D01*
X95611Y571809D01*
X95684Y571910D01*
X95786Y572030D01*
X95916Y572169D01*
X96063Y572299D01*
X96248Y572428D01*
X96452Y572530D01*
X96461D01*
X96480Y572539D01*
X96517Y572548D01*
X96563Y572567D01*
X96618Y572585D01*
X96692Y572604D01*
X96775Y572631D01*
X96877Y572650D01*
X96988Y572668D01*
X97108Y572696D01*
X97238Y572715D01*
X97376Y572733D01*
X97534Y572752D01*
X97700Y572761D01*
X97876Y572770D01*
X98061D01*
X101759D01*
Y571920D01*
D02*
G37*
G36*
Y563987D02*
Y563349D01*
X97617D01*
Y562480D01*
X96896D01*
Y563349D01*
X95361D01*
Y564135D01*
X96896D01*
Y566918D01*
X97617D01*
X101759Y563987D01*
D02*
G37*
G36*
Y560473D02*
X99133D01*
Y557164D01*
X101759D01*
Y556313D01*
X95361D01*
Y557164D01*
X98375D01*
Y560473D01*
X95361D01*
Y561324D01*
X101759D01*
Y560473D01*
D02*
G37*
G36*
X1244005Y151519D02*
X1244061D01*
X1244209Y151491D01*
X1244384Y151463D01*
X1244569Y151417D01*
X1244773Y151352D01*
X1244967Y151260D01*
X1244976D01*
X1244985Y151251D01*
X1245013Y151232D01*
X1245050Y151214D01*
X1245143Y151158D01*
X1245263Y151075D01*
X1245392Y150973D01*
X1245522Y150853D01*
X1245651Y150705D01*
X1245762Y150548D01*
Y150539D01*
X1245771Y150529D01*
X1245790Y150502D01*
X1245799Y150465D01*
X1245845Y150372D01*
X1245891Y150252D01*
X1245947Y150095D01*
X1245984Y149919D01*
X1246021Y149725D01*
X1246030Y149512D01*
Y149466D01*
X1246021Y149420D01*
Y149346D01*
X1246012Y149263D01*
X1245993Y149170D01*
X1245965Y149059D01*
X1245938Y148948D01*
X1245901Y148819D01*
X1245854Y148690D01*
X1245799Y148560D01*
X1245725Y148421D01*
X1245642Y148292D01*
X1245549Y148163D01*
X1245438Y148033D01*
X1245309Y147913D01*
X1245300Y147904D01*
X1245272Y147885D01*
X1245235Y147858D01*
X1245170Y147821D01*
X1245087Y147765D01*
X1244995Y147719D01*
X1244874Y147663D01*
X1244745Y147608D01*
X1244588Y147543D01*
X1244412Y147488D01*
X1244218Y147441D01*
X1244005Y147395D01*
X1243765Y147349D01*
X1243506Y147321D01*
X1243229Y147303D01*
X1242933Y147294D01*
X1242924D01*
X1242914D01*
X1242887D01*
X1242850D01*
X1242757Y147303D01*
X1242628D01*
X1242480Y147312D01*
X1242304Y147331D01*
X1242110Y147349D01*
X1241897Y147377D01*
X1241685Y147414D01*
X1241453Y147460D01*
X1241232Y147515D01*
X1241010Y147580D01*
X1240797Y147663D01*
X1240594Y147756D01*
X1240400Y147858D01*
X1240233Y147978D01*
X1240224Y147987D01*
X1240205Y148005D01*
X1240168Y148042D01*
X1240113Y148089D01*
X1240058Y148144D01*
X1240002Y148218D01*
X1239928Y148310D01*
X1239863Y148403D01*
X1239799Y148514D01*
X1239725Y148634D01*
X1239669Y148773D01*
X1239604Y148912D01*
X1239558Y149069D01*
X1239521Y149235D01*
X1239503Y149411D01*
X1239493Y149596D01*
Y149670D01*
X1239503Y149725D01*
Y149790D01*
X1239512Y149864D01*
X1239549Y150039D01*
X1239595Y150234D01*
X1239669Y150437D01*
X1239780Y150640D01*
X1239845Y150742D01*
X1239919Y150835D01*
X1239928Y150844D01*
X1239937Y150853D01*
X1239965Y150881D01*
X1239993Y150908D01*
X1240039Y150955D01*
X1240094Y150992D01*
X1240224Y151093D01*
X1240390Y151195D01*
X1240594Y151288D01*
X1240825Y151371D01*
X1241084Y151426D01*
X1241148Y150640D01*
X1241139D01*
X1241130Y150631D01*
X1241075Y150622D01*
X1240991Y150594D01*
X1240890Y150557D01*
X1240779Y150520D01*
X1240668Y150465D01*
X1240566Y150400D01*
X1240483Y150335D01*
X1240464Y150317D01*
X1240427Y150280D01*
X1240372Y150215D01*
X1240307Y150123D01*
X1240252Y150002D01*
X1240196Y149873D01*
X1240159Y149716D01*
X1240141Y149549D01*
Y149485D01*
X1240150Y149411D01*
X1240168Y149327D01*
X1240196Y149217D01*
X1240233Y149106D01*
X1240279Y148995D01*
X1240353Y148884D01*
X1240363Y148865D01*
X1240400Y148819D01*
X1240464Y148754D01*
X1240557Y148671D01*
X1240668Y148579D01*
X1240797Y148477D01*
X1240964Y148385D01*
X1241148Y148292D01*
X1241158D01*
X1241176Y148283D01*
X1241204Y148273D01*
X1241241Y148255D01*
X1241296Y148246D01*
X1241361Y148227D01*
X1241435Y148209D01*
X1241527Y148190D01*
X1241629Y148163D01*
X1241740Y148144D01*
X1241860Y148126D01*
X1241990Y148116D01*
X1242138Y148098D01*
X1242286Y148089D01*
X1242452Y148079D01*
X1242618D01*
X1242609Y148089D01*
X1242554Y148126D01*
X1242480Y148190D01*
X1242387Y148273D01*
X1242276Y148366D01*
X1242175Y148486D01*
X1242073Y148616D01*
X1241981Y148764D01*
Y148773D01*
X1241971Y148782D01*
X1241944Y148837D01*
X1241916Y148921D01*
X1241870Y149032D01*
X1241833Y149161D01*
X1241805Y149309D01*
X1241777Y149466D01*
X1241768Y149633D01*
Y149707D01*
X1241777Y149762D01*
X1241786Y149836D01*
X1241796Y149910D01*
X1241814Y150002D01*
X1241842Y150095D01*
X1241907Y150308D01*
X1241953Y150419D01*
X1242018Y150529D01*
X1242082Y150640D01*
X1242156Y150761D01*
X1242249Y150871D01*
X1242350Y150973D01*
X1242360Y150983D01*
X1242378Y151001D01*
X1242406Y151029D01*
X1242452Y151056D01*
X1242517Y151103D01*
X1242581Y151149D01*
X1242665Y151195D01*
X1242757Y151251D01*
X1242859Y151306D01*
X1242970Y151352D01*
X1243099Y151398D01*
X1243229Y151445D01*
X1243367Y151473D01*
X1243525Y151500D01*
X1243682Y151519D01*
X1243848Y151528D01*
X1243857D01*
X1243876D01*
X1243904D01*
X1243950D01*
X1244005Y151519D01*
D02*
G37*
G36*
X1243460Y146230D02*
X1243552D01*
X1243663Y146221D01*
X1243774Y146212D01*
X1244024Y146184D01*
X1244283Y146147D01*
X1244532Y146092D01*
X1244652Y146055D01*
X1244763Y146018D01*
X1244773D01*
X1244791Y146008D01*
X1244819Y145990D01*
X1244856Y145971D01*
X1244958Y145916D01*
X1245087Y145833D01*
X1245235Y145722D01*
X1245383Y145592D01*
X1245540Y145426D01*
X1245679Y145223D01*
Y145213D01*
X1245697Y145195D01*
X1245706Y145167D01*
X1245734Y145121D01*
X1245762Y145065D01*
X1245790Y144991D01*
X1245817Y144917D01*
X1245854Y144825D01*
X1245891Y144723D01*
X1245919Y144612D01*
X1245947Y144492D01*
X1245975Y144353D01*
X1245993Y144215D01*
X1246012Y144067D01*
X1246030Y143734D01*
Y143651D01*
X1246021Y143586D01*
Y143512D01*
X1246012Y143420D01*
X1246002Y143318D01*
X1245993Y143216D01*
X1245956Y142985D01*
X1245901Y142735D01*
X1245827Y142495D01*
X1245725Y142264D01*
Y142255D01*
X1245706Y142236D01*
X1245688Y142208D01*
X1245669Y142171D01*
X1245596Y142070D01*
X1245494Y141950D01*
X1245364Y141811D01*
X1245217Y141681D01*
X1245032Y141552D01*
X1244828Y141450D01*
X1244819D01*
X1244800Y141441D01*
X1244763Y141432D01*
X1244717Y141413D01*
X1244662Y141395D01*
X1244588Y141376D01*
X1244505Y141349D01*
X1244403Y141330D01*
X1244292Y141312D01*
X1244172Y141284D01*
X1244042Y141265D01*
X1243904Y141247D01*
X1243746Y141228D01*
X1243580Y141219D01*
X1243404Y141210D01*
X1243220D01*
X1239521D01*
Y142060D01*
X1243220D01*
X1243229D01*
X1243256D01*
X1243303D01*
X1243358D01*
X1243423Y142070D01*
X1243506D01*
X1243682Y142079D01*
X1243885Y142098D01*
X1244089Y142125D01*
X1244283Y142162D01*
X1244366Y142181D01*
X1244449Y142208D01*
X1244468Y142218D01*
X1244514Y142236D01*
X1244579Y142282D01*
X1244671Y142338D01*
X1244763Y142403D01*
X1244865Y142495D01*
X1244967Y142606D01*
X1245050Y142735D01*
X1245059Y142754D01*
X1245087Y142800D01*
X1245115Y142883D01*
X1245152Y142994D01*
X1245198Y143124D01*
X1245226Y143290D01*
X1245254Y143466D01*
X1245263Y143660D01*
Y143752D01*
X1245254Y143808D01*
Y143891D01*
X1245244Y143974D01*
X1245207Y144178D01*
X1245161Y144400D01*
X1245087Y144612D01*
X1244985Y144816D01*
X1244921Y144908D01*
X1244847Y144991D01*
X1244837Y145001D01*
X1244828Y145010D01*
X1244800Y145028D01*
X1244763Y145056D01*
X1244708Y145084D01*
X1244652Y145121D01*
X1244569Y145158D01*
X1244486Y145195D01*
X1244384Y145232D01*
X1244264Y145260D01*
X1244126Y145296D01*
X1243978Y145324D01*
X1243811Y145352D01*
X1243635Y145370D01*
X1243432Y145389D01*
X1243220D01*
X1239521D01*
Y146240D01*
X1243220D01*
X1243229D01*
X1243266D01*
X1243312D01*
X1243377D01*
X1243460Y146230D01*
D02*
G37*
G36*
X674201Y287532D02*
X674312Y287514D01*
X674441Y287495D01*
X674580Y287458D01*
X674727Y287412D01*
X674875Y287347D01*
X674894Y287338D01*
X674940Y287310D01*
X675005Y287273D01*
X675097Y287218D01*
X675190Y287144D01*
X675292Y287070D01*
X675393Y286978D01*
X675476Y286876D01*
X675486Y286867D01*
X675513Y286830D01*
X675550Y286765D01*
X675587Y286682D01*
X675643Y286580D01*
X675698Y286460D01*
X675744Y286330D01*
X675791Y286173D01*
Y286155D01*
X675809Y286099D01*
X675818Y286007D01*
X675837Y285887D01*
X675855Y285739D01*
X675874Y285563D01*
X675883Y285369D01*
X675892Y285147D01*
Y282706D01*
X669494D01*
Y285221D01*
X669504Y285286D01*
Y285360D01*
X669522Y285526D01*
X669541Y285711D01*
X669578Y285905D01*
X669624Y286099D01*
X669689Y286275D01*
Y286284D01*
X669698Y286293D01*
X669726Y286349D01*
X669772Y286432D01*
X669837Y286525D01*
X669920Y286635D01*
X670022Y286756D01*
X670151Y286867D01*
X670290Y286968D01*
X670308Y286978D01*
X670364Y287005D01*
X670437Y287052D01*
X670548Y287098D01*
X670678Y287144D01*
X670817Y287190D01*
X670974Y287218D01*
X671131Y287227D01*
X671150D01*
X671196D01*
X671279Y287218D01*
X671381Y287199D01*
X671501Y287172D01*
X671630Y287125D01*
X671760Y287070D01*
X671898Y286996D01*
X671917Y286987D01*
X671954Y286959D01*
X672028Y286904D01*
X672102Y286830D01*
X672194Y286737D01*
X672296Y286626D01*
X672388Y286488D01*
X672481Y286330D01*
Y286340D01*
X672490Y286358D01*
X672499Y286386D01*
X672518Y286423D01*
X672555Y286534D01*
X672619Y286663D01*
X672703Y286802D01*
X672804Y286959D01*
X672925Y287098D01*
X673073Y287227D01*
X673091Y287236D01*
X673147Y287273D01*
X673230Y287329D01*
X673341Y287384D01*
X673489Y287440D01*
X673646Y287495D01*
X673831Y287532D01*
X674034Y287542D01*
X674043D01*
X674053D01*
X674108D01*
X674201Y287532D01*
D02*
G37*
G36*
X673877Y281680D02*
X673951Y281671D01*
X674034Y281661D01*
X674136Y281643D01*
X674238Y281624D01*
X674478Y281569D01*
X674727Y281476D01*
X674857Y281421D01*
X674977Y281347D01*
X675107Y281273D01*
X675227Y281180D01*
X675236Y281171D01*
X675264Y281153D01*
X675301Y281116D01*
X675347Y281070D01*
X675402Y281005D01*
X675476Y280931D01*
X675541Y280839D01*
X675615Y280737D01*
X675689Y280626D01*
X675754Y280496D01*
X675818Y280358D01*
X675883Y280210D01*
X675929Y280053D01*
X675966Y279877D01*
X675994Y279692D01*
X676003Y279498D01*
Y279415D01*
X675994Y279350D01*
X675985Y279276D01*
X675976Y279193D01*
X675966Y279091D01*
X675939Y278989D01*
X675883Y278758D01*
X675800Y278527D01*
X675744Y278407D01*
X675680Y278287D01*
X675606Y278176D01*
X675523Y278065D01*
X675513Y278055D01*
X675504Y278037D01*
X675467Y278018D01*
X675430Y277982D01*
X675384Y277935D01*
X675329Y277889D01*
X675255Y277834D01*
X675171Y277787D01*
X675088Y277732D01*
X674986Y277677D01*
X674764Y277575D01*
X674506Y277491D01*
X674367Y277464D01*
X674219Y277445D01*
X674154Y278268D01*
X674164D01*
X674182D01*
X674210Y278277D01*
X674256Y278287D01*
X674358Y278314D01*
X674496Y278351D01*
X674635Y278407D01*
X674792Y278481D01*
X674931Y278573D01*
X675060Y278684D01*
X675070Y278703D01*
X675107Y278740D01*
X675153Y278814D01*
X675208Y278915D01*
X675264Y279026D01*
X675310Y279165D01*
X675347Y279322D01*
X675356Y279498D01*
Y279553D01*
X675347Y279590D01*
X675338Y279701D01*
X675301Y279831D01*
X675255Y279988D01*
X675181Y280145D01*
X675070Y280312D01*
X675005Y280385D01*
X674931Y280459D01*
X674922Y280469D01*
X674912Y280478D01*
X674885Y280496D01*
X674857Y280524D01*
X674755Y280589D01*
X674626Y280663D01*
X674469Y280728D01*
X674275Y280792D01*
X674043Y280839D01*
X673923Y280857D01*
X673794D01*
X673784D01*
X673766D01*
X673729D01*
X673683Y280848D01*
X673627D01*
X673563Y280839D01*
X673415Y280811D01*
X673239Y280765D01*
X673063Y280700D01*
X672897Y280607D01*
X672740Y280478D01*
X672730D01*
X672721Y280459D01*
X672675Y280413D01*
X672610Y280330D01*
X672536Y280219D01*
X672472Y280071D01*
X672407Y279905D01*
X672361Y279711D01*
X672342Y279599D01*
Y279424D01*
X672351Y279350D01*
X672361Y279258D01*
X672388Y279146D01*
X672416Y279036D01*
X672462Y278915D01*
X672518Y278795D01*
X672527Y278786D01*
X672545Y278749D01*
X672592Y278694D01*
X672638Y278619D01*
X672703Y278545D01*
X672786Y278472D01*
X672869Y278388D01*
X672971Y278324D01*
X672869Y277584D01*
X669578Y278204D01*
Y281384D01*
X670327D01*
Y278823D01*
X672056Y278481D01*
X672046Y278490D01*
X672037Y278509D01*
X672019Y278536D01*
X671991Y278582D01*
X671963Y278638D01*
X671926Y278703D01*
X671852Y278851D01*
X671778Y279036D01*
X671713Y279239D01*
X671667Y279461D01*
X671649Y279572D01*
Y279775D01*
X671658Y279831D01*
X671667Y279905D01*
X671676Y279988D01*
X671695Y280080D01*
X671723Y280182D01*
X671787Y280404D01*
X671834Y280524D01*
X671898Y280644D01*
X671963Y280765D01*
X672037Y280885D01*
X672130Y280996D01*
X672231Y281107D01*
X672240Y281116D01*
X672259Y281134D01*
X672287Y281162D01*
X672333Y281199D01*
X672398Y281245D01*
X672462Y281292D01*
X672545Y281347D01*
X672638Y281402D01*
X672740Y281449D01*
X672851Y281504D01*
X672980Y281550D01*
X673110Y281597D01*
X673248Y281634D01*
X673405Y281661D01*
X673563Y281680D01*
X673729Y281689D01*
X673738D01*
X673766D01*
X673812D01*
X673877Y281680D01*
D02*
G37*
G36*
X673433Y276345D02*
X673526D01*
X673636Y276336D01*
X673747Y276327D01*
X673997Y276299D01*
X674256Y276262D01*
X674506Y276206D01*
X674626Y276169D01*
X674737Y276132D01*
X674746D01*
X674764Y276123D01*
X674792Y276105D01*
X674829Y276086D01*
X674931Y276031D01*
X675060Y275947D01*
X675208Y275837D01*
X675356Y275707D01*
X675513Y275541D01*
X675652Y275337D01*
Y275328D01*
X675671Y275310D01*
X675680Y275282D01*
X675707Y275236D01*
X675735Y275180D01*
X675763Y275106D01*
X675791Y275032D01*
X675828Y274940D01*
X675865Y274838D01*
X675892Y274727D01*
X675920Y274607D01*
X675948Y274468D01*
X675966Y274330D01*
X675985Y274182D01*
X676003Y273849D01*
Y273766D01*
X675994Y273701D01*
Y273627D01*
X675985Y273534D01*
X675976Y273433D01*
X675966Y273331D01*
X675929Y273100D01*
X675874Y272850D01*
X675800Y272610D01*
X675698Y272379D01*
Y272369D01*
X675680Y272351D01*
X675661Y272323D01*
X675643Y272286D01*
X675569Y272185D01*
X675467Y272064D01*
X675338Y271926D01*
X675190Y271796D01*
X675005Y271667D01*
X674801Y271565D01*
X674792D01*
X674774Y271556D01*
X674737Y271547D01*
X674690Y271528D01*
X674635Y271510D01*
X674561Y271491D01*
X674478Y271463D01*
X674376Y271445D01*
X674265Y271426D01*
X674145Y271399D01*
X674016Y271380D01*
X673877Y271362D01*
X673720Y271343D01*
X673553Y271334D01*
X673378Y271325D01*
X673193D01*
X669494D01*
Y272175D01*
X673193D01*
X673202D01*
X673230D01*
X673276D01*
X673331D01*
X673396Y272185D01*
X673479D01*
X673655Y272194D01*
X673858Y272212D01*
X674062Y272240D01*
X674256Y272277D01*
X674339Y272295D01*
X674422Y272323D01*
X674441Y272332D01*
X674487Y272351D01*
X674552Y272397D01*
X674644Y272453D01*
X674737Y272517D01*
X674838Y272610D01*
X674940Y272721D01*
X675023Y272850D01*
X675033Y272869D01*
X675060Y272915D01*
X675088Y272998D01*
X675125Y273109D01*
X675171Y273239D01*
X675199Y273405D01*
X675227Y273581D01*
X675236Y273775D01*
Y273867D01*
X675227Y273923D01*
Y274006D01*
X675218Y274089D01*
X675181Y274293D01*
X675134Y274515D01*
X675060Y274727D01*
X674959Y274930D01*
X674894Y275023D01*
X674820Y275106D01*
X674811Y275115D01*
X674801Y275125D01*
X674774Y275143D01*
X674737Y275171D01*
X674681Y275199D01*
X674626Y275236D01*
X674543Y275273D01*
X674459Y275310D01*
X674358Y275347D01*
X674238Y275374D01*
X674099Y275411D01*
X673951Y275439D01*
X673784Y275467D01*
X673609Y275485D01*
X673405Y275504D01*
X673193D01*
X669494D01*
Y276354D01*
X673193D01*
X673202D01*
X673239D01*
X673285D01*
X673350D01*
X673433Y276345D01*
D02*
G37*
G36*
X553441Y880244D02*
X551499Y879495D01*
Y876814D01*
X553441Y876120D01*
Y875223D01*
X547043Y877664D01*
Y878589D01*
X553441Y881205D01*
Y880244D01*
D02*
G37*
G36*
X551425Y874863D02*
X551499Y874854D01*
X551583Y874844D01*
X551684Y874826D01*
X551786Y874807D01*
X552026Y874752D01*
X552276Y874659D01*
X552405Y874604D01*
X552526Y874530D01*
X552655Y874456D01*
X552775Y874363D01*
X552785Y874354D01*
X552812Y874336D01*
X552849Y874299D01*
X552896Y874252D01*
X552951Y874188D01*
X553025Y874114D01*
X553090Y874021D01*
X553164Y873920D01*
X553238Y873809D01*
X553302Y873679D01*
X553367Y873541D01*
X553432Y873393D01*
X553478Y873235D01*
X553515Y873060D01*
X553543Y872875D01*
X553552Y872681D01*
Y872598D01*
X553543Y872533D01*
X553533Y872459D01*
X553524Y872376D01*
X553515Y872274D01*
X553487Y872172D01*
X553432Y871941D01*
X553349Y871710D01*
X553293Y871590D01*
X553228Y871470D01*
X553154Y871359D01*
X553071Y871248D01*
X553062Y871238D01*
X553053Y871220D01*
X553016Y871201D01*
X552979Y871164D01*
X552932Y871118D01*
X552877Y871072D01*
X552803Y871017D01*
X552720Y870970D01*
X552637Y870915D01*
X552535Y870859D01*
X552313Y870758D01*
X552054Y870675D01*
X551915Y870647D01*
X551768Y870628D01*
X551703Y871451D01*
X551712D01*
X551730D01*
X551758Y871460D01*
X551805Y871470D01*
X551906Y871497D01*
X552045Y871534D01*
X552184Y871590D01*
X552341Y871664D01*
X552479Y871756D01*
X552609Y871867D01*
X552618Y871886D01*
X552655Y871923D01*
X552701Y871997D01*
X552757Y872098D01*
X552812Y872209D01*
X552859Y872348D01*
X552896Y872505D01*
X552905Y872681D01*
Y872736D01*
X552896Y872773D01*
X552886Y872884D01*
X552849Y873014D01*
X552803Y873171D01*
X552729Y873328D01*
X552618Y873494D01*
X552553Y873568D01*
X552479Y873642D01*
X552470Y873652D01*
X552461Y873661D01*
X552433Y873679D01*
X552405Y873707D01*
X552304Y873772D01*
X552174Y873846D01*
X552017Y873910D01*
X551823Y873975D01*
X551592Y874021D01*
X551472Y874040D01*
X551342D01*
X551333D01*
X551315D01*
X551278D01*
X551231Y874031D01*
X551176D01*
X551111Y874021D01*
X550963Y873994D01*
X550788Y873947D01*
X550612Y873883D01*
X550445Y873790D01*
X550288Y873661D01*
X550279D01*
X550270Y873642D01*
X550224Y873596D01*
X550159Y873513D01*
X550085Y873402D01*
X550020Y873254D01*
X549955Y873088D01*
X549909Y872893D01*
X549891Y872783D01*
Y872607D01*
X549900Y872533D01*
X549909Y872440D01*
X549937Y872329D01*
X549965Y872218D01*
X550011Y872098D01*
X550066Y871978D01*
X550076Y871969D01*
X550094Y871932D01*
X550140Y871876D01*
X550187Y871802D01*
X550251Y871729D01*
X550334Y871655D01*
X550418Y871571D01*
X550519Y871507D01*
X550418Y870767D01*
X547126Y871386D01*
Y874567D01*
X547875D01*
Y872006D01*
X549604Y871664D01*
X549595Y871673D01*
X549585Y871692D01*
X549567Y871719D01*
X549539Y871766D01*
X549512Y871821D01*
X549475Y871886D01*
X549401Y872034D01*
X549327Y872218D01*
X549262Y872422D01*
X549216Y872644D01*
X549197Y872755D01*
Y872958D01*
X549207Y873014D01*
X549216Y873088D01*
X549225Y873171D01*
X549244Y873263D01*
X549271Y873365D01*
X549336Y873587D01*
X549382Y873707D01*
X549447Y873827D01*
X549512Y873947D01*
X549585Y874068D01*
X549678Y874179D01*
X549780Y874289D01*
X549789Y874299D01*
X549807Y874317D01*
X549835Y874345D01*
X549881Y874382D01*
X549946Y874428D01*
X550011Y874474D01*
X550094Y874530D01*
X550187Y874585D01*
X550288Y874632D01*
X550399Y874687D01*
X550529Y874733D01*
X550658Y874780D01*
X550797Y874817D01*
X550954Y874844D01*
X551111Y874863D01*
X551278Y874872D01*
X551287D01*
X551315D01*
X551361D01*
X551425Y874863D01*
D02*
G37*
G36*
X550982Y869528D02*
X551074D01*
X551185Y869519D01*
X551296Y869510D01*
X551546Y869482D01*
X551805Y869445D01*
X552054Y869389D01*
X552174Y869352D01*
X552285Y869315D01*
X552295D01*
X552313Y869306D01*
X552341Y869288D01*
X552378Y869269D01*
X552479Y869214D01*
X552609Y869130D01*
X552757Y869019D01*
X552905Y868890D01*
X553062Y868724D01*
X553201Y868520D01*
Y868511D01*
X553219Y868493D01*
X553228Y868465D01*
X553256Y868419D01*
X553284Y868363D01*
X553312Y868289D01*
X553339Y868215D01*
X553376Y868123D01*
X553413Y868021D01*
X553441Y867910D01*
X553469Y867790D01*
X553496Y867651D01*
X553515Y867513D01*
X553533Y867365D01*
X553552Y867032D01*
Y866948D01*
X553543Y866884D01*
Y866810D01*
X553533Y866717D01*
X553524Y866616D01*
X553515Y866514D01*
X553478Y866283D01*
X553423Y866033D01*
X553349Y865793D01*
X553247Y865562D01*
Y865552D01*
X553228Y865534D01*
X553210Y865506D01*
X553191Y865469D01*
X553117Y865368D01*
X553016Y865247D01*
X552886Y865109D01*
X552738Y864979D01*
X552553Y864850D01*
X552350Y864748D01*
X552341D01*
X552322Y864739D01*
X552285Y864730D01*
X552239Y864711D01*
X552184Y864693D01*
X552110Y864674D01*
X552026Y864646D01*
X551925Y864628D01*
X551814Y864609D01*
X551693Y864582D01*
X551564Y864563D01*
X551425Y864545D01*
X551268Y864526D01*
X551102Y864517D01*
X550926Y864508D01*
X550741D01*
X547043D01*
Y865358D01*
X550741D01*
X550751D01*
X550778D01*
X550825D01*
X550880D01*
X550945Y865368D01*
X551028D01*
X551203Y865377D01*
X551407Y865395D01*
X551610Y865423D01*
X551805Y865460D01*
X551888Y865479D01*
X551971Y865506D01*
X551989Y865515D01*
X552036Y865534D01*
X552100Y865580D01*
X552193Y865636D01*
X552285Y865700D01*
X552387Y865793D01*
X552489Y865904D01*
X552572Y866033D01*
X552581Y866052D01*
X552609Y866098D01*
X552637Y866181D01*
X552674Y866292D01*
X552720Y866422D01*
X552747Y866588D01*
X552775Y866764D01*
X552785Y866958D01*
Y867050D01*
X552775Y867106D01*
Y867189D01*
X552766Y867272D01*
X552729Y867476D01*
X552683Y867697D01*
X552609Y867910D01*
X552507Y868113D01*
X552442Y868206D01*
X552369Y868289D01*
X552359Y868298D01*
X552350Y868308D01*
X552322Y868326D01*
X552285Y868354D01*
X552230Y868382D01*
X552174Y868419D01*
X552091Y868456D01*
X552008Y868493D01*
X551906Y868530D01*
X551786Y868557D01*
X551647Y868594D01*
X551499Y868622D01*
X551333Y868650D01*
X551157Y868668D01*
X550954Y868687D01*
X550741D01*
X547043D01*
Y869537D01*
X550741D01*
X550751D01*
X550788D01*
X550834D01*
X550898D01*
X550982Y869528D01*
D02*
G37*
G36*
X136145Y288143D02*
X136201Y288124D01*
X136275Y288096D01*
X136358Y288069D01*
X136460Y288032D01*
X136571Y287985D01*
X136691Y287930D01*
X136950Y287800D01*
X137209Y287634D01*
X137338Y287532D01*
X137468Y287431D01*
X137579Y287320D01*
X137690Y287190D01*
X137699Y287181D01*
X137717Y287162D01*
X137736Y287116D01*
X137773Y287070D01*
X137819Y286996D01*
X137865Y286922D01*
X137912Y286820D01*
X137958Y286719D01*
X138013Y286598D01*
X138059Y286469D01*
X138106Y286330D01*
X138152Y286182D01*
X138189Y286025D01*
X138207Y285859D01*
X138226Y285683D01*
X138235Y285498D01*
Y285396D01*
X138226Y285323D01*
Y285239D01*
X138217Y285138D01*
X138198Y285027D01*
X138180Y284897D01*
X138133Y284629D01*
X138059Y284352D01*
X137958Y284074D01*
X137893Y283945D01*
X137819Y283815D01*
X137810Y283806D01*
X137801Y283788D01*
X137773Y283751D01*
X137736Y283714D01*
X137699Y283658D01*
X137643Y283594D01*
X137579Y283520D01*
X137505Y283446D01*
X137421Y283372D01*
X137338Y283288D01*
X137126Y283122D01*
X136876Y282965D01*
X136599Y282826D01*
X136589D01*
X136562Y282808D01*
X136515Y282799D01*
X136460Y282771D01*
X136386Y282752D01*
X136293Y282725D01*
X136192Y282688D01*
X136081Y282660D01*
X135961Y282632D01*
X135822Y282595D01*
X135535Y282549D01*
X135212Y282512D01*
X134879Y282493D01*
X134870D01*
X134833D01*
X134777D01*
X134712Y282503D01*
X134620D01*
X134528Y282512D01*
X134407Y282521D01*
X134287Y282540D01*
X134019Y282586D01*
X133723Y282651D01*
X133427Y282743D01*
X133141Y282873D01*
X133132Y282882D01*
X133104Y282891D01*
X133067Y282910D01*
X133020Y282946D01*
X132956Y282983D01*
X132882Y283030D01*
X132715Y283150D01*
X132530Y283307D01*
X132346Y283492D01*
X132161Y283705D01*
X132003Y283954D01*
X131994Y283964D01*
X131985Y283991D01*
X131966Y284028D01*
X131939Y284074D01*
X131911Y284148D01*
X131883Y284222D01*
X131846Y284315D01*
X131809Y284417D01*
X131772Y284527D01*
X131735Y284648D01*
X131680Y284907D01*
X131634Y285202D01*
X131615Y285508D01*
Y285600D01*
X131624Y285665D01*
X131634Y285748D01*
X131643Y285850D01*
X131652Y285951D01*
X131680Y286071D01*
X131735Y286321D01*
X131819Y286598D01*
X131874Y286737D01*
X131939Y286867D01*
X132022Y286996D01*
X132105Y287125D01*
X132114Y287135D01*
X132124Y287153D01*
X132151Y287190D01*
X132198Y287236D01*
X132244Y287283D01*
X132309Y287347D01*
X132383Y287412D01*
X132457Y287486D01*
X132549Y287560D01*
X132660Y287634D01*
X132771Y287717D01*
X132891Y287791D01*
X133030Y287856D01*
X133168Y287930D01*
X133316Y287985D01*
X133483Y288041D01*
X133677Y287209D01*
X133668D01*
X133649Y287199D01*
X133612Y287181D01*
X133566Y287162D01*
X133511Y287144D01*
X133437Y287116D01*
X133289Y287042D01*
X133122Y286950D01*
X132956Y286839D01*
X132799Y286700D01*
X132660Y286552D01*
X132641Y286534D01*
X132605Y286478D01*
X132558Y286386D01*
X132493Y286266D01*
X132438Y286108D01*
X132383Y285933D01*
X132346Y285720D01*
X132336Y285489D01*
Y285415D01*
X132346Y285369D01*
Y285304D01*
X132355Y285230D01*
X132383Y285054D01*
X132420Y284860D01*
X132484Y284657D01*
X132577Y284444D01*
X132697Y284250D01*
Y284241D01*
X132715Y284232D01*
X132762Y284167D01*
X132836Y284084D01*
X132947Y283982D01*
X133085Y283862D01*
X133242Y283751D01*
X133437Y283649D01*
X133649Y283557D01*
X133659D01*
X133677Y283547D01*
X133705Y283538D01*
X133751Y283529D01*
X133806Y283510D01*
X133871Y283492D01*
X134028Y283464D01*
X134213Y283427D01*
X134417Y283390D01*
X134639Y283372D01*
X134879Y283363D01*
X134888D01*
X134916D01*
X134962D01*
X135018D01*
X135082Y283372D01*
X135166D01*
X135258Y283381D01*
X135360Y283390D01*
X135582Y283418D01*
X135822Y283464D01*
X136062Y283520D01*
X136303Y283594D01*
X136312D01*
X136330Y283603D01*
X136358Y283621D01*
X136404Y283640D01*
X136515Y283695D01*
X136645Y283779D01*
X136793Y283880D01*
X136950Y284010D01*
X137089Y284158D01*
X137218Y284333D01*
Y284342D01*
X137227Y284361D01*
X137246Y284389D01*
X137264Y284426D01*
X137283Y284472D01*
X137310Y284527D01*
X137366Y284657D01*
X137421Y284823D01*
X137468Y285008D01*
X137505Y285212D01*
X137514Y285424D01*
Y285489D01*
X137505Y285544D01*
Y285609D01*
X137495Y285674D01*
X137458Y285840D01*
X137412Y286035D01*
X137338Y286229D01*
X137236Y286432D01*
X137181Y286534D01*
X137107Y286626D01*
X137098Y286635D01*
X137089Y286645D01*
X137061Y286672D01*
X137033Y286709D01*
X136987Y286746D01*
X136931Y286793D01*
X136876Y286848D01*
X136802Y286894D01*
X136719Y286950D01*
X136626Y287015D01*
X136534Y287070D01*
X136423Y287125D01*
X136303Y287172D01*
X136173Y287218D01*
X136035Y287264D01*
X135887Y287301D01*
X136099Y288152D01*
X136109D01*
X136145Y288143D01*
D02*
G37*
G36*
X136589Y280746D02*
X138124D01*
Y279960D01*
X136589D01*
Y277177D01*
X135868D01*
X131726Y280108D01*
Y280746D01*
X135868D01*
Y281615D01*
X136589D01*
Y280746D01*
D02*
G37*
G36*
X135665Y276345D02*
X135757D01*
X135868Y276336D01*
X135979Y276327D01*
X136229Y276299D01*
X136488Y276262D01*
X136737Y276206D01*
X136858Y276169D01*
X136968Y276132D01*
X136978D01*
X136996Y276123D01*
X137024Y276105D01*
X137061Y276086D01*
X137163Y276031D01*
X137292Y275947D01*
X137440Y275837D01*
X137588Y275707D01*
X137745Y275541D01*
X137884Y275337D01*
Y275328D01*
X137902Y275310D01*
X137912Y275282D01*
X137939Y275236D01*
X137967Y275180D01*
X137995Y275106D01*
X138022Y275032D01*
X138059Y274940D01*
X138096Y274838D01*
X138124Y274727D01*
X138152Y274607D01*
X138180Y274468D01*
X138198Y274330D01*
X138217Y274182D01*
X138235Y273849D01*
Y273766D01*
X138226Y273701D01*
Y273627D01*
X138217Y273534D01*
X138207Y273433D01*
X138198Y273331D01*
X138161Y273100D01*
X138106Y272850D01*
X138032Y272610D01*
X137930Y272379D01*
Y272369D01*
X137912Y272351D01*
X137893Y272323D01*
X137874Y272286D01*
X137801Y272185D01*
X137699Y272064D01*
X137569Y271926D01*
X137421Y271796D01*
X137236Y271667D01*
X137033Y271565D01*
X137024D01*
X137005Y271556D01*
X136968Y271547D01*
X136922Y271528D01*
X136867Y271510D01*
X136793Y271491D01*
X136709Y271463D01*
X136608Y271445D01*
X136497Y271426D01*
X136377Y271399D01*
X136247Y271380D01*
X136109Y271362D01*
X135951Y271343D01*
X135785Y271334D01*
X135609Y271325D01*
X135424D01*
X131726D01*
Y272175D01*
X135424D01*
X135434D01*
X135461D01*
X135508D01*
X135563D01*
X135628Y272185D01*
X135711D01*
X135887Y272194D01*
X136090Y272212D01*
X136293Y272240D01*
X136488Y272277D01*
X136571Y272295D01*
X136654Y272323D01*
X136672Y272332D01*
X136719Y272351D01*
X136784Y272397D01*
X136876Y272453D01*
X136968Y272517D01*
X137070Y272610D01*
X137172Y272721D01*
X137255Y272850D01*
X137264Y272869D01*
X137292Y272915D01*
X137320Y272998D01*
X137357Y273109D01*
X137403Y273239D01*
X137431Y273405D01*
X137458Y273581D01*
X137468Y273775D01*
Y273867D01*
X137458Y273923D01*
Y274006D01*
X137449Y274089D01*
X137412Y274293D01*
X137366Y274515D01*
X137292Y274727D01*
X137190Y274930D01*
X137126Y275023D01*
X137052Y275106D01*
X137042Y275115D01*
X137033Y275125D01*
X137005Y275143D01*
X136968Y275171D01*
X136913Y275199D01*
X136858Y275236D01*
X136774Y275273D01*
X136691Y275310D01*
X136589Y275347D01*
X136469Y275374D01*
X136330Y275411D01*
X136182Y275439D01*
X136016Y275467D01*
X135840Y275485D01*
X135637Y275504D01*
X135424D01*
X131726D01*
Y276354D01*
X135424D01*
X135434D01*
X135471D01*
X135517D01*
X135582D01*
X135665Y276345D01*
D02*
G37*
G36*
X406942Y287532D02*
X407053Y287514D01*
X407183Y287495D01*
X407321Y287458D01*
X407469Y287412D01*
X407617Y287347D01*
X407636Y287338D01*
X407682Y287310D01*
X407747Y287273D01*
X407839Y287218D01*
X407931Y287144D01*
X408033Y287070D01*
X408135Y286978D01*
X408218Y286876D01*
X408227Y286867D01*
X408255Y286830D01*
X408292Y286765D01*
X408329Y286682D01*
X408385Y286580D01*
X408440Y286460D01*
X408486Y286330D01*
X408532Y286173D01*
Y286155D01*
X408551Y286099D01*
X408560Y286007D01*
X408579Y285887D01*
X408597Y285739D01*
X408616Y285563D01*
X408625Y285369D01*
X408634Y285147D01*
Y282706D01*
X402236D01*
Y285221D01*
X402245Y285286D01*
Y285360D01*
X402264Y285526D01*
X402282Y285711D01*
X402319Y285905D01*
X402366Y286099D01*
X402430Y286275D01*
Y286284D01*
X402440Y286293D01*
X402467Y286349D01*
X402514Y286432D01*
X402578Y286525D01*
X402662Y286635D01*
X402763Y286756D01*
X402893Y286867D01*
X403031Y286968D01*
X403050Y286978D01*
X403105Y287005D01*
X403179Y287052D01*
X403290Y287098D01*
X403420Y287144D01*
X403558Y287190D01*
X403715Y287218D01*
X403873Y287227D01*
X403891D01*
X403937D01*
X404021Y287218D01*
X404122Y287199D01*
X404242Y287172D01*
X404372Y287125D01*
X404501Y287070D01*
X404640Y286996D01*
X404659Y286987D01*
X404696Y286959D01*
X404769Y286904D01*
X404843Y286830D01*
X404936Y286737D01*
X405038Y286626D01*
X405130Y286488D01*
X405223Y286330D01*
Y286340D01*
X405232Y286358D01*
X405241Y286386D01*
X405260Y286423D01*
X405296Y286534D01*
X405361Y286663D01*
X405444Y286802D01*
X405546Y286959D01*
X405666Y287098D01*
X405814Y287227D01*
X405833Y287236D01*
X405888Y287273D01*
X405971Y287329D01*
X406082Y287384D01*
X406230Y287440D01*
X406387Y287495D01*
X406572Y287532D01*
X406776Y287542D01*
X406785D01*
X406794D01*
X406850D01*
X406942Y287532D01*
D02*
G37*
G36*
X407099Y280746D02*
X408634D01*
Y279960D01*
X407099D01*
Y277177D01*
X406378D01*
X402236Y280108D01*
Y280746D01*
X406378D01*
Y281615D01*
X407099D01*
Y280746D01*
D02*
G37*
G36*
X406175Y276345D02*
X406267D01*
X406378Y276336D01*
X406489Y276327D01*
X406739Y276299D01*
X406998Y276262D01*
X407247Y276206D01*
X407368Y276169D01*
X407478Y276132D01*
X407488D01*
X407506Y276123D01*
X407534Y276105D01*
X407571Y276086D01*
X407673Y276031D01*
X407802Y275947D01*
X407950Y275837D01*
X408098Y275707D01*
X408255Y275541D01*
X408394Y275337D01*
Y275328D01*
X408412Y275310D01*
X408422Y275282D01*
X408449Y275236D01*
X408477Y275180D01*
X408505Y275106D01*
X408532Y275032D01*
X408569Y274940D01*
X408606Y274838D01*
X408634Y274727D01*
X408662Y274607D01*
X408690Y274468D01*
X408708Y274330D01*
X408727Y274182D01*
X408745Y273849D01*
Y273766D01*
X408736Y273701D01*
Y273627D01*
X408727Y273534D01*
X408717Y273433D01*
X408708Y273331D01*
X408671Y273100D01*
X408616Y272850D01*
X408542Y272610D01*
X408440Y272379D01*
Y272369D01*
X408422Y272351D01*
X408403Y272323D01*
X408385Y272286D01*
X408311Y272185D01*
X408209Y272064D01*
X408079Y271926D01*
X407931Y271796D01*
X407747Y271667D01*
X407543Y271565D01*
X407534D01*
X407515Y271556D01*
X407478Y271547D01*
X407432Y271528D01*
X407377Y271510D01*
X407303Y271491D01*
X407220Y271463D01*
X407118Y271445D01*
X407007Y271426D01*
X406887Y271399D01*
X406757Y271380D01*
X406619Y271362D01*
X406461Y271343D01*
X406295Y271334D01*
X406119Y271325D01*
X405934D01*
X402236D01*
Y272175D01*
X405934D01*
X405944D01*
X405971D01*
X406018D01*
X406073D01*
X406138Y272185D01*
X406221D01*
X406397Y272194D01*
X406600Y272212D01*
X406804Y272240D01*
X406998Y272277D01*
X407081Y272295D01*
X407164Y272323D01*
X407183Y272332D01*
X407229Y272351D01*
X407294Y272397D01*
X407386Y272453D01*
X407478Y272517D01*
X407580Y272610D01*
X407682Y272721D01*
X407765Y272850D01*
X407774Y272869D01*
X407802Y272915D01*
X407830Y272998D01*
X407867Y273109D01*
X407913Y273239D01*
X407941Y273405D01*
X407968Y273581D01*
X407978Y273775D01*
Y273867D01*
X407968Y273923D01*
Y274006D01*
X407959Y274089D01*
X407922Y274293D01*
X407876Y274515D01*
X407802Y274727D01*
X407700Y274930D01*
X407636Y275023D01*
X407562Y275106D01*
X407552Y275115D01*
X407543Y275125D01*
X407515Y275143D01*
X407478Y275171D01*
X407423Y275199D01*
X407368Y275236D01*
X407284Y275273D01*
X407201Y275310D01*
X407099Y275347D01*
X406979Y275374D01*
X406841Y275411D01*
X406693Y275439D01*
X406526Y275467D01*
X406350Y275485D01*
X406147Y275504D01*
X405934D01*
X402236D01*
Y276354D01*
X405934D01*
X405944D01*
X405981D01*
X406027D01*
X406092D01*
X406175Y276345D01*
D02*
G37*
G36*
X538942Y288022D02*
X539016D01*
X539192Y288013D01*
X539395Y287985D01*
X539608Y287958D01*
X539830Y287911D01*
X540052Y287856D01*
X540061D01*
X540079Y287847D01*
X540107Y287837D01*
X540144Y287828D01*
X540246Y287791D01*
X540375Y287736D01*
X540523Y287680D01*
X540671Y287606D01*
X540828Y287514D01*
X540976Y287421D01*
X540995Y287412D01*
X541041Y287375D01*
X541106Y287320D01*
X541189Y287246D01*
X541281Y287162D01*
X541374Y287061D01*
X541476Y286959D01*
X541559Y286839D01*
X541568Y286820D01*
X541596Y286783D01*
X541633Y286719D01*
X541679Y286626D01*
X541735Y286515D01*
X541781Y286386D01*
X541836Y286238D01*
X541882Y286071D01*
Y286053D01*
X541892Y286025D01*
X541901Y285998D01*
X541910Y285905D01*
X541929Y285776D01*
X541947Y285628D01*
X541966Y285452D01*
X541975Y285258D01*
X541984Y285045D01*
Y282743D01*
X535586D01*
Y285202D01*
X535595Y285369D01*
X535605Y285554D01*
X535623Y285739D01*
X535651Y285924D01*
X535679Y286081D01*
Y286090D01*
X535688Y286108D01*
Y286136D01*
X535706Y286173D01*
X535734Y286275D01*
X535780Y286404D01*
X535845Y286552D01*
X535928Y286709D01*
X536021Y286867D01*
X536141Y287015D01*
X536150Y287024D01*
X536159Y287033D01*
X536187Y287061D01*
X536215Y287098D01*
X536307Y287190D01*
X536437Y287301D01*
X536594Y287421D01*
X536779Y287551D01*
X536992Y287671D01*
X537232Y287773D01*
X537241D01*
X537260Y287782D01*
X537297Y287800D01*
X537352Y287810D01*
X537417Y287837D01*
X537491Y287856D01*
X537574Y287874D01*
X537676Y287902D01*
X537777Y287930D01*
X537898Y287948D01*
X538156Y287994D01*
X538443Y288022D01*
X538757Y288032D01*
X538767D01*
X538785D01*
X538831D01*
X538878D01*
X538942Y288022D01*
D02*
G37*
G36*
X540449Y280746D02*
X541984D01*
Y279960D01*
X540449D01*
Y277177D01*
X539728D01*
X535586Y280108D01*
Y280746D01*
X539728D01*
Y281615D01*
X540449D01*
Y280746D01*
D02*
G37*
G36*
X539525Y276345D02*
X539617D01*
X539728Y276336D01*
X539839Y276327D01*
X540089Y276299D01*
X540348Y276262D01*
X540597Y276206D01*
X540718Y276169D01*
X540828Y276132D01*
X540838D01*
X540856Y276123D01*
X540884Y276105D01*
X540921Y276086D01*
X541023Y276031D01*
X541152Y275947D01*
X541300Y275837D01*
X541448Y275707D01*
X541605Y275541D01*
X541744Y275337D01*
Y275328D01*
X541762Y275310D01*
X541772Y275282D01*
X541799Y275236D01*
X541827Y275180D01*
X541855Y275106D01*
X541882Y275032D01*
X541919Y274940D01*
X541956Y274838D01*
X541984Y274727D01*
X542012Y274607D01*
X542040Y274468D01*
X542058Y274330D01*
X542077Y274182D01*
X542095Y273849D01*
Y273766D01*
X542086Y273701D01*
Y273627D01*
X542077Y273534D01*
X542067Y273433D01*
X542058Y273331D01*
X542021Y273100D01*
X541966Y272850D01*
X541892Y272610D01*
X541790Y272379D01*
Y272369D01*
X541772Y272351D01*
X541753Y272323D01*
X541735Y272286D01*
X541660Y272185D01*
X541559Y272064D01*
X541429Y271926D01*
X541281Y271796D01*
X541096Y271667D01*
X540893Y271565D01*
X540884D01*
X540865Y271556D01*
X540828Y271547D01*
X540782Y271528D01*
X540727Y271510D01*
X540653Y271491D01*
X540569Y271463D01*
X540468Y271445D01*
X540357Y271426D01*
X540237Y271399D01*
X540107Y271380D01*
X539969Y271362D01*
X539811Y271343D01*
X539645Y271334D01*
X539469Y271325D01*
X539284D01*
X535586D01*
Y272175D01*
X539284D01*
X539294D01*
X539321D01*
X539368D01*
X539423D01*
X539488Y272185D01*
X539571D01*
X539747Y272194D01*
X539950Y272212D01*
X540154Y272240D01*
X540348Y272277D01*
X540431Y272295D01*
X540514Y272323D01*
X540532Y272332D01*
X540579Y272351D01*
X540644Y272397D01*
X540736Y272453D01*
X540828Y272517D01*
X540930Y272610D01*
X541032Y272721D01*
X541115Y272850D01*
X541124Y272869D01*
X541152Y272915D01*
X541180Y272998D01*
X541217Y273109D01*
X541263Y273239D01*
X541291Y273405D01*
X541318Y273581D01*
X541328Y273775D01*
Y273867D01*
X541318Y273923D01*
Y274006D01*
X541309Y274089D01*
X541272Y274293D01*
X541226Y274515D01*
X541152Y274727D01*
X541050Y274930D01*
X540986Y275023D01*
X540912Y275106D01*
X540902Y275115D01*
X540893Y275125D01*
X540865Y275143D01*
X540828Y275171D01*
X540773Y275199D01*
X540718Y275236D01*
X540634Y275273D01*
X540551Y275310D01*
X540449Y275347D01*
X540329Y275374D01*
X540191Y275411D01*
X540042Y275439D01*
X539876Y275467D01*
X539700Y275485D01*
X539497Y275504D01*
X539284D01*
X535586D01*
Y276354D01*
X539284D01*
X539294D01*
X539331D01*
X539377D01*
X539442D01*
X539525Y276345D01*
D02*
G37*
%LPC*%
G36*
X267569Y286044D02*
X265812Y285378D01*
X265803D01*
X265776Y285369D01*
X265729Y285350D01*
X265674Y285332D01*
X265609Y285304D01*
X265526Y285276D01*
X265433Y285249D01*
X265341Y285212D01*
X265128Y285138D01*
X264906Y285064D01*
X264685Y284990D01*
X264472Y284925D01*
X264481D01*
X264500Y284916D01*
X264537D01*
X264573Y284897D01*
X264638Y284888D01*
X264703Y284869D01*
X264860Y284833D01*
X265045Y284786D01*
X265249Y284722D01*
X265470Y284657D01*
X265702Y284574D01*
X267569Y283880D01*
Y286044D01*
D02*
G37*
G36*
X267948Y279960D02*
X265082D01*
X267948Y277945D01*
Y279960D01*
D02*
G37*
G36*
X500207Y566150D02*
Y564135D01*
X503073D01*
X500207Y566150D01*
D02*
G37*
G36*
X367097Y566150D02*
Y564135D01*
X369963D01*
X367097Y566150D01*
D02*
G37*
G36*
X239857Y566150D02*
Y564135D01*
X242723D01*
X239857Y566150D01*
D02*
G37*
G36*
X97617D02*
Y564135D01*
X100483D01*
X97617Y566150D01*
D02*
G37*
G36*
X1243894Y150724D02*
X1243885D01*
X1243867D01*
X1243830D01*
X1243783Y150714D01*
X1243728D01*
X1243663Y150705D01*
X1243515Y150677D01*
X1243349Y150640D01*
X1243173Y150576D01*
X1243007Y150483D01*
X1242850Y150363D01*
X1242831Y150344D01*
X1242785Y150298D01*
X1242729Y150224D01*
X1242655Y150123D01*
X1242581Y149993D01*
X1242526Y149845D01*
X1242480Y149670D01*
X1242461Y149475D01*
Y149420D01*
X1242471Y149383D01*
X1242480Y149291D01*
X1242507Y149161D01*
X1242554Y149022D01*
X1242628Y148865D01*
X1242720Y148717D01*
X1242850Y148569D01*
X1242868Y148551D01*
X1242914Y148514D01*
X1242998Y148449D01*
X1243118Y148385D01*
X1243256Y148320D01*
X1243432Y148255D01*
X1243626Y148218D01*
X1243848Y148200D01*
X1243867D01*
X1243913D01*
X1243996Y148209D01*
X1244098Y148218D01*
X1244218Y148237D01*
X1244347Y148273D01*
X1244486Y148310D01*
X1244625Y148366D01*
X1244643Y148375D01*
X1244689Y148403D01*
X1244754Y148440D01*
X1244837Y148495D01*
X1244921Y148560D01*
X1245022Y148643D01*
X1245106Y148736D01*
X1245189Y148847D01*
X1245198Y148865D01*
X1245217Y148902D01*
X1245254Y148967D01*
X1245281Y149050D01*
X1245318Y149143D01*
X1245355Y149254D01*
X1245374Y149374D01*
X1245383Y149503D01*
Y149549D01*
X1245374Y149586D01*
X1245364Y149679D01*
X1245337Y149799D01*
X1245281Y149929D01*
X1245217Y150076D01*
X1245115Y150224D01*
X1245059Y150298D01*
X1244985Y150363D01*
X1244976D01*
X1244967Y150381D01*
X1244911Y150419D01*
X1244819Y150474D01*
X1244699Y150548D01*
X1244542Y150613D01*
X1244357Y150668D01*
X1244144Y150705D01*
X1243894Y150724D01*
D02*
G37*
G36*
X674034Y286672D02*
X674016D01*
X673979D01*
X673905Y286663D01*
X673821Y286645D01*
X673729Y286626D01*
X673627Y286589D01*
X673526Y286543D01*
X673424Y286478D01*
X673415Y286469D01*
X673378Y286441D01*
X673331Y286404D01*
X673276Y286349D01*
X673211Y286275D01*
X673147Y286182D01*
X673091Y286081D01*
X673045Y285961D01*
X673036Y285942D01*
X673026Y285905D01*
X673008Y285822D01*
X672989Y285720D01*
X672971Y285591D01*
X672952Y285434D01*
X672934Y285239D01*
Y283557D01*
X675134D01*
Y285378D01*
X675125Y285572D01*
X675116Y285655D01*
X675107Y285729D01*
Y285739D01*
X675097Y285776D01*
X675088Y285831D01*
X675070Y285896D01*
X675014Y286053D01*
X674940Y286210D01*
X674931Y286219D01*
X674912Y286247D01*
X674885Y286284D01*
X674848Y286330D01*
X674792Y286377D01*
X674737Y286441D01*
X674663Y286488D01*
X674580Y286543D01*
X674570Y286552D01*
X674543Y286562D01*
X674487Y286580D01*
X674422Y286608D01*
X674348Y286635D01*
X674256Y286654D01*
X674145Y286663D01*
X674034Y286672D01*
D02*
G37*
G36*
X671233Y286395D02*
X671214D01*
X671177D01*
X671122Y286386D01*
X671048Y286377D01*
X670955Y286358D01*
X670863Y286330D01*
X670770Y286293D01*
X670678Y286238D01*
X670669Y286229D01*
X670641Y286210D01*
X670595Y286173D01*
X670548Y286127D01*
X670493Y286062D01*
X670437Y285988D01*
X670382Y285896D01*
X670345Y285794D01*
Y285785D01*
X670327Y285739D01*
X670317Y285674D01*
X670299Y285572D01*
X670280Y285434D01*
X670271Y285276D01*
X670253Y285073D01*
Y283557D01*
X672176D01*
Y285128D01*
X672167Y285249D01*
X672157Y285378D01*
X672148Y285508D01*
X672130Y285637D01*
X672111Y285739D01*
X672102Y285757D01*
X672093Y285794D01*
X672065Y285850D01*
X672028Y285924D01*
X671991Y285998D01*
X671935Y286081D01*
X671861Y286164D01*
X671787Y286229D01*
X671778Y286238D01*
X671750Y286256D01*
X671695Y286284D01*
X671630Y286312D01*
X671556Y286340D01*
X671464Y286367D01*
X671353Y286386D01*
X671233Y286395D01*
D02*
G37*
G36*
X550806Y879227D02*
X549049Y878561D01*
X549040D01*
X549012Y878552D01*
X548966Y878533D01*
X548911Y878515D01*
X548846Y878487D01*
X548763Y878459D01*
X548670Y878431D01*
X548578Y878395D01*
X548365Y878321D01*
X548143Y878247D01*
X547921Y878173D01*
X547709Y878108D01*
X547718D01*
X547736Y878099D01*
X547773D01*
X547810Y878080D01*
X547875Y878071D01*
X547940Y878053D01*
X548097Y878016D01*
X548282Y877969D01*
X548485Y877905D01*
X548707Y877840D01*
X548938Y877757D01*
X550806Y877063D01*
Y879227D01*
D02*
G37*
G36*
X135868Y279960D02*
X133002D01*
X135868Y277945D01*
Y279960D01*
D02*
G37*
G36*
X406776Y286672D02*
X406757D01*
X406720D01*
X406646Y286663D01*
X406563Y286645D01*
X406471Y286626D01*
X406369Y286589D01*
X406267Y286543D01*
X406166Y286478D01*
X406156Y286469D01*
X406119Y286441D01*
X406073Y286404D01*
X406018Y286349D01*
X405953Y286275D01*
X405888Y286182D01*
X405833Y286081D01*
X405787Y285961D01*
X405777Y285942D01*
X405768Y285905D01*
X405750Y285822D01*
X405731Y285720D01*
X405713Y285591D01*
X405694Y285434D01*
X405676Y285239D01*
Y283557D01*
X407876D01*
Y285378D01*
X407867Y285572D01*
X407858Y285655D01*
X407848Y285729D01*
Y285739D01*
X407839Y285776D01*
X407830Y285831D01*
X407811Y285896D01*
X407756Y286053D01*
X407682Y286210D01*
X407673Y286219D01*
X407654Y286247D01*
X407626Y286284D01*
X407589Y286330D01*
X407534Y286377D01*
X407478Y286441D01*
X407404Y286488D01*
X407321Y286543D01*
X407312Y286552D01*
X407284Y286562D01*
X407229Y286580D01*
X407164Y286608D01*
X407090Y286635D01*
X406998Y286654D01*
X406887Y286663D01*
X406776Y286672D01*
D02*
G37*
G36*
X403974Y286395D02*
X403956D01*
X403919D01*
X403863Y286386D01*
X403789Y286377D01*
X403697Y286358D01*
X403605Y286330D01*
X403512Y286293D01*
X403420Y286238D01*
X403410Y286229D01*
X403383Y286210D01*
X403336Y286173D01*
X403290Y286127D01*
X403235Y286062D01*
X403179Y285988D01*
X403124Y285896D01*
X403087Y285794D01*
Y285785D01*
X403068Y285739D01*
X403059Y285674D01*
X403041Y285572D01*
X403022Y285434D01*
X403013Y285276D01*
X402994Y285073D01*
Y283557D01*
X404917D01*
Y285128D01*
X404908Y285249D01*
X404899Y285378D01*
X404890Y285508D01*
X404871Y285637D01*
X404853Y285739D01*
X404843Y285757D01*
X404834Y285794D01*
X404806Y285850D01*
X404769Y285924D01*
X404733Y285998D01*
X404677Y286081D01*
X404603Y286164D01*
X404529Y286229D01*
X404520Y286238D01*
X404492Y286256D01*
X404437Y286284D01*
X404372Y286312D01*
X404298Y286340D01*
X404206Y286367D01*
X404095Y286386D01*
X403974Y286395D01*
D02*
G37*
G36*
X406378Y279960D02*
X403512D01*
X406378Y277945D01*
Y279960D01*
D02*
G37*
G36*
X538739Y287162D02*
X538730D01*
X538693D01*
X538646D01*
X538573Y287153D01*
X538489D01*
X538397Y287144D01*
X538286Y287135D01*
X538175Y287125D01*
X537925Y287079D01*
X537666Y287024D01*
X537426Y286940D01*
X537306Y286885D01*
X537204Y286830D01*
X537195D01*
X537176Y286811D01*
X537149Y286793D01*
X537112Y286774D01*
X537019Y286700D01*
X536908Y286608D01*
X536788Y286488D01*
X536668Y286349D01*
X536566Y286192D01*
X536483Y286025D01*
X536474Y286007D01*
X536465Y285961D01*
X536437Y285877D01*
X536409Y285757D01*
X536390Y285609D01*
X536363Y285424D01*
X536353Y285313D01*
Y285193D01*
X536344Y285073D01*
Y283594D01*
X541226D01*
Y285110D01*
X541217Y285175D01*
X541208Y285313D01*
X541198Y285471D01*
X541180Y285637D01*
X541152Y285803D01*
X541115Y285942D01*
X541106Y285961D01*
X541096Y286007D01*
X541069Y286071D01*
X541032Y286155D01*
X540976Y286247D01*
X540921Y286340D01*
X540856Y286432D01*
X540782Y286525D01*
X540764Y286534D01*
X540727Y286571D01*
X540662Y286626D01*
X540569Y286691D01*
X540449Y286765D01*
X540311Y286848D01*
X540154Y286922D01*
X539978Y286987D01*
X539969D01*
X539950Y286996D01*
X539922Y287005D01*
X539885Y287015D01*
X539839Y287024D01*
X539774Y287042D01*
X539710Y287061D01*
X539636Y287079D01*
X539451Y287107D01*
X539238Y287135D01*
X538998Y287153D01*
X538739Y287162D01*
D02*
G37*
G36*
X539728Y279960D02*
X536862D01*
X539728Y277945D01*
Y279960D01*
D02*
G37*
%LPD*%
D83*
X79107Y892800D02*
Y897798D01*
Y895299D01*
X66611D01*
X64112Y897798D01*
Y900298D01*
X66611Y902797D01*
X64112Y887802D02*
Y882803D01*
Y885303D01*
X79107D01*
X76608Y887802D01*
M02*
