G04*
G04 #@! TF.GenerationSoftware,Altium Limited,Altium Designer,25.3.3 (18)*
G04*
G04 Layer_Physical_Order=3*
G04 Layer_Color=16440176*
%FSLAX44Y44*%
%MOMM*%
G71*
G04*
G04 #@! TF.SameCoordinates,8BA9F0F0-51DE-43A2-9AC8-778ADDE1523D*
G04*
G04*
G04 #@! TF.FilePolarity,Positive*
G04*
G01*
G75*
%ADD54R,1.5700X1.5700*%
%ADD55C,1.5700*%
%ADD56R,1.5700X1.5700*%
%ADD64C,1.0160*%
%ADD72C,6.3500*%
%ADD74C,1.5900*%
%ADD76R,1.5500X1.5500*%
%ADD77C,1.5500*%
%ADD78C,1.7000*%
G04:AMPARAMS|DCode=79|XSize=1.5mm|YSize=3mm|CornerRadius=0.375mm|HoleSize=0mm|Usage=FLASHONLY|Rotation=270.000|XOffset=0mm|YOffset=0mm|HoleType=Round|Shape=RoundedRectangle|*
%AMROUNDEDRECTD79*
21,1,1.5000,2.2500,0,0,270.0*
21,1,0.7500,3.0000,0,0,270.0*
1,1,0.7500,-1.1250,-0.3750*
1,1,0.7500,-1.1250,0.3750*
1,1,0.7500,1.1250,0.3750*
1,1,0.7500,1.1250,-0.3750*
%
%ADD79ROUNDEDRECTD79*%
G04:AMPARAMS|DCode=80|XSize=1.5mm|YSize=2.5mm|CornerRadius=0.375mm|HoleSize=0mm|Usage=FLASHONLY|Rotation=0.000|XOffset=0mm|YOffset=0mm|HoleType=Round|Shape=RoundedRectangle|*
%AMROUNDEDRECTD80*
21,1,1.5000,1.7500,0,0,0.0*
21,1,0.7500,2.5000,0,0,0.0*
1,1,0.7500,0.3750,-0.8750*
1,1,0.7500,-0.3750,-0.8750*
1,1,0.7500,-0.3750,0.8750*
1,1,0.7500,0.3750,0.8750*
%
%ADD80ROUNDEDRECTD80*%
%ADD81C,0.6000*%
G36*
X36930Y997990D02*
X33373Y996178D01*
X29139Y993102D01*
X25438Y989401D01*
X22362Y985167D01*
X19986Y980504D01*
X19112Y977815D01*
X17614Y978058D01*
X17780Y999490D01*
X36569D01*
X36930Y997990D01*
D02*
G37*
G36*
X890270Y887034D02*
X888770Y886736D01*
X888545Y887279D01*
X887279Y888545D01*
X885625Y889230D01*
X883835D01*
X882181Y888545D01*
X880915Y887279D01*
X880230Y885625D01*
Y883835D01*
X880915Y882181D01*
X882181Y880915D01*
X883835Y880230D01*
X885625D01*
X887279Y880915D01*
X888545Y882181D01*
X888770Y882724D01*
X890270Y882426D01*
Y764540D01*
X889000Y763270D01*
X890270D01*
Y665432D01*
X889182Y664999D01*
X888770Y664963D01*
X887121Y666612D01*
X884989Y667843D01*
X882611Y668480D01*
X880149D01*
X877771Y667843D01*
X875639Y666612D01*
X873898Y664871D01*
X872667Y662739D01*
X872030Y660361D01*
Y657899D01*
X872667Y655521D01*
X873898Y653389D01*
X875639Y651648D01*
X877771Y650417D01*
X880149Y649780D01*
X882611D01*
X884989Y650417D01*
X887121Y651648D01*
X888770Y653297D01*
X889182Y653261D01*
X890270Y652828D01*
Y527034D01*
X888770Y526736D01*
X888545Y527279D01*
X887279Y528545D01*
X885625Y529230D01*
X883835D01*
X882181Y528545D01*
X880915Y527279D01*
X880230Y525625D01*
Y523835D01*
X880915Y522181D01*
X882181Y520915D01*
X883835Y520230D01*
X885625D01*
X887279Y520915D01*
X888545Y522181D01*
X888770Y522724D01*
X890270Y522426D01*
Y482600D01*
X887730Y480060D01*
X877570Y480060D01*
X868680Y488950D01*
X822960D01*
Y483150D01*
X821460Y482529D01*
X821009Y482980D01*
X819355Y483665D01*
X817565D01*
X815911Y482980D01*
X814645Y481714D01*
X813960Y480060D01*
Y478270D01*
X814645Y476616D01*
X815911Y475350D01*
X817565Y474665D01*
X819355D01*
X821009Y475350D01*
X821460Y475801D01*
X822960Y475180D01*
Y471170D01*
X762000Y410210D01*
Y408364D01*
X760915Y407279D01*
X760230Y405625D01*
Y403835D01*
X760915Y402181D01*
X762000Y401096D01*
Y378277D01*
X612330Y228607D01*
X612181Y228545D01*
X610915Y227279D01*
X610854Y227130D01*
X533583Y149860D01*
X276860D01*
X265430Y138430D01*
Y71120D01*
X271780Y64770D01*
X307128D01*
X307426Y63270D01*
X307136Y63150D01*
X305870Y61884D01*
X305185Y60230D01*
Y58440D01*
X305870Y56786D01*
X307136Y55520D01*
X308790Y54835D01*
X310580D01*
X312234Y55520D01*
X313500Y56786D01*
X314185Y58440D01*
Y60230D01*
X313500Y61884D01*
X312234Y63150D01*
X311943Y63270D01*
X312242Y64770D01*
X348939D01*
X395929Y111760D01*
X549910D01*
X701504Y263354D01*
X703079Y262808D01*
X703575Y261611D01*
X704841Y260345D01*
X706495Y259660D01*
X708285D01*
X709939Y260345D01*
X711205Y261611D01*
X711890Y263265D01*
Y265055D01*
X711205Y266709D01*
X709939Y267975D01*
X708742Y268471D01*
X708196Y270046D01*
X796090Y357940D01*
Y396040D01*
X834854Y434804D01*
X836429Y434258D01*
X836925Y433061D01*
X838191Y431795D01*
X839845Y431110D01*
X841635D01*
X843289Y431795D01*
X844555Y433061D01*
X845240Y434715D01*
Y436505D01*
X844555Y438159D01*
X843289Y439425D01*
X842092Y439921D01*
X841546Y441496D01*
X857255Y457205D01*
X861631D01*
X862228Y455705D01*
X861640Y454285D01*
Y452495D01*
X862325Y450841D01*
X863591Y449575D01*
X865245Y448890D01*
X867035D01*
X868455Y449478D01*
X869955Y448881D01*
Y149860D01*
X1064246D01*
X1064251Y149855D01*
X1065905Y149170D01*
X1067695D01*
X1069349Y149855D01*
X1069354Y149860D01*
X1137920D01*
Y168910D01*
X1207682D01*
X1212563Y164029D01*
Y106967D01*
X1126851D01*
X1126763Y106955D01*
X1123187Y107308D01*
X1119663Y108377D01*
X1116416Y110112D01*
X1113637Y112392D01*
X1113584Y112463D01*
X1105783Y120263D01*
X1104408Y121318D01*
X1102808Y121981D01*
X1101090Y122207D01*
X1099372Y121981D01*
X1097772Y121318D01*
X1096397Y120263D01*
X1095342Y118889D01*
X1094679Y117288D01*
X1094453Y115570D01*
X1094679Y113852D01*
X1095342Y112252D01*
X1096397Y110877D01*
X1104197Y103076D01*
X1104168Y103047D01*
X1107996Y99778D01*
X1112288Y97147D01*
X1116938Y95221D01*
X1121833Y94046D01*
X1126851Y93651D01*
Y93693D01*
X1213651D01*
X1214183Y91939D01*
X1216209Y88149D01*
X1218936Y84826D01*
X1222259Y82099D01*
X1226049Y80073D01*
X1230163Y78826D01*
X1234440Y78404D01*
Y78453D01*
X1343828D01*
Y78411D01*
X1348846Y78806D01*
X1353741Y79981D01*
X1358392Y81907D01*
X1362684Y84538D01*
X1366511Y87807D01*
X1366481Y87837D01*
X1396423Y117778D01*
X1397478Y119153D01*
X1398141Y120753D01*
X1398367Y122471D01*
X1398141Y124189D01*
X1397478Y125789D01*
X1396423Y127164D01*
X1395049Y128219D01*
X1393448Y128882D01*
X1391730Y129108D01*
X1390012Y128882D01*
X1388412Y128219D01*
X1387037Y127164D01*
X1357095Y97222D01*
X1357042Y97152D01*
X1354263Y94872D01*
X1351016Y93137D01*
X1347492Y92068D01*
X1343916Y91715D01*
X1343828Y91727D01*
X1234440D01*
X1234427Y91725D01*
X1232213Y92017D01*
X1230137Y92877D01*
X1228354Y94244D01*
X1226986Y96027D01*
X1226127Y98103D01*
X1225835Y100317D01*
X1225837Y100330D01*
Y166779D01*
X1225754Y167410D01*
X1226972Y168910D01*
X1271261D01*
X1271265Y168901D01*
X1272531Y167635D01*
X1274185Y166950D01*
X1275975D01*
X1277629Y167635D01*
X1278895Y168901D01*
X1278899Y168910D01*
X1503680D01*
Y62491D01*
X1502180Y62130D01*
X1500368Y65687D01*
X1497292Y69921D01*
X1493591Y73622D01*
X1489357Y76698D01*
X1484694Y79074D01*
X1479716Y80691D01*
X1474547Y81510D01*
X1469313D01*
X1464144Y80691D01*
X1459166Y79074D01*
X1454503Y76698D01*
X1450269Y73622D01*
X1446568Y69921D01*
X1443492Y65687D01*
X1441116Y61024D01*
X1439499Y56046D01*
X1438680Y50877D01*
Y45643D01*
X1439499Y40474D01*
X1441116Y35496D01*
X1443492Y30833D01*
X1446568Y26599D01*
X1450269Y22898D01*
X1454503Y19822D01*
X1459166Y17446D01*
X1464144Y15829D01*
X1466409Y15470D01*
X1466291Y13970D01*
X1171102D01*
X1170544Y15470D01*
X1171415Y16341D01*
X1172100Y17995D01*
Y19785D01*
X1171415Y21439D01*
X1170149Y22705D01*
X1168495Y23390D01*
X1166705D01*
X1165051Y22705D01*
X1163785Y21439D01*
X1163100Y19785D01*
Y17995D01*
X1163785Y16341D01*
X1164656Y15470D01*
X1164098Y13970D01*
X1086012D01*
X1085454Y15470D01*
X1086325Y16341D01*
X1087010Y17995D01*
Y19785D01*
X1086325Y21439D01*
X1085059Y22705D01*
X1083405Y23390D01*
X1081615D01*
X1079961Y22705D01*
X1078695Y21439D01*
X1078010Y19785D01*
Y17995D01*
X1078695Y16341D01*
X1079566Y15470D01*
X1079008Y13970D01*
X56439D01*
X56321Y15470D01*
X58586Y15829D01*
X63564Y17446D01*
X68227Y19822D01*
X72461Y22898D01*
X76162Y26599D01*
X79238Y30833D01*
X81614Y35496D01*
X83231Y40474D01*
X84050Y45643D01*
Y50877D01*
X83231Y56046D01*
X81614Y61024D01*
X79238Y65687D01*
X76162Y69921D01*
X72461Y73622D01*
X68227Y76698D01*
X63564Y79074D01*
X58586Y80691D01*
X53417Y81510D01*
X48183D01*
X43014Y80691D01*
X38036Y79074D01*
X33373Y76698D01*
X29139Y73622D01*
X25438Y69921D01*
X22362Y65687D01*
X19986Y61024D01*
X18369Y56046D01*
X17550Y50877D01*
Y45643D01*
X18369Y40474D01*
X19986Y35496D01*
X22362Y30833D01*
X25438Y26599D01*
X29139Y22898D01*
X33373Y19822D01*
X38036Y17446D01*
X43014Y15829D01*
X45279Y15470D01*
X45161Y13970D01*
X11225D01*
X10168Y15035D01*
X17458Y957901D01*
X18960Y958133D01*
X19986Y954976D01*
X22362Y950313D01*
X25438Y946079D01*
X29139Y942378D01*
X33373Y939302D01*
X38036Y936926D01*
X43014Y935309D01*
X48183Y934490D01*
X53417D01*
X58586Y935309D01*
X63564Y936926D01*
X68227Y939302D01*
X72461Y942378D01*
X76162Y946079D01*
X79238Y950313D01*
X81614Y954976D01*
X83231Y959954D01*
X84050Y965123D01*
Y970357D01*
X83231Y975526D01*
X81614Y980504D01*
X79238Y985167D01*
X76162Y989401D01*
X72461Y993102D01*
X68227Y996178D01*
X64671Y997990D01*
X65031Y999490D01*
X890270D01*
Y887034D01*
D02*
G37*
G36*
X894080Y454660D02*
Y439429D01*
X894071Y439425D01*
X892805Y438159D01*
X892120Y436505D01*
Y434715D01*
X892805Y433061D01*
X894071Y431795D01*
X894080Y431791D01*
Y404550D01*
X892694Y403976D01*
X877570Y419100D01*
X877570Y453390D01*
X868680Y462280D01*
X846609D01*
X847183Y460894D01*
X814442Y428153D01*
X814061Y427995D01*
X812795Y426729D01*
X812637Y426348D01*
X789517Y403228D01*
Y362797D01*
X788715D01*
X788741Y362021D01*
X547370Y120650D01*
X383540D01*
Y114505D01*
X341682Y72647D01*
X307597D01*
X281683Y72647D01*
X276860Y77470D01*
Y133350D01*
X283210Y139700D01*
X377190D01*
X377190Y139700D01*
X542433Y139700D01*
X672988Y270255D01*
X673454Y269788D01*
X675108Y269103D01*
X676898D01*
X678552Y269788D01*
X679818Y271054D01*
X680503Y272708D01*
Y274498D01*
X679818Y276152D01*
X679352Y276619D01*
X711265Y308531D01*
X712461Y307335D01*
X714115Y306650D01*
X715905D01*
X717559Y307335D01*
X718825Y308601D01*
X719510Y310255D01*
Y312045D01*
X718825Y313699D01*
X717629Y314895D01*
X772905Y370172D01*
X770551Y372525D01*
Y407331D01*
X825500Y462280D01*
X826080D01*
Y481330D01*
X867410D01*
X894080Y454660D01*
D02*
G37*
G36*
X1323120Y233543D02*
X1323939Y228374D01*
X1325556Y223396D01*
X1327932Y218733D01*
X1331008Y214499D01*
X1334709Y210798D01*
X1338943Y207722D01*
X1343606Y205346D01*
X1348584Y203729D01*
X1353753Y202910D01*
X1358987D01*
X1364156Y203729D01*
X1368417Y205113D01*
X1390534Y182996D01*
X1389960Y181610D01*
X1213755D01*
X1188742Y206623D01*
X1187367Y207678D01*
X1185766Y208341D01*
X1184048Y208567D01*
X1117600D01*
X1115882Y208341D01*
X1114281Y207678D01*
X1112907Y206623D01*
X1111852Y205249D01*
X1111189Y203648D01*
X1110963Y201930D01*
X1111189Y200212D01*
X1111852Y198612D01*
X1112907Y197237D01*
X1114281Y196182D01*
X1115882Y195519D01*
X1117600Y195293D01*
X1181299D01*
X1193597Y182996D01*
X1193023Y181610D01*
X1027430D01*
Y233680D01*
X1238140D01*
Y231890D01*
X1238825Y230236D01*
X1240091Y228970D01*
X1241745Y228285D01*
X1243535D01*
X1245189Y228970D01*
X1246455Y230236D01*
X1247140Y231890D01*
Y233680D01*
X1323120D01*
Y233543D01*
D02*
G37*
G36*
X1503680Y34029D02*
Y20320D01*
X1506220Y17780D01*
X1502410Y13970D01*
X1477569D01*
X1477451Y15470D01*
X1479716Y15829D01*
X1484694Y17446D01*
X1489357Y19822D01*
X1493591Y22898D01*
X1497292Y26599D01*
X1500368Y30833D01*
X1502180Y34390D01*
X1503680Y34029D01*
D02*
G37*
%LPC*%
G36*
X855625Y949230D02*
X853835D01*
X852181Y948545D01*
X850915Y947279D01*
X850230Y945625D01*
Y943835D01*
X850915Y942181D01*
X852181Y940915D01*
X853835Y940230D01*
X855625D01*
X857279Y940915D01*
X858545Y942181D01*
X859230Y943835D01*
Y945625D01*
X858545Y947279D01*
X857279Y948545D01*
X855625Y949230D01*
D02*
G37*
G36*
X795625D02*
X793835D01*
X792181Y948545D01*
X790915Y947279D01*
X790230Y945625D01*
Y943835D01*
X790915Y942181D01*
X792181Y940915D01*
X793835Y940230D01*
X795625D01*
X797279Y940915D01*
X798545Y942181D01*
X799230Y943835D01*
Y945625D01*
X798545Y947279D01*
X797279Y948545D01*
X795625Y949230D01*
D02*
G37*
G36*
X735625D02*
X733835D01*
X732181Y948545D01*
X730915Y947279D01*
X730230Y945625D01*
Y943835D01*
X730915Y942181D01*
X732181Y940915D01*
X733835Y940230D01*
X735625D01*
X737279Y940915D01*
X738545Y942181D01*
X739230Y943835D01*
Y945625D01*
X738545Y947279D01*
X737279Y948545D01*
X735625Y949230D01*
D02*
G37*
G36*
X675625D02*
X673835D01*
X672181Y948545D01*
X670915Y947279D01*
X670230Y945625D01*
Y943835D01*
X670915Y942181D01*
X672181Y940915D01*
X673835Y940230D01*
X675625D01*
X677279Y940915D01*
X678545Y942181D01*
X679230Y943835D01*
Y945625D01*
X678545Y947279D01*
X677279Y948545D01*
X675625Y949230D01*
D02*
G37*
G36*
X615625D02*
X613835D01*
X612181Y948545D01*
X610915Y947279D01*
X610230Y945625D01*
Y943835D01*
X610915Y942181D01*
X612181Y940915D01*
X613835Y940230D01*
X615625D01*
X617279Y940915D01*
X618545Y942181D01*
X619230Y943835D01*
Y945625D01*
X618545Y947279D01*
X617279Y948545D01*
X615625Y949230D01*
D02*
G37*
G36*
X555625D02*
X553835D01*
X552181Y948545D01*
X550915Y947279D01*
X550230Y945625D01*
Y943835D01*
X550915Y942181D01*
X552181Y940915D01*
X553835Y940230D01*
X555625D01*
X557279Y940915D01*
X558545Y942181D01*
X559230Y943835D01*
Y945625D01*
X558545Y947279D01*
X557279Y948545D01*
X555625Y949230D01*
D02*
G37*
G36*
X495625D02*
X493835D01*
X492181Y948545D01*
X490915Y947279D01*
X490230Y945625D01*
Y943835D01*
X490915Y942181D01*
X492181Y940915D01*
X493835Y940230D01*
X495625D01*
X497279Y940915D01*
X498545Y942181D01*
X499230Y943835D01*
Y945625D01*
X498545Y947279D01*
X497279Y948545D01*
X495625Y949230D01*
D02*
G37*
G36*
X435625D02*
X433835D01*
X432181Y948545D01*
X430915Y947279D01*
X430230Y945625D01*
Y943835D01*
X430915Y942181D01*
X432181Y940915D01*
X433835Y940230D01*
X435625D01*
X437279Y940915D01*
X438545Y942181D01*
X439230Y943835D01*
Y945625D01*
X438545Y947279D01*
X437279Y948545D01*
X435625Y949230D01*
D02*
G37*
G36*
X375625D02*
X373835D01*
X372181Y948545D01*
X370915Y947279D01*
X370230Y945625D01*
Y943835D01*
X370915Y942181D01*
X372181Y940915D01*
X373835Y940230D01*
X375625D01*
X377279Y940915D01*
X378545Y942181D01*
X379230Y943835D01*
Y945625D01*
X378545Y947279D01*
X377279Y948545D01*
X375625Y949230D01*
D02*
G37*
G36*
X315625D02*
X313835D01*
X312181Y948545D01*
X310915Y947279D01*
X310230Y945625D01*
Y943835D01*
X310915Y942181D01*
X312181Y940915D01*
X313835Y940230D01*
X315625D01*
X317279Y940915D01*
X318545Y942181D01*
X319230Y943835D01*
Y945625D01*
X318545Y947279D01*
X317279Y948545D01*
X315625Y949230D01*
D02*
G37*
G36*
X255625D02*
X253835D01*
X252181Y948545D01*
X250915Y947279D01*
X250230Y945625D01*
Y943835D01*
X250915Y942181D01*
X252181Y940915D01*
X253835Y940230D01*
X255625D01*
X257279Y940915D01*
X258545Y942181D01*
X259230Y943835D01*
Y945625D01*
X258545Y947279D01*
X257279Y948545D01*
X255625Y949230D01*
D02*
G37*
G36*
X195625D02*
X193835D01*
X192181Y948545D01*
X190915Y947279D01*
X190230Y945625D01*
Y943835D01*
X190915Y942181D01*
X192181Y940915D01*
X193835Y940230D01*
X195625D01*
X197279Y940915D01*
X198545Y942181D01*
X199230Y943835D01*
Y945625D01*
X198545Y947279D01*
X197279Y948545D01*
X195625Y949230D01*
D02*
G37*
G36*
X135625D02*
X133835D01*
X132181Y948545D01*
X130915Y947279D01*
X130230Y945625D01*
Y943835D01*
X130915Y942181D01*
X132181Y940915D01*
X133835Y940230D01*
X135625D01*
X137279Y940915D01*
X138545Y942181D01*
X139230Y943835D01*
Y945625D01*
X138545Y947279D01*
X137279Y948545D01*
X135625Y949230D01*
D02*
G37*
G36*
X115195Y959540D02*
X113405D01*
X111751Y958855D01*
X110485Y957589D01*
X109800Y955935D01*
Y954145D01*
X110485Y952491D01*
X111751Y951225D01*
X112860Y950766D01*
Y949154D01*
X111751Y948695D01*
X110485Y947429D01*
X109800Y945775D01*
Y943985D01*
X110485Y942331D01*
X111494Y941322D01*
X111644Y940435D01*
X111494Y939548D01*
X110485Y938539D01*
X109800Y936885D01*
Y935095D01*
X110485Y933441D01*
X111751Y932175D01*
X113405Y931490D01*
X115195D01*
X116849Y932175D01*
X118115Y933441D01*
X118800Y935095D01*
Y936885D01*
X118115Y938539D01*
X117106Y939548D01*
X116956Y940435D01*
X117106Y941322D01*
X118115Y942331D01*
X118800Y943985D01*
Y945775D01*
X118115Y947429D01*
X116849Y948695D01*
X115740Y949154D01*
Y950766D01*
X116849Y951225D01*
X118115Y952491D01*
X118800Y954145D01*
Y955935D01*
X118115Y957589D01*
X116849Y958855D01*
X115195Y959540D01*
D02*
G37*
G36*
X125850Y929413D02*
X103350D01*
X101302Y929005D01*
X99565Y927845D01*
X98405Y926108D01*
X97997Y924060D01*
Y916560D01*
X98405Y914512D01*
X99565Y912775D01*
X101302Y911615D01*
X103350Y911207D01*
X125850D01*
X127898Y911615D01*
X129635Y912775D01*
X130795Y914512D01*
X131203Y916560D01*
Y924060D01*
X130795Y926108D01*
X129635Y927845D01*
X127898Y929005D01*
X125850Y929413D01*
D02*
G37*
G36*
X102916Y902810D02*
X100283D01*
X97740Y902129D01*
X95460Y900812D01*
X93598Y898950D01*
X92282Y896670D01*
X91600Y894127D01*
Y891494D01*
X92282Y888950D01*
X93598Y886670D01*
X95460Y884808D01*
X97740Y883492D01*
X100283Y882810D01*
X102916D01*
X105460Y883492D01*
X107740Y884808D01*
X109602Y886670D01*
X110919Y888950D01*
X111600Y891494D01*
Y894127D01*
X110919Y896670D01*
X109602Y898950D01*
X107740Y900812D01*
X105460Y902129D01*
X102916Y902810D01*
D02*
G37*
G36*
X47916D02*
X45283D01*
X42740Y902129D01*
X40460Y900812D01*
X38598Y898950D01*
X37281Y896670D01*
X36600Y894127D01*
Y891494D01*
X37281Y888950D01*
X38598Y886670D01*
X40460Y884808D01*
X42740Y883492D01*
X45283Y882810D01*
X47916D01*
X50460Y883492D01*
X52740Y884808D01*
X54602Y886670D01*
X55918Y888950D01*
X56600Y891494D01*
Y894127D01*
X55918Y896670D01*
X54602Y898950D01*
X52740Y900812D01*
X50460Y902129D01*
X47916Y902810D01*
D02*
G37*
G36*
X825625Y889230D02*
X823835D01*
X822181Y888545D01*
X820915Y887279D01*
X820230Y885625D01*
Y883835D01*
X820915Y882181D01*
X822181Y880915D01*
X823835Y880230D01*
X825625D01*
X827279Y880915D01*
X828545Y882181D01*
X829230Y883835D01*
Y885625D01*
X828545Y887279D01*
X827279Y888545D01*
X825625Y889230D01*
D02*
G37*
G36*
X765625D02*
X763835D01*
X762181Y888545D01*
X760915Y887279D01*
X760230Y885625D01*
Y883835D01*
X760915Y882181D01*
X762181Y880915D01*
X763835Y880230D01*
X765625D01*
X767279Y880915D01*
X768545Y882181D01*
X769230Y883835D01*
Y885625D01*
X768545Y887279D01*
X767279Y888545D01*
X765625Y889230D01*
D02*
G37*
G36*
X705625D02*
X703835D01*
X702181Y888545D01*
X700915Y887279D01*
X700230Y885625D01*
Y883835D01*
X700915Y882181D01*
X702181Y880915D01*
X703835Y880230D01*
X705625D01*
X707279Y880915D01*
X708545Y882181D01*
X709230Y883835D01*
Y885625D01*
X708545Y887279D01*
X707279Y888545D01*
X705625Y889230D01*
D02*
G37*
G36*
X587635Y897310D02*
X585845D01*
X584191Y896625D01*
X582925Y895359D01*
X582240Y893705D01*
Y891915D01*
X582892Y890340D01*
X582925Y890261D01*
X582421Y888644D01*
X582181Y888545D01*
X580915Y887279D01*
X580230Y885625D01*
Y883835D01*
X580915Y882181D01*
X582181Y880915D01*
X583835Y880230D01*
X585625D01*
X587279Y880915D01*
X588545Y882181D01*
X589230Y883835D01*
Y885625D01*
X588578Y887200D01*
X588545Y887279D01*
X589050Y888896D01*
X589289Y888995D01*
X590555Y890261D01*
X591240Y891915D01*
Y893705D01*
X590555Y895359D01*
X589289Y896625D01*
X587635Y897310D01*
D02*
G37*
G36*
X465625Y889230D02*
X463835D01*
X462181Y888545D01*
X460915Y887279D01*
X460230Y885625D01*
Y883835D01*
X460915Y882181D01*
X462181Y880915D01*
X463835Y880230D01*
X465625D01*
X467279Y880915D01*
X468545Y882181D01*
X469230Y883835D01*
Y885625D01*
X468545Y887279D01*
X467279Y888545D01*
X465625Y889230D01*
D02*
G37*
G36*
X405625D02*
X403835D01*
X402181Y888545D01*
X400915Y887279D01*
X400230Y885625D01*
Y883835D01*
X400915Y882181D01*
X402181Y880915D01*
X403835Y880230D01*
X405625D01*
X407279Y880915D01*
X408545Y882181D01*
X409230Y883835D01*
Y885625D01*
X408545Y887279D01*
X407279Y888545D01*
X405625Y889230D01*
D02*
G37*
G36*
X345625D02*
X343835D01*
X342181Y888545D01*
X340915Y887279D01*
X340230Y885625D01*
Y883835D01*
X340915Y882181D01*
X342181Y880915D01*
X343835Y880230D01*
X345625D01*
X347279Y880915D01*
X348545Y882181D01*
X349230Y883835D01*
Y885625D01*
X348545Y887279D01*
X347279Y888545D01*
X345625Y889230D01*
D02*
G37*
G36*
X285625D02*
X283835D01*
X282181Y888545D01*
X280915Y887279D01*
X280230Y885625D01*
Y883835D01*
X280915Y882181D01*
X282181Y880915D01*
X283835Y880230D01*
X285625D01*
X287279Y880915D01*
X288545Y882181D01*
X289230Y883835D01*
Y885625D01*
X288545Y887279D01*
X287279Y888545D01*
X285625Y889230D01*
D02*
G37*
G36*
X165625D02*
X163835D01*
X162181Y888545D01*
X160915Y887279D01*
X160230Y885625D01*
Y883835D01*
X160915Y882181D01*
X162181Y880915D01*
X163835Y880230D01*
X165625D01*
X167279Y880915D01*
X168545Y882181D01*
X169230Y883835D01*
Y885625D01*
X168545Y887279D01*
X167279Y888545D01*
X165625Y889230D01*
D02*
G37*
G36*
X146945Y879530D02*
X145155D01*
X143501Y878845D01*
X142235Y877579D01*
X141550Y875925D01*
Y874135D01*
X142235Y872481D01*
X143501Y871215D01*
X145155Y870530D01*
X146945D01*
X148599Y871215D01*
X149865Y872481D01*
X150550Y874135D01*
Y875925D01*
X149865Y877579D01*
X148599Y878845D01*
X146945Y879530D01*
D02*
G37*
G36*
X159645Y874450D02*
X157855D01*
X156201Y873765D01*
X154935Y872499D01*
X154250Y870845D01*
Y870598D01*
X153295Y869370D01*
X152864Y869370D01*
X151505D01*
X149851Y868685D01*
X148585Y867419D01*
X148126Y866310D01*
X146514D01*
X146055Y867419D01*
X144789Y868685D01*
X143135Y869370D01*
X141345D01*
X139691Y868685D01*
X138425Y867419D01*
X137740Y865765D01*
Y863975D01*
X138425Y862321D01*
X139691Y861055D01*
X141345Y860370D01*
X143135D01*
X144789Y861055D01*
X146055Y862321D01*
X146514Y863430D01*
X148126D01*
X148585Y862321D01*
X149851Y861055D01*
X151505Y860370D01*
X153295D01*
X154949Y861055D01*
X156215Y862321D01*
X156900Y863975D01*
Y864222D01*
X157855Y865450D01*
X158286Y865450D01*
X159645D01*
X161299Y866135D01*
X162565Y867401D01*
X163250Y869055D01*
Y870845D01*
X162565Y872499D01*
X161299Y873765D01*
X159645Y874450D01*
D02*
G37*
G36*
X201236Y874200D02*
X199446D01*
X197792Y873515D01*
X196526Y872249D01*
X195841Y870595D01*
Y868805D01*
X196526Y867151D01*
X197792Y865885D01*
X199446Y865200D01*
X201236D01*
X202890Y865885D01*
X204156Y867151D01*
X204841Y868805D01*
Y870595D01*
X204156Y872249D01*
X202890Y873515D01*
X201236Y874200D01*
D02*
G37*
G36*
X468260Y869379D02*
X466470D01*
X464816Y868694D01*
X463550Y867428D01*
X462865Y865774D01*
Y863984D01*
X463550Y862330D01*
X464816Y861064D01*
X466470Y860379D01*
X468260D01*
X469914Y861064D01*
X471180Y862330D01*
X471865Y863984D01*
Y865774D01*
X471180Y867428D01*
X469914Y868694D01*
X468260Y869379D01*
D02*
G37*
G36*
X554447Y869008D02*
X552657D01*
X551003Y868323D01*
X549737Y867057D01*
X549052Y865403D01*
Y863613D01*
X549737Y861959D01*
X551003Y860693D01*
X552657Y860008D01*
X554447D01*
X556101Y860693D01*
X557367Y861959D01*
X558052Y863613D01*
Y865403D01*
X557367Y867057D01*
X556101Y868323D01*
X554447Y869008D01*
D02*
G37*
G36*
X588905Y868100D02*
X587115D01*
X585461Y867415D01*
X584195Y866149D01*
X583510Y864495D01*
Y862705D01*
X584195Y861051D01*
X585461Y859785D01*
X587115Y859100D01*
X588905D01*
X590559Y859785D01*
X591825Y861051D01*
X592510Y862705D01*
Y864495D01*
X591825Y866149D01*
X590559Y867415D01*
X588905Y868100D01*
D02*
G37*
G36*
X117850Y874413D02*
X95350D01*
X93302Y874005D01*
X91565Y872845D01*
X90405Y871108D01*
X89997Y869060D01*
Y861560D01*
X90405Y859512D01*
X91565Y857775D01*
X93302Y856615D01*
X95350Y856207D01*
X117850D01*
X119898Y856615D01*
X121635Y857775D01*
X122795Y859512D01*
X123203Y861560D01*
Y869060D01*
X122795Y871108D01*
X121635Y872845D01*
X119898Y874005D01*
X117850Y874413D01*
D02*
G37*
G36*
X146945Y859210D02*
X145155D01*
X143501Y858525D01*
X142235Y857259D01*
X141550Y855605D01*
Y853815D01*
X142235Y852161D01*
X143501Y850895D01*
X145155Y850210D01*
X146945D01*
X148599Y850895D01*
X149865Y852161D01*
X150550Y853815D01*
Y855605D01*
X149865Y857259D01*
X148599Y858525D01*
X146945Y859210D01*
D02*
G37*
G36*
X687965Y843970D02*
X686175D01*
X684521Y843285D01*
X683255Y842019D01*
X682570Y840365D01*
Y838575D01*
X683255Y836921D01*
X684521Y835655D01*
X686175Y834970D01*
X687965D01*
X689619Y835655D01*
X690885Y836921D01*
X691570Y838575D01*
Y840365D01*
X690885Y842019D01*
X689619Y843285D01*
X687965Y843970D01*
D02*
G37*
G36*
X237115Y836350D02*
X235325D01*
X233671Y835665D01*
X232405Y834399D01*
X231720Y832745D01*
Y830955D01*
X232405Y829301D01*
X233671Y828035D01*
X235325Y827350D01*
X237115D01*
X238769Y828035D01*
X240035Y829301D01*
X240720Y830955D01*
Y832745D01*
X240035Y834399D01*
X238769Y835665D01*
X237115Y836350D01*
D02*
G37*
G36*
X107575Y854130D02*
X105785D01*
X104131Y853445D01*
X102865Y852179D01*
X102180Y850525D01*
Y848735D01*
X102865Y847081D01*
X104131Y845815D01*
X105240Y845356D01*
Y843744D01*
X104131Y843285D01*
X102865Y842019D01*
X102180Y840365D01*
Y838575D01*
X102865Y836921D01*
X103874Y835912D01*
X104024Y835025D01*
X103874Y834138D01*
X102865Y833129D01*
X102180Y831475D01*
Y829685D01*
X102865Y828031D01*
X104131Y826765D01*
X105785Y826080D01*
X107575D01*
X109229Y826765D01*
X110495Y828031D01*
X111180Y829685D01*
Y831475D01*
X110495Y833129D01*
X109486Y834138D01*
X109336Y835025D01*
X109486Y835912D01*
X110495Y836921D01*
X111180Y838575D01*
Y840365D01*
X110495Y842019D01*
X109229Y843285D01*
X108120Y843744D01*
Y845356D01*
X109229Y845815D01*
X110495Y847081D01*
X111180Y848735D01*
Y850525D01*
X110495Y852179D01*
X109229Y853445D01*
X107575Y854130D01*
D02*
G37*
G36*
X195625Y829230D02*
X193835D01*
X192181Y828545D01*
X190915Y827279D01*
X190230Y825625D01*
Y823835D01*
X190915Y822181D01*
X192181Y820915D01*
X193835Y820230D01*
X195625D01*
X197279Y820915D01*
X198545Y822181D01*
X199230Y823835D01*
Y825625D01*
X198545Y827279D01*
X197279Y828545D01*
X195625Y829230D01*
D02*
G37*
G36*
X135625D02*
X133835D01*
X132181Y828545D01*
X130915Y827279D01*
X130230Y825625D01*
Y823835D01*
X130915Y822181D01*
X132181Y820915D01*
X133835Y820230D01*
X135625D01*
X137279Y820915D01*
X138545Y822181D01*
X139230Y823835D01*
Y825625D01*
X138545Y827279D01*
X137279Y828545D01*
X135625Y829230D01*
D02*
G37*
G36*
X75625D02*
X73835D01*
X72181Y828545D01*
X70915Y827279D01*
X70230Y825625D01*
Y823835D01*
X70915Y822181D01*
X72181Y820915D01*
X73835Y820230D01*
X75625D01*
X77279Y820915D01*
X78545Y822181D01*
X79230Y823835D01*
Y825625D01*
X78545Y827279D01*
X77279Y828545D01*
X75625Y829230D01*
D02*
G37*
G36*
X723525Y821110D02*
X721735D01*
X720081Y820425D01*
X718815Y819159D01*
X718130Y817505D01*
Y815715D01*
X718815Y814061D01*
X720081Y812795D01*
X721735Y812110D01*
X723525D01*
X725179Y812795D01*
X726445Y814061D01*
X727130Y815715D01*
Y817505D01*
X726445Y819159D01*
X725179Y820425D01*
X723525Y821110D01*
D02*
G37*
G36*
X239655Y818570D02*
X237865D01*
X236211Y817885D01*
X234945Y816619D01*
X234260Y814965D01*
Y813175D01*
X234945Y811521D01*
X236211Y810255D01*
X237865Y809570D01*
X239655D01*
X241309Y810255D01*
X242575Y811521D01*
X243260Y813175D01*
Y814965D01*
X242575Y816619D01*
X241309Y817885D01*
X239655Y818570D01*
D02*
G37*
G36*
X580390Y817880D02*
X365760D01*
Y815340D01*
X323850Y773430D01*
X275590D01*
Y781681D01*
X253731Y803540D01*
X238053D01*
X200323Y765810D01*
X148590D01*
Y736600D01*
X629920D01*
X651510Y758190D01*
X752682Y757499D01*
Y763270D01*
X752682Y798830D01*
X599440D01*
X580390Y817880D01*
D02*
G37*
G36*
X132041Y787860D02*
X129579D01*
X127201Y787223D01*
X125069Y785992D01*
X123328Y784251D01*
X122097Y782119D01*
X121460Y779741D01*
Y777279D01*
X122097Y774901D01*
X123328Y772769D01*
X125069Y771028D01*
X127201Y769797D01*
X129579Y769160D01*
X132041D01*
X134419Y769797D01*
X136551Y771028D01*
X138292Y772769D01*
X139523Y774901D01*
X140160Y777279D01*
Y779741D01*
X139523Y782119D01*
X138292Y784251D01*
X136551Y785992D01*
X134419Y787223D01*
X132041Y787860D01*
D02*
G37*
G36*
X825625Y769230D02*
X823835D01*
X822181Y768545D01*
X820915Y767279D01*
X820230Y765625D01*
Y763835D01*
X820915Y762181D01*
X822181Y760915D01*
X823835Y760230D01*
X825625D01*
X827279Y760915D01*
X828545Y762181D01*
X829230Y763835D01*
Y765625D01*
X828545Y767279D01*
X827279Y768545D01*
X825625Y769230D01*
D02*
G37*
G36*
X114760Y787860D02*
X96060D01*
Y769160D01*
X100675D01*
X101296Y767660D01*
X100915Y767279D01*
X100230Y765625D01*
Y763835D01*
X100915Y762181D01*
X102181Y760915D01*
X103835Y760230D01*
X105625D01*
X107279Y760915D01*
X108545Y762181D01*
X109230Y763835D01*
Y765625D01*
X108545Y767279D01*
X108164Y767660D01*
X108785Y769160D01*
X114760D01*
Y787860D01*
D02*
G37*
G36*
X45625Y769230D02*
X43835D01*
X42181Y768545D01*
X40915Y767279D01*
X40230Y765625D01*
Y763835D01*
X40915Y762181D01*
X42181Y760915D01*
X43835Y760230D01*
X45625D01*
X47279Y760915D01*
X48545Y762181D01*
X49230Y763835D01*
Y765625D01*
X48545Y767279D01*
X47279Y768545D01*
X45625Y769230D01*
D02*
G37*
G36*
X728605Y753800D02*
X726815D01*
X725161Y753115D01*
X723895Y751849D01*
X723210Y750195D01*
Y748405D01*
X723895Y746751D01*
X725161Y745485D01*
X726815Y744800D01*
X728605D01*
X730259Y745485D01*
X731525Y746751D01*
X732210Y748405D01*
Y750195D01*
X731525Y751849D01*
X730259Y753115D01*
X728605Y753800D01*
D02*
G37*
G36*
X798027Y753372D02*
X796237D01*
X794583Y752687D01*
X793317Y751421D01*
X792632Y749767D01*
Y747977D01*
X793317Y746323D01*
X794583Y745057D01*
X796237Y744372D01*
X798027D01*
X799681Y745057D01*
X800947Y746323D01*
X801632Y747977D01*
Y749767D01*
X800947Y751421D01*
X799681Y752687D01*
X798027Y753372D01*
D02*
G37*
G36*
X754005Y723320D02*
X752215D01*
X750561Y722635D01*
X749295Y721369D01*
X748610Y719715D01*
Y717925D01*
X749295Y716271D01*
X750561Y715005D01*
X752215Y714320D01*
X754005D01*
X755659Y715005D01*
X756925Y716271D01*
X757610Y717925D01*
Y719715D01*
X756925Y721369D01*
X755659Y722635D01*
X754005Y723320D01*
D02*
G37*
G36*
X704484Y719505D02*
X702694D01*
X701040Y718820D01*
X699774Y717554D01*
X699089Y715900D01*
Y714110D01*
X699774Y712456D01*
X701040Y711190D01*
X702694Y710505D01*
X704484D01*
X706138Y711190D01*
X707404Y712456D01*
X708089Y714110D01*
Y715900D01*
X707404Y717554D01*
X706138Y718820D01*
X704484Y719505D01*
D02*
G37*
G36*
X795625Y709230D02*
X793835D01*
X792181Y708545D01*
X790915Y707279D01*
X790230Y705625D01*
Y703835D01*
X790915Y702181D01*
X792181Y700915D01*
X793835Y700230D01*
X795625D01*
X797279Y700915D01*
X798545Y702181D01*
X799230Y703835D01*
Y705625D01*
X798545Y707279D01*
X797279Y708545D01*
X795625Y709230D01*
D02*
G37*
G36*
X735625D02*
X733835D01*
X732181Y708545D01*
X730915Y707279D01*
X730230Y705625D01*
Y703835D01*
X730915Y702181D01*
X732181Y700915D01*
X733835Y700230D01*
X735625D01*
X737279Y700915D01*
X738545Y702181D01*
X739230Y703835D01*
Y705625D01*
X738545Y707279D01*
X737279Y708545D01*
X735625Y709230D01*
D02*
G37*
G36*
X675625D02*
X673835D01*
X672181Y708545D01*
X670915Y707279D01*
X670230Y705625D01*
Y703835D01*
X670915Y702181D01*
X672181Y700915D01*
X673835Y700230D01*
X675625D01*
X677279Y700915D01*
X678545Y702181D01*
X679230Y703835D01*
Y705625D01*
X678545Y707279D01*
X677279Y708545D01*
X675625Y709230D01*
D02*
G37*
G36*
X315625D02*
X313835D01*
X312181Y708545D01*
X310915Y707279D01*
X310230Y705625D01*
Y703835D01*
X310915Y702181D01*
X312181Y700915D01*
X313835Y700230D01*
X315625D01*
X317279Y700915D01*
X318545Y702181D01*
X319230Y703835D01*
Y705625D01*
X318545Y707279D01*
X317279Y708545D01*
X315625Y709230D01*
D02*
G37*
G36*
X195625D02*
X193835D01*
X192181Y708545D01*
X190915Y707279D01*
X190230Y705625D01*
Y703835D01*
X190915Y702181D01*
X192181Y700915D01*
X193835Y700230D01*
X195625D01*
X197279Y700915D01*
X198545Y702181D01*
X199230Y703835D01*
Y705625D01*
X198545Y707279D01*
X197279Y708545D01*
X195625Y709230D01*
D02*
G37*
G36*
X75625D02*
X73835D01*
X72181Y708545D01*
X70915Y707279D01*
X70230Y705625D01*
Y703835D01*
X70915Y702181D01*
X72181Y700915D01*
X73835Y700230D01*
X75625D01*
X77279Y700915D01*
X78545Y702181D01*
X79230Y703835D01*
Y705625D01*
X78545Y707279D01*
X77279Y708545D01*
X75625Y709230D01*
D02*
G37*
G36*
X854616Y708221D02*
X852826D01*
X851172Y707536D01*
X849906Y706270D01*
X849221Y704616D01*
Y702826D01*
X849906Y701172D01*
X851172Y699906D01*
X852826Y699221D01*
X854616D01*
X856270Y699906D01*
X857536Y701172D01*
X858221Y702826D01*
Y704616D01*
X857536Y706270D01*
X856270Y707536D01*
X854616Y708221D01*
D02*
G37*
G36*
X121545Y672520D02*
X119755D01*
X118101Y671835D01*
X116835Y670569D01*
X116150Y668915D01*
Y667125D01*
X116835Y665471D01*
X118101Y664205D01*
X119755Y663520D01*
X121545D01*
X123199Y664205D01*
X124465Y665471D01*
X125150Y667125D01*
Y668915D01*
X124465Y670569D01*
X123199Y671835D01*
X121545Y672520D01*
D02*
G37*
G36*
X253625Y664900D02*
X251835D01*
X250181Y664215D01*
X248915Y662949D01*
X248230Y661295D01*
Y659505D01*
X248915Y657851D01*
X250181Y656585D01*
X251835Y655900D01*
X253625D01*
X255279Y656585D01*
X256545Y657851D01*
X257230Y659505D01*
Y661295D01*
X256545Y662949D01*
X255279Y664215D01*
X253625Y664900D01*
D02*
G37*
G36*
X510165Y661090D02*
X508375D01*
X506721Y660405D01*
X505455Y659139D01*
X504770Y657485D01*
Y655695D01*
X505455Y654041D01*
X506721Y652775D01*
X508375Y652090D01*
X510165D01*
X511819Y652775D01*
X513085Y654041D01*
X513770Y655695D01*
Y657485D01*
X513085Y659139D01*
X511819Y660405D01*
X510165Y661090D01*
D02*
G37*
G36*
X370465D02*
X368675D01*
X367021Y660405D01*
X365755Y659139D01*
X365070Y657485D01*
Y655695D01*
X365755Y654041D01*
X367021Y652775D01*
X368675Y652090D01*
X370465D01*
X372119Y652775D01*
X373385Y654041D01*
X374070Y655695D01*
Y657485D01*
X373385Y659139D01*
X372119Y660405D01*
X370465Y661090D01*
D02*
G37*
G36*
X565098Y668380D02*
X562662D01*
X560310Y667750D01*
X558200Y666532D01*
X556478Y664810D01*
X555260Y662700D01*
X554630Y660348D01*
Y657912D01*
X555260Y655560D01*
X556478Y653450D01*
X558200Y651728D01*
X560310Y650510D01*
X562662Y649880D01*
X565098D01*
X567450Y650510D01*
X569560Y651728D01*
X571282Y653450D01*
X572500Y655560D01*
X573130Y657912D01*
Y660348D01*
X572500Y662700D01*
X571282Y664810D01*
X569560Y666532D01*
X567450Y667750D01*
X565098Y668380D01*
D02*
G37*
G36*
X539698D02*
X537262D01*
X534910Y667750D01*
X532800Y666532D01*
X531078Y664810D01*
X529860Y662700D01*
X529230Y660348D01*
Y657912D01*
X529860Y655560D01*
X531078Y653450D01*
X532800Y651728D01*
X534910Y650510D01*
X537262Y649880D01*
X539698D01*
X542050Y650510D01*
X544160Y651728D01*
X545882Y653450D01*
X547100Y655560D01*
X547730Y657912D01*
Y660348D01*
X547100Y662700D01*
X545882Y664810D01*
X544160Y666532D01*
X542050Y667750D01*
X539698Y668380D01*
D02*
G37*
G36*
X429208D02*
X426772D01*
X424420Y667750D01*
X422310Y666532D01*
X420588Y664810D01*
X419370Y662700D01*
X418740Y660348D01*
Y657912D01*
X419370Y655560D01*
X420588Y653450D01*
X422310Y651728D01*
X424420Y650510D01*
X426772Y649880D01*
X429208D01*
X431560Y650510D01*
X433670Y651728D01*
X435392Y653450D01*
X436610Y655560D01*
X437240Y657912D01*
Y660348D01*
X436610Y662700D01*
X435392Y664810D01*
X433670Y666532D01*
X431560Y667750D01*
X429208Y668380D01*
D02*
G37*
G36*
X403808D02*
X401372D01*
X399020Y667750D01*
X396910Y666532D01*
X395188Y664810D01*
X393970Y662700D01*
X393340Y660348D01*
Y657912D01*
X393970Y655560D01*
X395188Y653450D01*
X396910Y651728D01*
X399020Y650510D01*
X401372Y649880D01*
X403808D01*
X406160Y650510D01*
X408270Y651728D01*
X409992Y653450D01*
X411210Y655560D01*
X411840Y657912D01*
Y660348D01*
X411210Y662700D01*
X409992Y664810D01*
X408270Y666532D01*
X406160Y667750D01*
X403808Y668380D01*
D02*
G37*
G36*
X335228D02*
X332792D01*
X330440Y667750D01*
X328330Y666532D01*
X326608Y664810D01*
X325390Y662700D01*
X324760Y660348D01*
Y657912D01*
X325390Y655560D01*
X326608Y653450D01*
X328330Y651728D01*
X330440Y650510D01*
X332792Y649880D01*
X335228D01*
X337580Y650510D01*
X339690Y651728D01*
X341412Y653450D01*
X342630Y655560D01*
X343260Y657912D01*
Y660348D01*
X342630Y662700D01*
X341412Y664810D01*
X339690Y666532D01*
X337580Y667750D01*
X335228Y668380D01*
D02*
G37*
G36*
X309828D02*
X307392D01*
X305040Y667750D01*
X302930Y666532D01*
X301208Y664810D01*
X299990Y662700D01*
X299360Y660348D01*
Y657912D01*
X299990Y655560D01*
X301208Y653450D01*
X302930Y651728D01*
X305040Y650510D01*
X307392Y649880D01*
X309828D01*
X312180Y650510D01*
X314290Y651728D01*
X316012Y653450D01*
X317230Y655560D01*
X317860Y657912D01*
Y660348D01*
X317230Y662700D01*
X316012Y664810D01*
X314290Y666532D01*
X312180Y667750D01*
X309828Y668380D01*
D02*
G37*
G36*
X292460D02*
X273960D01*
Y649880D01*
X292460D01*
Y668380D01*
D02*
G37*
G36*
X204418D02*
X201982D01*
X199630Y667750D01*
X197520Y666532D01*
X195798Y664810D01*
X194580Y662700D01*
X193950Y660348D01*
Y657912D01*
X194580Y655560D01*
X195798Y653450D01*
X197520Y651728D01*
X199630Y650510D01*
X201982Y649880D01*
X204418D01*
X206770Y650510D01*
X208880Y651728D01*
X210602Y653450D01*
X211820Y655560D01*
X212450Y657912D01*
Y660348D01*
X211820Y662700D01*
X210602Y664810D01*
X208880Y666532D01*
X206770Y667750D01*
X204418Y668380D01*
D02*
G37*
G36*
X179018D02*
X176582D01*
X174230Y667750D01*
X172120Y666532D01*
X170398Y664810D01*
X169180Y662700D01*
X168550Y660348D01*
Y657912D01*
X169180Y655560D01*
X170398Y653450D01*
X172120Y651728D01*
X174230Y650510D01*
X176582Y649880D01*
X179018D01*
X181370Y650510D01*
X183480Y651728D01*
X185202Y653450D01*
X186420Y655560D01*
X187050Y657912D01*
Y660348D01*
X186420Y662700D01*
X185202Y664810D01*
X183480Y666532D01*
X181370Y667750D01*
X179018Y668380D01*
D02*
G37*
G36*
X161650D02*
X143150D01*
Y649880D01*
X161650D01*
Y668380D01*
D02*
G37*
G36*
X865330Y668480D02*
X846630D01*
Y649780D01*
X865330D01*
Y668480D01*
D02*
G37*
G36*
X806411D02*
X803949D01*
X801571Y667843D01*
X799439Y666612D01*
X797698Y664871D01*
X796467Y662739D01*
X795830Y660361D01*
Y657899D01*
X796467Y655521D01*
X797698Y653389D01*
X799439Y651648D01*
X801571Y650417D01*
X803949Y649780D01*
X806411D01*
X808789Y650417D01*
X810921Y651648D01*
X812662Y653389D01*
X813893Y655521D01*
X814530Y657899D01*
Y660361D01*
X813893Y662739D01*
X812662Y664871D01*
X810921Y666612D01*
X808789Y667843D01*
X806411Y668480D01*
D02*
G37*
G36*
X789130D02*
X770430D01*
Y649780D01*
X789130D01*
Y668480D01*
D02*
G37*
G36*
X736561D02*
X734099D01*
X731721Y667843D01*
X729589Y666612D01*
X727848Y664871D01*
X726617Y662739D01*
X725980Y660361D01*
Y657899D01*
X726617Y655521D01*
X727848Y653389D01*
X729589Y651648D01*
X731721Y650417D01*
X734099Y649780D01*
X736561D01*
X738939Y650417D01*
X741071Y651648D01*
X742812Y653389D01*
X744043Y655521D01*
X744680Y657899D01*
Y660361D01*
X744043Y662739D01*
X742812Y664871D01*
X741071Y666612D01*
X738939Y667843D01*
X736561Y668480D01*
D02*
G37*
G36*
X657821D02*
X655359D01*
X652981Y667843D01*
X650849Y666612D01*
X649108Y664871D01*
X647877Y662739D01*
X647240Y660361D01*
Y657899D01*
X647877Y655521D01*
X649108Y653389D01*
X650849Y651648D01*
X652981Y650417D01*
X655359Y649780D01*
X657821D01*
X660199Y650417D01*
X662331Y651648D01*
X664072Y653389D01*
X665303Y655521D01*
X665940Y657899D01*
Y660361D01*
X665303Y662739D01*
X664072Y664871D01*
X662331Y666612D01*
X660199Y667843D01*
X657821Y668480D01*
D02*
G37*
G36*
X640540D02*
X621840D01*
Y649780D01*
X640540D01*
Y668480D01*
D02*
G37*
G36*
X825625Y649230D02*
X823835D01*
X822181Y648545D01*
X820915Y647279D01*
X820230Y645625D01*
Y643835D01*
X820915Y642181D01*
X822181Y640915D01*
X823835Y640230D01*
X825625D01*
X827279Y640915D01*
X828545Y642181D01*
X829230Y643835D01*
Y645625D01*
X828545Y647279D01*
X827279Y648545D01*
X825625Y649230D01*
D02*
G37*
G36*
X765625D02*
X763835D01*
X762181Y648545D01*
X760915Y647279D01*
X760230Y645625D01*
Y643835D01*
X760915Y642181D01*
X762181Y640915D01*
X763835Y640230D01*
X765625D01*
X767279Y640915D01*
X768545Y642181D01*
X769230Y643835D01*
Y645625D01*
X768545Y647279D01*
X767279Y648545D01*
X765625Y649230D01*
D02*
G37*
G36*
X719280Y668480D02*
X700580D01*
Y649780D01*
X701456D01*
X701604Y649528D01*
X701916Y648280D01*
X700915Y647279D01*
X700230Y645625D01*
Y643835D01*
X700915Y642181D01*
X702181Y640915D01*
X703835Y640230D01*
X705625D01*
X707279Y640915D01*
X708545Y642181D01*
X709230Y643835D01*
Y645625D01*
X708545Y647279D01*
X707544Y648280D01*
X707856Y649528D01*
X708004Y649780D01*
X719280D01*
Y668480D01*
D02*
G37*
G36*
X645625Y649230D02*
X643835D01*
X642181Y648545D01*
X640915Y647279D01*
X640230Y645625D01*
Y643835D01*
X640915Y642181D01*
X642181Y640915D01*
X643835Y640230D01*
X645625D01*
X647279Y640915D01*
X648545Y642181D01*
X649230Y643835D01*
Y645625D01*
X648545Y647279D01*
X647279Y648545D01*
X645625Y649230D01*
D02*
G37*
G36*
X598530Y668380D02*
X580030D01*
Y649880D01*
X581556D01*
X581895Y649155D01*
X582016Y648380D01*
X580915Y647279D01*
X580230Y645625D01*
Y643835D01*
X580915Y642181D01*
X582181Y640915D01*
X583835Y640230D01*
X585625D01*
X587279Y640915D01*
X588545Y642181D01*
X589230Y643835D01*
Y645625D01*
X588545Y647279D01*
X587444Y648380D01*
X587565Y649155D01*
X587904Y649880D01*
X598530D01*
Y668380D01*
D02*
G37*
G36*
X462640D02*
X444140D01*
Y649880D01*
X461336D01*
X461556Y649880D01*
X461895Y649155D01*
X461924Y648972D01*
X462016Y648380D01*
X460915Y647279D01*
X460230Y645625D01*
Y643835D01*
X460915Y642181D01*
X462181Y640915D01*
X463835Y640230D01*
X465625D01*
X467279Y640915D01*
X468545Y642181D01*
X469230Y643835D01*
Y645625D01*
X468545Y647279D01*
X467279Y648545D01*
X465625Y649230D01*
X464637D01*
X463255Y649778D01*
X463255Y649778D01*
X463255Y649778D01*
X463255Y649778D01*
X462640Y650359D01*
X462640Y650885D01*
Y668380D01*
D02*
G37*
G36*
X45625Y649230D02*
X43835D01*
X42181Y648545D01*
X40915Y647279D01*
X40230Y645625D01*
Y643835D01*
X40915Y642181D01*
X42181Y640915D01*
X43835Y640230D01*
X45625D01*
X47279Y640915D01*
X48545Y642181D01*
X49230Y643835D01*
Y645625D01*
X48545Y647279D01*
X47279Y648545D01*
X45625Y649230D01*
D02*
G37*
G36*
X491115Y635690D02*
X489325D01*
X487671Y635005D01*
X486405Y633739D01*
X485720Y632085D01*
Y630295D01*
X486405Y628641D01*
X487671Y627375D01*
X489325Y626690D01*
X491115D01*
X492769Y627375D01*
X494035Y628641D01*
X494720Y630295D01*
Y632085D01*
X494035Y633739D01*
X492769Y635005D01*
X491115Y635690D01*
D02*
G37*
G36*
X361487Y635237D02*
X359697D01*
X358042Y634552D01*
X356777Y633286D01*
X356092Y631632D01*
Y629842D01*
X356777Y628188D01*
X358042Y626922D01*
X359697Y626237D01*
X361487D01*
X363141Y626922D01*
X364407Y628188D01*
X365092Y629842D01*
Y631632D01*
X364407Y633286D01*
X363141Y634552D01*
X361487Y635237D01*
D02*
G37*
G36*
X235845Y634420D02*
X234055D01*
X232401Y633735D01*
X231135Y632469D01*
X230450Y630815D01*
Y629025D01*
X231135Y627371D01*
X232401Y626105D01*
X234055Y625420D01*
X235845D01*
X237499Y626105D01*
X238765Y627371D01*
X239450Y629025D01*
Y630815D01*
X238765Y632469D01*
X237499Y633735D01*
X235845Y634420D01*
D02*
G37*
G36*
X93605Y630610D02*
X91815D01*
X90161Y629925D01*
X88895Y628659D01*
X88210Y627005D01*
Y625215D01*
X88895Y623561D01*
X90161Y622295D01*
X91815Y621610D01*
X93605D01*
X95259Y622295D01*
X96525Y623561D01*
X97210Y625215D01*
Y627005D01*
X96525Y628659D01*
X95259Y629925D01*
X93605Y630610D01*
D02*
G37*
G36*
X502545Y625530D02*
X500755D01*
X499101Y624845D01*
X497835Y623579D01*
X497150Y621925D01*
Y620135D01*
X497835Y618481D01*
X499101Y617215D01*
X500755Y616530D01*
X502545D01*
X504199Y617215D01*
X505465Y618481D01*
X506150Y620135D01*
Y621925D01*
X505465Y623579D01*
X504199Y624845D01*
X502545Y625530D01*
D02*
G37*
G36*
X371348Y623617D02*
X369558D01*
X367904Y622932D01*
X366638Y621666D01*
X365953Y620013D01*
Y618222D01*
X366638Y616568D01*
X367904Y615303D01*
X369558Y614617D01*
X371348D01*
X373002Y615303D01*
X374268Y616568D01*
X374953Y618222D01*
Y620013D01*
X374268Y621666D01*
X373002Y622932D01*
X371348Y623617D01*
D02*
G37*
G36*
X246005Y620450D02*
X244215D01*
X242561Y619765D01*
X241295Y618499D01*
X240610Y616845D01*
Y615055D01*
X241295Y613401D01*
X242561Y612135D01*
X244215Y611450D01*
X246005D01*
X247659Y612135D01*
X248925Y613401D01*
X249610Y615055D01*
Y616845D01*
X248925Y618499D01*
X247659Y619765D01*
X246005Y620450D01*
D02*
G37*
G36*
X103765Y616640D02*
X101975D01*
X100321Y615955D01*
X99055Y614689D01*
X98370Y613035D01*
Y611245D01*
X99055Y609591D01*
X100321Y608325D01*
X101975Y607640D01*
X103765D01*
X105419Y608325D01*
X106685Y609591D01*
X107370Y611245D01*
Y613035D01*
X106685Y614689D01*
X105419Y615955D01*
X103765Y616640D01*
D02*
G37*
G36*
X435625Y589230D02*
X433835D01*
X432181Y588545D01*
X430915Y587279D01*
X430347Y585908D01*
X429371Y585051D01*
X429036Y584827D01*
X428885Y584890D01*
X427095D01*
X425441Y584205D01*
X424175Y582939D01*
X423490Y581285D01*
Y579495D01*
X424175Y577841D01*
X425441Y576575D01*
X427095Y575890D01*
X428885D01*
X430539Y576575D01*
X431805Y577841D01*
X432373Y579212D01*
X433349Y580069D01*
X433684Y580293D01*
X433835Y580230D01*
X435625D01*
X437279Y580915D01*
X438545Y582181D01*
X439230Y583835D01*
Y585625D01*
X438545Y587279D01*
X437279Y588545D01*
X435625Y589230D01*
D02*
G37*
G36*
X855625D02*
X853835D01*
X852181Y588545D01*
X850915Y587279D01*
X850230Y585625D01*
Y583835D01*
X850915Y582181D01*
X852181Y580915D01*
X853835Y580230D01*
X855625D01*
X857279Y580915D01*
X858545Y582181D01*
X859230Y583835D01*
Y585625D01*
X858545Y587279D01*
X857279Y588545D01*
X855625Y589230D01*
D02*
G37*
G36*
X615625D02*
X613835D01*
X612181Y588545D01*
X610915Y587279D01*
X610230Y585625D01*
Y583835D01*
X610915Y582181D01*
X612181Y580915D01*
X613835Y580230D01*
X615625D01*
X617279Y580915D01*
X618545Y582181D01*
X619230Y583835D01*
Y585625D01*
X618545Y587279D01*
X617279Y588545D01*
X615625Y589230D01*
D02*
G37*
G36*
X315625D02*
X313835D01*
X312181Y588545D01*
X310915Y587279D01*
X310230Y585625D01*
Y583835D01*
X310915Y582181D01*
X312181Y580915D01*
X313835Y580230D01*
X315625D01*
X317279Y580915D01*
X318545Y582181D01*
X319230Y583835D01*
Y585625D01*
X318545Y587279D01*
X317279Y588545D01*
X315625Y589230D01*
D02*
G37*
G36*
X195625D02*
X193835D01*
X192181Y588545D01*
X190915Y587279D01*
X190230Y585625D01*
Y583835D01*
X190915Y582181D01*
X192181Y580915D01*
X193835Y580230D01*
X195625D01*
X197279Y580915D01*
X198545Y582181D01*
X199230Y583835D01*
Y585625D01*
X198545Y587279D01*
X197279Y588545D01*
X195625Y589230D01*
D02*
G37*
G36*
X329825Y587430D02*
X328035D01*
X326381Y586745D01*
X325115Y585479D01*
X324430Y583825D01*
Y582035D01*
X325115Y580381D01*
X326381Y579115D01*
X328035Y578430D01*
X329825D01*
X331479Y579115D01*
X332745Y580381D01*
X333430Y582035D01*
Y583825D01*
X332745Y585479D01*
X331479Y586745D01*
X329825Y587430D01*
D02*
G37*
G36*
X456825Y584890D02*
X455035D01*
X453381Y584205D01*
X452115Y582939D01*
X451430Y581285D01*
Y579495D01*
X452115Y577841D01*
X453381Y576575D01*
X455035Y575890D01*
X456825D01*
X458479Y576575D01*
X459745Y577841D01*
X460430Y579495D01*
Y581285D01*
X459745Y582939D01*
X458479Y584205D01*
X456825Y584890D01*
D02*
G37*
G36*
X397135Y583620D02*
X395345D01*
X393691Y582935D01*
X392425Y581669D01*
X391740Y580015D01*
Y578225D01*
X392425Y576571D01*
X393691Y575305D01*
X395345Y574620D01*
X397135D01*
X398789Y575305D01*
X400055Y576571D01*
X400740Y578225D01*
Y580015D01*
X400055Y581669D01*
X398789Y582935D01*
X397135Y583620D01*
D02*
G37*
G36*
X569855Y582350D02*
X568065D01*
X566411Y581665D01*
X565145Y580399D01*
X564460Y578745D01*
Y576955D01*
X565145Y575301D01*
X566411Y574035D01*
X568065Y573350D01*
X569855D01*
X571509Y574035D01*
X572775Y575301D01*
X573460Y576955D01*
Y578745D01*
X572775Y580399D01*
X571509Y581665D01*
X569855Y582350D01*
D02*
G37*
G36*
X555625Y589230D02*
X553835D01*
X552181Y588545D01*
X550915Y587279D01*
X550230Y585625D01*
Y583835D01*
X549222Y582350D01*
X549015D01*
X547361Y581665D01*
X546095Y580399D01*
X545410Y578745D01*
Y576955D01*
X546095Y575301D01*
X547361Y574035D01*
X549015Y573350D01*
X550805D01*
X552459Y574035D01*
X553725Y575301D01*
X554410Y576955D01*
Y578745D01*
X555419Y580230D01*
X555625D01*
X557279Y580915D01*
X558545Y582181D01*
X559230Y583835D01*
Y585625D01*
X558545Y587279D01*
X557279Y588545D01*
X555625Y589230D01*
D02*
G37*
G36*
X530485Y582350D02*
X528695D01*
X527041Y581665D01*
X525775Y580399D01*
X525090Y578745D01*
Y576955D01*
X525775Y575301D01*
X527041Y574035D01*
X528695Y573350D01*
X530485D01*
X532139Y574035D01*
X533405Y575301D01*
X534090Y576955D01*
Y578745D01*
X533405Y580399D01*
X532139Y581665D01*
X530485Y582350D01*
D02*
G37*
G36*
X267595D02*
X265805D01*
X264151Y581665D01*
X262885Y580399D01*
X262200Y578745D01*
Y576955D01*
X262885Y575301D01*
X264151Y574035D01*
X265805Y573350D01*
X267595D01*
X269249Y574035D01*
X270515Y575301D01*
X271200Y576955D01*
Y578745D01*
X270515Y580399D01*
X269249Y581665D01*
X267595Y582350D01*
D02*
G37*
G36*
X293000Y582341D02*
X291210D01*
X289556Y581656D01*
X288290Y580390D01*
X287605Y578736D01*
Y576946D01*
X288290Y575292D01*
X289556Y574026D01*
X291210Y573341D01*
X293000D01*
X294654Y574026D01*
X295920Y575292D01*
X296605Y576946D01*
Y578736D01*
X295920Y580390D01*
X294654Y581656D01*
X293000Y582341D01*
D02*
G37*
G36*
X135515Y579810D02*
X133725D01*
X132071Y579125D01*
X130805Y577859D01*
X130120Y576205D01*
Y574415D01*
X130805Y572761D01*
X132071Y571495D01*
X133725Y570810D01*
X135515D01*
X137169Y571495D01*
X138435Y572761D01*
X139120Y574415D01*
Y576205D01*
X138435Y577859D01*
X137169Y579125D01*
X135515Y579810D01*
D02*
G37*
G36*
X199015Y578540D02*
X197225D01*
X195571Y577855D01*
X194305Y576589D01*
X193620Y574935D01*
Y573145D01*
X194305Y571491D01*
X195571Y570225D01*
X197225Y569540D01*
X199015D01*
X200669Y570225D01*
X201935Y571491D01*
X202620Y573145D01*
Y574935D01*
X201935Y576589D01*
X200669Y577855D01*
X199015Y578540D01*
D02*
G37*
G36*
X168535D02*
X166745D01*
X165091Y577855D01*
X163825Y576589D01*
X163140Y574935D01*
Y573145D01*
X163825Y571491D01*
X165091Y570225D01*
X166745Y569540D01*
X168535D01*
X170189Y570225D01*
X171455Y571491D01*
X172140Y573145D01*
Y574935D01*
X171455Y576589D01*
X170189Y577855D01*
X168535Y578540D01*
D02*
G37*
G36*
X498735Y577270D02*
X496945D01*
X495291Y576585D01*
X494025Y575319D01*
X493340Y573665D01*
Y571875D01*
X494025Y570221D01*
X495291Y568955D01*
X496945Y568270D01*
X498735D01*
X500389Y568955D01*
X501655Y570221D01*
X502340Y571875D01*
Y573665D01*
X501655Y575319D01*
X500389Y576585D01*
X498735Y577270D01*
D02*
G37*
G36*
X365625D02*
X363835D01*
X362181Y576585D01*
X360915Y575319D01*
X360230Y573665D01*
Y571875D01*
X360915Y570221D01*
X362181Y568955D01*
X363835Y568270D01*
X365625D01*
X367279Y568955D01*
X368545Y570221D01*
X369230Y571875D01*
Y573665D01*
X368545Y575319D01*
X367279Y576585D01*
X365625Y577270D01*
D02*
G37*
G36*
X238385D02*
X236595D01*
X234941Y576585D01*
X233675Y575319D01*
X232990Y573665D01*
Y571875D01*
X233675Y570221D01*
X234941Y568955D01*
X236595Y568270D01*
X238385D01*
X240039Y568955D01*
X241305Y570221D01*
X241990Y571875D01*
Y573665D01*
X241305Y575319D01*
X240039Y576585D01*
X238385Y577270D01*
D02*
G37*
G36*
X96145D02*
X94355D01*
X92701Y576585D01*
X91435Y575319D01*
X90750Y573665D01*
Y571875D01*
X91435Y570221D01*
X92701Y568955D01*
X94355Y568270D01*
X96145D01*
X97799Y568955D01*
X99065Y570221D01*
X99750Y571875D01*
Y573665D01*
X99065Y575319D01*
X97799Y576585D01*
X96145Y577270D01*
D02*
G37*
G36*
X66935Y576000D02*
X65145D01*
X63491Y575315D01*
X62225Y574049D01*
X61540Y572395D01*
Y570605D01*
X62225Y568951D01*
X63491Y567685D01*
X65145Y567000D01*
X66935D01*
X68589Y567685D01*
X69855Y568951D01*
X70540Y570605D01*
Y572395D01*
X69855Y574049D01*
X68589Y575315D01*
X66935Y576000D01*
D02*
G37*
G36*
Y558220D02*
X65145D01*
X63491Y557535D01*
X62225Y556269D01*
X61540Y554615D01*
Y552825D01*
X62225Y551171D01*
X63491Y549905D01*
X65145Y549220D01*
X66935D01*
X68589Y549905D01*
X69855Y551171D01*
X70540Y552825D01*
Y554615D01*
X69855Y556269D01*
X68589Y557535D01*
X66935Y558220D01*
D02*
G37*
G36*
X456825Y542980D02*
X455035D01*
X453381Y542295D01*
X452115Y541029D01*
X451430Y539375D01*
Y537585D01*
X452115Y535931D01*
X453381Y534665D01*
X455035Y533980D01*
X456825D01*
X458479Y534665D01*
X459745Y535931D01*
X460430Y537585D01*
Y539375D01*
X459745Y541029D01*
X458479Y542295D01*
X456825Y542980D01*
D02*
G37*
G36*
X324745Y540440D02*
X322955D01*
X321301Y539755D01*
X320035Y538489D01*
X319350Y536835D01*
Y535045D01*
X320035Y533391D01*
X321301Y532125D01*
X322955Y531440D01*
X324745D01*
X326399Y532125D01*
X327665Y533391D01*
X328350Y535045D01*
Y536835D01*
X327665Y538489D01*
X326399Y539755D01*
X324745Y540440D01*
D02*
G37*
G36*
X197745Y539170D02*
X195955D01*
X194301Y538485D01*
X193035Y537219D01*
X192350Y535565D01*
Y533775D01*
X193035Y532121D01*
X194301Y530855D01*
X195955Y530170D01*
X197745D01*
X199399Y530855D01*
X200665Y532121D01*
X201350Y533775D01*
Y535565D01*
X200665Y537219D01*
X199399Y538485D01*
X197745Y539170D01*
D02*
G37*
G36*
X825625Y529230D02*
X823835D01*
X822181Y528545D01*
X820915Y527279D01*
X820230Y525625D01*
Y523835D01*
X820915Y522181D01*
X822181Y520915D01*
X823835Y520230D01*
X825625D01*
X827279Y520915D01*
X828545Y522181D01*
X829230Y523835D01*
Y525625D01*
X828545Y527279D01*
X827279Y528545D01*
X825625Y529230D01*
D02*
G37*
G36*
X705625D02*
X703835D01*
X702181Y528545D01*
X700915Y527279D01*
X700230Y525625D01*
Y523835D01*
X700915Y522181D01*
X702181Y520915D01*
X703835Y520230D01*
X705625D01*
X707279Y520915D01*
X708545Y522181D01*
X709230Y523835D01*
Y525625D01*
X708545Y527279D01*
X707279Y528545D01*
X705625Y529230D01*
D02*
G37*
G36*
X525625D02*
X523835D01*
X522181Y528545D01*
X520915Y527279D01*
X520230Y525625D01*
Y523835D01*
X520915Y522181D01*
X522181Y520915D01*
X523835Y520230D01*
X525625D01*
X527279Y520915D01*
X528545Y522181D01*
X529230Y523835D01*
Y525625D01*
X528545Y527279D01*
X527279Y528545D01*
X525625Y529230D01*
D02*
G37*
G36*
X465625D02*
X463835D01*
X462181Y528545D01*
X460915Y527279D01*
X460230Y525625D01*
Y523835D01*
X460915Y522181D01*
X462181Y520915D01*
X463835Y520230D01*
X465625D01*
X467279Y520915D01*
X468545Y522181D01*
X469230Y523835D01*
Y525625D01*
X468545Y527279D01*
X467279Y528545D01*
X465625Y529230D01*
D02*
G37*
G36*
X405625D02*
X403835D01*
X402181Y528545D01*
X400915Y527279D01*
X400230Y525625D01*
Y523835D01*
X400915Y522181D01*
X402181Y520915D01*
X403835Y520230D01*
X405625D01*
X407279Y520915D01*
X408545Y522181D01*
X409230Y523835D01*
Y525625D01*
X408545Y527279D01*
X407279Y528545D01*
X405625Y529230D01*
D02*
G37*
G36*
X285625D02*
X283835D01*
X282181Y528545D01*
X280915Y527279D01*
X280230Y525625D01*
Y523835D01*
X280915Y522181D01*
X282181Y520915D01*
X283835Y520230D01*
X285625D01*
X287279Y520915D01*
X288545Y522181D01*
X289230Y523835D01*
Y525625D01*
X288545Y527279D01*
X287279Y528545D01*
X285625Y529230D01*
D02*
G37*
G36*
X225625D02*
X223835D01*
X222181Y528545D01*
X220915Y527279D01*
X220230Y525625D01*
Y523835D01*
X220915Y522181D01*
X222181Y520915D01*
X223835Y520230D01*
X225625D01*
X227279Y520915D01*
X228545Y522181D01*
X229230Y523835D01*
Y525625D01*
X228545Y527279D01*
X227279Y528545D01*
X225625Y529230D01*
D02*
G37*
G36*
X45625D02*
X43835D01*
X42181Y528545D01*
X40915Y527279D01*
X40230Y525625D01*
Y523835D01*
X40915Y522181D01*
X42181Y520915D01*
X43835Y520230D01*
X45625D01*
X47279Y520915D01*
X48545Y522181D01*
X49230Y523835D01*
Y525625D01*
X48545Y527279D01*
X47279Y528545D01*
X45625Y529230D01*
D02*
G37*
G36*
X615625Y469230D02*
X613835D01*
X612181Y468545D01*
X610915Y467279D01*
X610230Y465625D01*
Y463835D01*
X610915Y462181D01*
X612181Y460915D01*
X613835Y460230D01*
X615625D01*
X617279Y460915D01*
X618545Y462181D01*
X619230Y463835D01*
Y465625D01*
X618545Y467279D01*
X617279Y468545D01*
X615625Y469230D01*
D02*
G37*
G36*
X375625D02*
X373835D01*
X372181Y468545D01*
X370915Y467279D01*
X370230Y465625D01*
Y463835D01*
X370915Y462181D01*
X372181Y460915D01*
X373835Y460230D01*
X375625D01*
X377279Y460915D01*
X378545Y462181D01*
X379230Y463835D01*
Y465625D01*
X378545Y467279D01*
X377279Y468545D01*
X375625Y469230D01*
D02*
G37*
G36*
X315625D02*
X313835D01*
X312181Y468545D01*
X310915Y467279D01*
X310230Y465625D01*
Y463835D01*
X310915Y462181D01*
X312181Y460915D01*
X313835Y460230D01*
X315625D01*
X317279Y460915D01*
X318545Y462181D01*
X319230Y463835D01*
Y465625D01*
X318545Y467279D01*
X317279Y468545D01*
X315625Y469230D01*
D02*
G37*
G36*
X255625D02*
X253835D01*
X252181Y468545D01*
X250915Y467279D01*
X250230Y465625D01*
Y463835D01*
X250915Y462181D01*
X252181Y460915D01*
X253835Y460230D01*
X255625D01*
X257279Y460915D01*
X258545Y462181D01*
X259230Y463835D01*
Y465625D01*
X258545Y467279D01*
X257279Y468545D01*
X255625Y469230D01*
D02*
G37*
G36*
X135625D02*
X133835D01*
X132181Y468545D01*
X130915Y467279D01*
X130230Y465625D01*
Y463835D01*
X130915Y462181D01*
X132181Y460915D01*
X133835Y460230D01*
X135625D01*
X137279Y460915D01*
X138545Y462181D01*
X139230Y463835D01*
Y465625D01*
X138545Y467279D01*
X137279Y468545D01*
X135625Y469230D01*
D02*
G37*
G36*
X75625D02*
X73835D01*
X72181Y468545D01*
X70915Y467279D01*
X70230Y465625D01*
Y463835D01*
X70915Y462181D01*
X72181Y460915D01*
X73835Y460230D01*
X75625D01*
X77279Y460915D01*
X78545Y462181D01*
X79230Y463835D01*
Y465625D01*
X78545Y467279D01*
X77279Y468545D01*
X75625Y469230D01*
D02*
G37*
G36*
X705310Y429720D02*
X686610D01*
Y411020D01*
X705310D01*
Y429720D01*
D02*
G37*
G36*
X676100D02*
X657400D01*
Y411020D01*
X676100D01*
Y429720D01*
D02*
G37*
G36*
X638771D02*
X636309D01*
X633931Y429083D01*
X631799Y427852D01*
X630058Y426111D01*
X628827Y423979D01*
X628190Y421601D01*
Y419139D01*
X628827Y416761D01*
X630058Y414629D01*
X631799Y412888D01*
X633931Y411657D01*
X636309Y411020D01*
X638771D01*
X641149Y411657D01*
X643281Y412888D01*
X645022Y414629D01*
X646253Y416761D01*
X646890Y419139D01*
Y421601D01*
X646253Y423979D01*
X645022Y426111D01*
X643281Y427852D01*
X641149Y429083D01*
X638771Y429720D01*
D02*
G37*
G36*
X609561D02*
X607099D01*
X604721Y429083D01*
X602589Y427852D01*
X600848Y426111D01*
X599617Y423979D01*
X598980Y421601D01*
Y419139D01*
X599617Y416761D01*
X600848Y414629D01*
X602589Y412888D01*
X604721Y411657D01*
X607099Y411020D01*
X609561D01*
X611939Y411657D01*
X614071Y412888D01*
X615812Y414629D01*
X617043Y416761D01*
X617680Y419139D01*
Y421601D01*
X617043Y423979D01*
X615812Y426111D01*
X614071Y427852D01*
X611939Y429083D01*
X609561Y429720D01*
D02*
G37*
G36*
X580351D02*
X577889D01*
X575511Y429083D01*
X573379Y427852D01*
X571638Y426111D01*
X570407Y423979D01*
X569770Y421601D01*
Y419139D01*
X570407Y416761D01*
X571638Y414629D01*
X573379Y412888D01*
X575511Y411657D01*
X577889Y411020D01*
X580351D01*
X582729Y411657D01*
X584861Y412888D01*
X586602Y414629D01*
X587833Y416761D01*
X588470Y419139D01*
Y421601D01*
X587833Y423979D01*
X586602Y426111D01*
X584861Y427852D01*
X582729Y429083D01*
X580351Y429720D01*
D02*
G37*
G36*
X551141D02*
X548679D01*
X546301Y429083D01*
X544169Y427852D01*
X542428Y426111D01*
X541197Y423979D01*
X540560Y421601D01*
Y419139D01*
X541197Y416761D01*
X542428Y414629D01*
X544169Y412888D01*
X546301Y411657D01*
X548679Y411020D01*
X551141D01*
X553519Y411657D01*
X555651Y412888D01*
X557392Y414629D01*
X558623Y416761D01*
X559260Y419139D01*
Y421601D01*
X558623Y423979D01*
X557392Y426111D01*
X555651Y427852D01*
X553519Y429083D01*
X551141Y429720D01*
D02*
G37*
G36*
X521931D02*
X519469D01*
X517091Y429083D01*
X514959Y427852D01*
X513218Y426111D01*
X511987Y423979D01*
X511350Y421601D01*
Y419139D01*
X511987Y416761D01*
X513218Y414629D01*
X514959Y412888D01*
X517091Y411657D01*
X519469Y411020D01*
X521931D01*
X524309Y411657D01*
X526441Y412888D01*
X528182Y414629D01*
X529413Y416761D01*
X530050Y419139D01*
Y421601D01*
X529413Y423979D01*
X528182Y426111D01*
X526441Y427852D01*
X524309Y429083D01*
X521931Y429720D01*
D02*
G37*
G36*
X492721D02*
X490259D01*
X487881Y429083D01*
X485749Y427852D01*
X484008Y426111D01*
X482777Y423979D01*
X482140Y421601D01*
Y419139D01*
X482777Y416761D01*
X484008Y414629D01*
X485749Y412888D01*
X487881Y411657D01*
X490259Y411020D01*
X492721D01*
X495099Y411657D01*
X497231Y412888D01*
X498972Y414629D01*
X500203Y416761D01*
X500840Y419139D01*
Y421601D01*
X500203Y423979D01*
X498972Y426111D01*
X497231Y427852D01*
X495099Y429083D01*
X492721Y429720D01*
D02*
G37*
G36*
X463511D02*
X461049D01*
X458671Y429083D01*
X456539Y427852D01*
X454798Y426111D01*
X453567Y423979D01*
X452930Y421601D01*
Y419139D01*
X453567Y416761D01*
X454798Y414629D01*
X456539Y412888D01*
X458671Y411657D01*
X461049Y411020D01*
X463511D01*
X465889Y411657D01*
X468021Y412888D01*
X469762Y414629D01*
X470993Y416761D01*
X471630Y419139D01*
Y421601D01*
X470993Y423979D01*
X469762Y426111D01*
X468021Y427852D01*
X465889Y429083D01*
X463511Y429720D01*
D02*
G37*
G36*
X434301D02*
X431839D01*
X429461Y429083D01*
X427329Y427852D01*
X425588Y426111D01*
X424357Y423979D01*
X423720Y421601D01*
Y419139D01*
X424357Y416761D01*
X425588Y414629D01*
X427329Y412888D01*
X429461Y411657D01*
X431839Y411020D01*
X434301D01*
X436679Y411657D01*
X438811Y412888D01*
X440552Y414629D01*
X441783Y416761D01*
X442420Y419139D01*
Y421601D01*
X441783Y423979D01*
X440552Y426111D01*
X438811Y427852D01*
X436679Y429083D01*
X434301Y429720D01*
D02*
G37*
G36*
X405091D02*
X402629D01*
X400251Y429083D01*
X398119Y427852D01*
X396378Y426111D01*
X395147Y423979D01*
X394510Y421601D01*
Y419139D01*
X395147Y416761D01*
X396378Y414629D01*
X398119Y412888D01*
X400251Y411657D01*
X402629Y411020D01*
X405091D01*
X407469Y411657D01*
X409601Y412888D01*
X411342Y414629D01*
X412573Y416761D01*
X413210Y419139D01*
Y421601D01*
X412573Y423979D01*
X411342Y426111D01*
X409601Y427852D01*
X407469Y429083D01*
X405091Y429720D01*
D02*
G37*
G36*
X375881D02*
X373419D01*
X371041Y429083D01*
X368909Y427852D01*
X367168Y426111D01*
X365937Y423979D01*
X365300Y421601D01*
Y419139D01*
X365937Y416761D01*
X367168Y414629D01*
X368909Y412888D01*
X371041Y411657D01*
X373419Y411020D01*
X375881D01*
X378259Y411657D01*
X380391Y412888D01*
X382132Y414629D01*
X383363Y416761D01*
X384000Y419139D01*
Y421601D01*
X383363Y423979D01*
X382132Y426111D01*
X380391Y427852D01*
X378259Y429083D01*
X375881Y429720D01*
D02*
G37*
G36*
X346671D02*
X344209D01*
X341831Y429083D01*
X339699Y427852D01*
X337958Y426111D01*
X336727Y423979D01*
X336090Y421601D01*
Y419139D01*
X336727Y416761D01*
X337958Y414629D01*
X339699Y412888D01*
X341831Y411657D01*
X344209Y411020D01*
X346671D01*
X349049Y411657D01*
X351181Y412888D01*
X352922Y414629D01*
X354153Y416761D01*
X354790Y419139D01*
Y421601D01*
X354153Y423979D01*
X352922Y426111D01*
X351181Y427852D01*
X349049Y429083D01*
X346671Y429720D01*
D02*
G37*
G36*
X317461D02*
X314999D01*
X312621Y429083D01*
X310489Y427852D01*
X308748Y426111D01*
X307517Y423979D01*
X306880Y421601D01*
Y419139D01*
X307517Y416761D01*
X308748Y414629D01*
X310489Y412888D01*
X312621Y411657D01*
X314999Y411020D01*
X317461D01*
X319839Y411657D01*
X321971Y412888D01*
X323712Y414629D01*
X324943Y416761D01*
X325580Y419139D01*
Y421601D01*
X324943Y423979D01*
X323712Y426111D01*
X321971Y427852D01*
X319839Y429083D01*
X317461Y429720D01*
D02*
G37*
G36*
X288251D02*
X285789D01*
X283411Y429083D01*
X281279Y427852D01*
X279538Y426111D01*
X278307Y423979D01*
X277670Y421601D01*
Y419139D01*
X278307Y416761D01*
X279538Y414629D01*
X281279Y412888D01*
X283411Y411657D01*
X285789Y411020D01*
X288251D01*
X290629Y411657D01*
X292761Y412888D01*
X294502Y414629D01*
X295733Y416761D01*
X296370Y419139D01*
Y421601D01*
X295733Y423979D01*
X294502Y426111D01*
X292761Y427852D01*
X290629Y429083D01*
X288251Y429720D01*
D02*
G37*
G36*
X267160D02*
X248460D01*
Y411020D01*
X267160D01*
Y429720D01*
D02*
G37*
G36*
X229831D02*
X227369D01*
X224991Y429083D01*
X222859Y427852D01*
X221118Y426111D01*
X219887Y423979D01*
X219250Y421601D01*
Y419139D01*
X219887Y416761D01*
X221118Y414629D01*
X222859Y412888D01*
X224991Y411657D01*
X227369Y411020D01*
X229831D01*
X232209Y411657D01*
X234341Y412888D01*
X236082Y414629D01*
X237313Y416761D01*
X237950Y419139D01*
Y421601D01*
X237313Y423979D01*
X236082Y426111D01*
X234341Y427852D01*
X232209Y429083D01*
X229831Y429720D01*
D02*
G37*
G36*
X208740D02*
X190040D01*
Y411020D01*
X208740D01*
Y429720D01*
D02*
G37*
G36*
X171411D02*
X168949D01*
X166571Y429083D01*
X164439Y427852D01*
X162698Y426111D01*
X161467Y423979D01*
X160830Y421601D01*
Y419139D01*
X161467Y416761D01*
X162698Y414629D01*
X164439Y412888D01*
X166571Y411657D01*
X168949Y411020D01*
X171411D01*
X173789Y411657D01*
X175921Y412888D01*
X177662Y414629D01*
X178893Y416761D01*
X179530Y419139D01*
Y421601D01*
X178893Y423979D01*
X177662Y426111D01*
X175921Y427852D01*
X173789Y429083D01*
X171411Y429720D01*
D02*
G37*
G36*
X150320D02*
X131620D01*
Y411020D01*
X150320D01*
Y429720D01*
D02*
G37*
G36*
X112991D02*
X110529D01*
X108151Y429083D01*
X106019Y427852D01*
X104278Y426111D01*
X103047Y423979D01*
X102410Y421601D01*
Y419139D01*
X103047Y416761D01*
X104278Y414629D01*
X106019Y412888D01*
X108151Y411657D01*
X110529Y411020D01*
X112991D01*
X115369Y411657D01*
X117501Y412888D01*
X119242Y414629D01*
X120473Y416761D01*
X121110Y419139D01*
Y421601D01*
X120473Y423979D01*
X119242Y426111D01*
X117501Y427852D01*
X115369Y429083D01*
X112991Y429720D01*
D02*
G37*
G36*
X91900D02*
X73200D01*
Y411020D01*
X91900D01*
Y429720D01*
D02*
G37*
G36*
X54571D02*
X52109D01*
X49731Y429083D01*
X47599Y427852D01*
X45858Y426111D01*
X44627Y423979D01*
X43990Y421601D01*
Y419139D01*
X44627Y416761D01*
X45858Y414629D01*
X47599Y412888D01*
X49731Y411657D01*
X52109Y411020D01*
X54571D01*
X56949Y411657D01*
X59081Y412888D01*
X60822Y414629D01*
X62053Y416761D01*
X62690Y419139D01*
Y421601D01*
X62053Y423979D01*
X60822Y426111D01*
X59081Y427852D01*
X56949Y429083D01*
X54571Y429720D01*
D02*
G37*
G36*
X705625Y409230D02*
X703835D01*
X702181Y408545D01*
X700915Y407279D01*
X700230Y405625D01*
Y404994D01*
X700175Y404885D01*
X698730Y403908D01*
X697191Y404320D01*
X694729D01*
X692351Y403683D01*
X690219Y402452D01*
X688478Y400711D01*
X687247Y398579D01*
X686610Y396201D01*
Y393739D01*
X687247Y391361D01*
X688478Y389229D01*
X690219Y387488D01*
X692351Y386257D01*
X694729Y385620D01*
X697191D01*
X699569Y386257D01*
X701701Y387488D01*
X703442Y389229D01*
X704673Y391361D01*
X705310Y393739D01*
Y396201D01*
X704673Y398579D01*
X704586Y398730D01*
X705452Y400230D01*
X705625D01*
X707279Y400915D01*
X708545Y402181D01*
X709230Y403835D01*
Y405625D01*
X708545Y407279D01*
X707279Y408545D01*
X705625Y409230D01*
D02*
G37*
G36*
X667981Y404320D02*
X665519D01*
X663141Y403683D01*
X661009Y402452D01*
X659268Y400711D01*
X658037Y398579D01*
X657400Y396201D01*
Y393739D01*
X658037Y391361D01*
X659268Y389229D01*
X661009Y387488D01*
X663141Y386257D01*
X665519Y385620D01*
X667981D01*
X670359Y386257D01*
X672491Y387488D01*
X674232Y389229D01*
X675463Y391361D01*
X676100Y393739D01*
Y396201D01*
X675463Y398579D01*
X674232Y400711D01*
X672491Y402452D01*
X670359Y403683D01*
X667981Y404320D01*
D02*
G37*
G36*
X646890D02*
X628190D01*
Y385620D01*
X646890D01*
Y404320D01*
D02*
G37*
G36*
X617680D02*
X598980D01*
Y385620D01*
X617680D01*
Y404320D01*
D02*
G37*
G36*
X588470D02*
X569770D01*
Y385620D01*
X588470D01*
Y404320D01*
D02*
G37*
G36*
X559260D02*
X540560D01*
Y385620D01*
X559260D01*
Y404320D01*
D02*
G37*
G36*
X530050D02*
X511350D01*
Y385620D01*
X530050D01*
Y404320D01*
D02*
G37*
G36*
X500840D02*
X482140D01*
Y385620D01*
X500840D01*
Y404320D01*
D02*
G37*
G36*
X471630D02*
X452930D01*
Y385620D01*
X471630D01*
Y404320D01*
D02*
G37*
G36*
X442420D02*
X423720D01*
Y385620D01*
X442420D01*
Y404320D01*
D02*
G37*
G36*
X413210D02*
X394510D01*
Y385620D01*
X413210D01*
Y404320D01*
D02*
G37*
G36*
X384000D02*
X365300D01*
Y385620D01*
X384000D01*
Y404320D01*
D02*
G37*
G36*
X354790D02*
X336090D01*
Y385620D01*
X354790D01*
Y404320D01*
D02*
G37*
G36*
X325580D02*
X306880D01*
Y385620D01*
X325580D01*
Y404320D01*
D02*
G37*
G36*
X296370D02*
X277670D01*
Y385620D01*
X296370D01*
Y404320D01*
D02*
G37*
G36*
X259041D02*
X256579D01*
X254201Y403683D01*
X252069Y402452D01*
X250328Y400711D01*
X249097Y398579D01*
X248460Y396201D01*
Y393739D01*
X249097Y391361D01*
X250328Y389229D01*
X252069Y387488D01*
X254201Y386257D01*
X256579Y385620D01*
X259041D01*
X261419Y386257D01*
X263551Y387488D01*
X265292Y389229D01*
X266523Y391361D01*
X267160Y393739D01*
Y396201D01*
X266523Y398579D01*
X265292Y400711D01*
X263551Y402452D01*
X261419Y403683D01*
X259041Y404320D01*
D02*
G37*
G36*
X237950D02*
X219250D01*
Y385620D01*
X237950D01*
Y404320D01*
D02*
G37*
G36*
X200621D02*
X198159D01*
X195781Y403683D01*
X193649Y402452D01*
X191908Y400711D01*
X190677Y398579D01*
X190040Y396201D01*
Y393739D01*
X190677Y391361D01*
X191908Y389229D01*
X193649Y387488D01*
X195781Y386257D01*
X198159Y385620D01*
X200621D01*
X202999Y386257D01*
X205131Y387488D01*
X206872Y389229D01*
X208103Y391361D01*
X208740Y393739D01*
Y396201D01*
X208103Y398579D01*
X206872Y400711D01*
X205131Y402452D01*
X202999Y403683D01*
X200621Y404320D01*
D02*
G37*
G36*
X179530D02*
X160830D01*
Y385620D01*
X179530D01*
Y404320D01*
D02*
G37*
G36*
X142201D02*
X139739D01*
X137361Y403683D01*
X135229Y402452D01*
X133488Y400711D01*
X132257Y398579D01*
X131620Y396201D01*
Y393739D01*
X132257Y391361D01*
X133488Y389229D01*
X135229Y387488D01*
X137361Y386257D01*
X139739Y385620D01*
X142201D01*
X144579Y386257D01*
X146711Y387488D01*
X148452Y389229D01*
X149683Y391361D01*
X150320Y393739D01*
Y396201D01*
X149683Y398579D01*
X148452Y400711D01*
X146711Y402452D01*
X144579Y403683D01*
X142201Y404320D01*
D02*
G37*
G36*
X121110D02*
X102410D01*
Y385620D01*
X121110D01*
Y404320D01*
D02*
G37*
G36*
X83781D02*
X81319D01*
X78941Y403683D01*
X76809Y402452D01*
X75068Y400711D01*
X73837Y398579D01*
X73200Y396201D01*
Y393739D01*
X73837Y391361D01*
X75068Y389229D01*
X76809Y387488D01*
X78941Y386257D01*
X81319Y385620D01*
X83781D01*
X86159Y386257D01*
X88291Y387488D01*
X90032Y389229D01*
X91263Y391361D01*
X91900Y393739D01*
Y396201D01*
X91263Y398579D01*
X90032Y400711D01*
X88291Y402452D01*
X86159Y403683D01*
X83781Y404320D01*
D02*
G37*
G36*
X62690D02*
X43990D01*
Y385620D01*
X62690D01*
Y404320D01*
D02*
G37*
G36*
X855625Y349230D02*
X853835D01*
X852181Y348545D01*
X850915Y347279D01*
X850230Y345625D01*
Y343835D01*
X850915Y342181D01*
X852181Y340915D01*
X853835Y340230D01*
X855625D01*
X857279Y340915D01*
X858545Y342181D01*
X859230Y343835D01*
Y345625D01*
X858545Y347279D01*
X857279Y348545D01*
X855625Y349230D01*
D02*
G37*
G36*
X795625D02*
X793835D01*
X792181Y348545D01*
X790915Y347279D01*
X790230Y345625D01*
Y343835D01*
X790915Y342181D01*
X792181Y340915D01*
X793835Y340230D01*
X795625D01*
X797279Y340915D01*
X798545Y342181D01*
X799230Y343835D01*
Y345625D01*
X798545Y347279D01*
X797279Y348545D01*
X795625Y349230D01*
D02*
G37*
G36*
X675625D02*
X673835D01*
X672181Y348545D01*
X670915Y347279D01*
X670230Y345625D01*
Y343835D01*
X670915Y342181D01*
X672181Y340915D01*
X673835Y340230D01*
X675625D01*
X677279Y340915D01*
X678545Y342181D01*
X679230Y343835D01*
Y345625D01*
X678545Y347279D01*
X677279Y348545D01*
X675625Y349230D01*
D02*
G37*
G36*
X495625D02*
X493835D01*
X492181Y348545D01*
X490915Y347279D01*
X490230Y345625D01*
Y343835D01*
X490915Y342181D01*
X492181Y340915D01*
X493835Y340230D01*
X495625D01*
X497279Y340915D01*
X498545Y342181D01*
X499230Y343835D01*
Y345625D01*
X498545Y347279D01*
X497279Y348545D01*
X495625Y349230D01*
D02*
G37*
G36*
X435625D02*
X433835D01*
X432181Y348545D01*
X430915Y347279D01*
X430230Y345625D01*
Y343835D01*
X430915Y342181D01*
X432181Y340915D01*
X433835Y340230D01*
X435625D01*
X437279Y340915D01*
X438545Y342181D01*
X439230Y343835D01*
Y345625D01*
X438545Y347279D01*
X437279Y348545D01*
X435625Y349230D01*
D02*
G37*
G36*
X375625D02*
X373835D01*
X372181Y348545D01*
X370915Y347279D01*
X370230Y345625D01*
Y343835D01*
X370915Y342181D01*
X372181Y340915D01*
X373835Y340230D01*
X375625D01*
X377279Y340915D01*
X378545Y342181D01*
X379230Y343835D01*
Y345625D01*
X378545Y347279D01*
X377279Y348545D01*
X375625Y349230D01*
D02*
G37*
G36*
X255625D02*
X253835D01*
X252181Y348545D01*
X250915Y347279D01*
X250230Y345625D01*
Y343835D01*
X250915Y342181D01*
X252181Y340915D01*
X253835Y340230D01*
X255625D01*
X257279Y340915D01*
X258545Y342181D01*
X259230Y343835D01*
Y345625D01*
X258545Y347279D01*
X257279Y348545D01*
X255625Y349230D01*
D02*
G37*
G36*
X75625D02*
X73835D01*
X72181Y348545D01*
X70915Y347279D01*
X70230Y345625D01*
Y343835D01*
X70915Y342181D01*
X72181Y340915D01*
X73835Y340230D01*
X75625D01*
X77279Y340915D01*
X78545Y342181D01*
X79230Y343835D01*
Y345625D01*
X78545Y347279D01*
X77279Y348545D01*
X75625Y349230D01*
D02*
G37*
G36*
X303155Y315650D02*
X301365D01*
X299711Y314965D01*
X298445Y313699D01*
X297760Y312045D01*
Y310255D01*
X298445Y308601D01*
X299711Y307335D01*
X301365Y306650D01*
X303155D01*
X304809Y307335D01*
X306075Y308601D01*
X306760Y310255D01*
Y312045D01*
X306075Y313699D01*
X304809Y314965D01*
X303155Y315650D01*
D02*
G37*
G36*
X442855Y314380D02*
X441065D01*
X439411Y313695D01*
X438145Y312429D01*
X437460Y310775D01*
Y308985D01*
X438145Y307331D01*
X439411Y306065D01*
X441065Y305380D01*
X442855D01*
X444509Y306065D01*
X445775Y307331D01*
X446460Y308985D01*
Y310775D01*
X445775Y312429D01*
X444509Y313695D01*
X442855Y314380D01*
D02*
G37*
G36*
X574935Y309300D02*
X573145D01*
X571491Y308615D01*
X570225Y307349D01*
X569540Y305695D01*
Y303905D01*
X570225Y302251D01*
X571491Y300985D01*
X573145Y300300D01*
X574935D01*
X576589Y300985D01*
X577855Y302251D01*
X578540Y303905D01*
Y305695D01*
X577855Y307349D01*
X576589Y308615D01*
X574935Y309300D01*
D02*
G37*
G36*
X169805Y300410D02*
X168015D01*
X166361Y299725D01*
X165095Y298459D01*
X164410Y296805D01*
Y295015D01*
X165095Y293361D01*
X166361Y292095D01*
X168015Y291410D01*
X169805D01*
X171459Y292095D01*
X172725Y293361D01*
X173410Y295015D01*
Y296805D01*
X172725Y298459D01*
X171459Y299725D01*
X169805Y300410D01*
D02*
G37*
G36*
X581285Y290250D02*
X579495D01*
X577841Y289565D01*
X576575Y288299D01*
X575890Y286645D01*
Y284855D01*
X576575Y283201D01*
X577841Y281935D01*
X579495Y281250D01*
X581285D01*
X582939Y281935D01*
X584205Y283201D01*
X584890Y284855D01*
Y286645D01*
X584205Y288299D01*
X582939Y289565D01*
X581285Y290250D01*
D02*
G37*
G36*
X765625Y289230D02*
X763835D01*
X762181Y288545D01*
X760915Y287279D01*
X760230Y285625D01*
Y283835D01*
X760915Y282181D01*
X762181Y280915D01*
X763835Y280230D01*
X765625D01*
X767279Y280915D01*
X768545Y282181D01*
X769230Y283835D01*
Y285625D01*
X768545Y287279D01*
X767279Y288545D01*
X765625Y289230D01*
D02*
G37*
G36*
X465625D02*
X463835D01*
X462181Y288545D01*
X460915Y287279D01*
X460230Y285625D01*
Y283835D01*
X460915Y282181D01*
X462181Y280915D01*
X463835Y280230D01*
X465625D01*
X467279Y280915D01*
X468545Y282181D01*
X469230Y283835D01*
Y285625D01*
X468545Y287279D01*
X467279Y288545D01*
X465625Y289230D01*
D02*
G37*
G36*
X165625D02*
X163835D01*
X162181Y288545D01*
X160915Y287279D01*
X160230Y285625D01*
Y283835D01*
X160915Y282181D01*
X162181Y280915D01*
X163835Y280230D01*
X165625D01*
X167279Y280915D01*
X168545Y282181D01*
X169230Y283835D01*
Y285625D01*
X168545Y287279D01*
X167279Y288545D01*
X165625Y289230D01*
D02*
G37*
G36*
X45625D02*
X43835D01*
X42181Y288545D01*
X40915Y287279D01*
X40230Y285625D01*
Y283835D01*
X40915Y282181D01*
X42181Y280915D01*
X43835Y280230D01*
X45625D01*
X47279Y280915D01*
X48545Y282181D01*
X49230Y283835D01*
Y285625D01*
X48545Y287279D01*
X47279Y288545D01*
X45625Y289230D01*
D02*
G37*
G36*
X315855Y283900D02*
X314065D01*
X312411Y283215D01*
X311145Y281949D01*
X310460Y280295D01*
Y278505D01*
X311145Y276851D01*
X312411Y275585D01*
X314065Y274900D01*
X315855D01*
X317509Y275585D01*
X318775Y276851D01*
X319460Y278505D01*
Y280295D01*
X318775Y281949D01*
X317509Y283215D01*
X315855Y283900D01*
D02*
G37*
G36*
X591228Y278478D02*
X589438D01*
X587784Y277793D01*
X586518Y276527D01*
X585833Y274873D01*
Y273083D01*
X586518Y271429D01*
X587784Y270163D01*
X589438Y269478D01*
X591228D01*
X592882Y270163D01*
X594148Y271429D01*
X594833Y273083D01*
Y274873D01*
X594148Y276527D01*
X592882Y277793D01*
X591228Y278478D01*
D02*
G37*
G36*
X508895Y277550D02*
X507105D01*
X505451Y276865D01*
X504185Y275599D01*
X503500Y273945D01*
Y272155D01*
X504185Y270501D01*
X505451Y269235D01*
X507105Y268550D01*
X508895D01*
X510549Y269235D01*
X511815Y270501D01*
X512500Y272155D01*
Y273945D01*
X511815Y275599D01*
X510549Y276865D01*
X508895Y277550D01*
D02*
G37*
G36*
X486035D02*
X484245D01*
X482591Y276865D01*
X481325Y275599D01*
X480640Y273945D01*
Y272155D01*
X481325Y270501D01*
X482591Y269235D01*
X484245Y268550D01*
X486035D01*
X487689Y269235D01*
X488955Y270501D01*
X489640Y272155D01*
Y273945D01*
X488955Y275599D01*
X487689Y276865D01*
X486035Y277550D01*
D02*
G37*
G36*
X454285D02*
X452495D01*
X450841Y276865D01*
X449575Y275599D01*
X448890Y273945D01*
Y272155D01*
X449575Y270501D01*
X450841Y269235D01*
X452495Y268550D01*
X454285D01*
X455939Y269235D01*
X457205Y270501D01*
X457890Y272155D01*
Y273945D01*
X457205Y275599D01*
X455939Y276865D01*
X454285Y277550D01*
D02*
G37*
G36*
X242195D02*
X240405D01*
X238751Y276865D01*
X237485Y275599D01*
X236800Y273945D01*
Y272155D01*
X237485Y270501D01*
X238751Y269235D01*
X240405Y268550D01*
X242195D01*
X243849Y269235D01*
X245115Y270501D01*
X245800Y272155D01*
Y273945D01*
X245115Y275599D01*
X243849Y276865D01*
X242195Y277550D01*
D02*
G37*
G36*
X225685D02*
X223895D01*
X222241Y276865D01*
X220975Y275599D01*
X220290Y273945D01*
Y272155D01*
X220975Y270501D01*
X222241Y269235D01*
X223895Y268550D01*
X225685D01*
X227339Y269235D01*
X228605Y270501D01*
X229290Y272155D01*
Y273945D01*
X228605Y275599D01*
X227339Y276865D01*
X225685Y277550D01*
D02*
G37*
G36*
X360305Y276280D02*
X358515D01*
X356861Y275595D01*
X355595Y274329D01*
X354910Y272675D01*
Y270885D01*
X355595Y269231D01*
X356861Y267965D01*
X358515Y267280D01*
X360305D01*
X361959Y267965D01*
X363225Y269231D01*
X363910Y270885D01*
Y272675D01*
X363225Y274329D01*
X361959Y275595D01*
X360305Y276280D01*
D02*
G37*
G36*
X337445D02*
X335655D01*
X334001Y275595D01*
X332735Y274329D01*
X332050Y272675D01*
Y270885D01*
X332735Y269231D01*
X334001Y267965D01*
X335655Y267280D01*
X337445D01*
X339099Y267965D01*
X340365Y269231D01*
X341050Y270885D01*
Y272675D01*
X340365Y274329D01*
X339099Y275595D01*
X337445Y276280D01*
D02*
G37*
G36*
X187585D02*
X185795D01*
X184141Y275595D01*
X182875Y274329D01*
X182190Y272675D01*
Y270885D01*
X182875Y269231D01*
X184141Y267965D01*
X185795Y267280D01*
X187585D01*
X189239Y267965D01*
X190505Y269231D01*
X191190Y270885D01*
Y272675D01*
X190505Y274329D01*
X189239Y275595D01*
X187585Y276280D01*
D02*
G37*
G36*
X542990Y275825D02*
X541200D01*
X539546Y275140D01*
X538280Y273874D01*
X537595Y272220D01*
Y270430D01*
X538280Y268776D01*
X539546Y267510D01*
X541200Y266825D01*
X542990D01*
X544644Y267510D01*
X545910Y268776D01*
X546595Y270430D01*
Y272220D01*
X545910Y273874D01*
X544644Y275140D01*
X542990Y275825D01*
D02*
G37*
G36*
X409640D02*
X407850D01*
X406196Y275140D01*
X404930Y273874D01*
X404245Y272220D01*
Y270430D01*
X404930Y268776D01*
X406196Y267510D01*
X407850Y266825D01*
X409640D01*
X411294Y267510D01*
X412560Y268776D01*
X413245Y270430D01*
Y272220D01*
X412560Y273874D01*
X411294Y275140D01*
X409640Y275825D01*
D02*
G37*
G36*
X271210D02*
X269420D01*
X267766Y275140D01*
X266500Y273874D01*
X265815Y272220D01*
Y270430D01*
X266500Y268776D01*
X267766Y267510D01*
X269420Y266825D01*
X271210D01*
X272864Y267510D01*
X274130Y268776D01*
X274815Y270430D01*
Y272220D01*
X274130Y273874D01*
X272864Y275140D01*
X271210Y275825D01*
D02*
G37*
G36*
X139130Y275825D02*
X137340D01*
X135686Y275140D01*
X134420Y273874D01*
X133735Y272220D01*
Y270430D01*
X134420Y268776D01*
X135686Y267510D01*
X137340Y266825D01*
X139130D01*
X140784Y267510D01*
X142050Y268776D01*
X142735Y270430D01*
Y272220D01*
X142050Y273874D01*
X140784Y275140D01*
X139130Y275825D01*
D02*
G37*
G36*
X88525Y275010D02*
X86735D01*
X85081Y274325D01*
X83815Y273059D01*
X83130Y271405D01*
Y269615D01*
X83815Y267961D01*
X85081Y266695D01*
X86735Y266010D01*
X88525D01*
X90179Y266695D01*
X91445Y267961D01*
X92130Y269615D01*
Y271405D01*
X91445Y273059D01*
X90179Y274325D01*
X88525Y275010D01*
D02*
G37*
G36*
X74555D02*
X72765D01*
X71111Y274325D01*
X69845Y273059D01*
X69160Y271405D01*
Y269615D01*
X69845Y267961D01*
X71111Y266695D01*
X72765Y266010D01*
X74555D01*
X76209Y266695D01*
X77475Y267961D01*
X78160Y269615D01*
Y271405D01*
X77475Y273059D01*
X76209Y274325D01*
X74555Y275010D01*
D02*
G37*
G36*
X55505D02*
X53715D01*
X52061Y274325D01*
X50795Y273059D01*
X50110Y271405D01*
Y269615D01*
X50795Y267961D01*
X52061Y266695D01*
X53715Y266010D01*
X55505D01*
X57159Y266695D01*
X58425Y267961D01*
X59110Y269615D01*
Y271405D01*
X58425Y273059D01*
X57159Y274325D01*
X55505Y275010D01*
D02*
G37*
G36*
X263590Y238995D02*
X261800D01*
X260146Y238310D01*
X258880Y237044D01*
X258195Y235390D01*
Y233600D01*
X258880Y231946D01*
X260146Y230680D01*
X261800Y229995D01*
X263590D01*
X265244Y230680D01*
X266510Y231946D01*
X267195Y233600D01*
Y235390D01*
X266510Y237044D01*
X265244Y238310D01*
X263590Y238995D01*
D02*
G37*
G36*
X535370Y238633D02*
X533580D01*
X531926Y237948D01*
X530660Y236682D01*
X529975Y235028D01*
Y233237D01*
X530660Y231583D01*
X531926Y230318D01*
X533580Y229633D01*
X535370D01*
X537024Y230318D01*
X538290Y231583D01*
X538975Y233237D01*
Y235028D01*
X538290Y236682D01*
X537024Y237948D01*
X535370Y238633D01*
D02*
G37*
G36*
X402020Y237725D02*
X400230D01*
X398576Y237040D01*
X397310Y235774D01*
X396625Y234120D01*
Y232330D01*
X397310Y230676D01*
X398576Y229410D01*
X400230Y228725D01*
X402020D01*
X403674Y229410D01*
X404940Y230676D01*
X405625Y232330D01*
Y234120D01*
X404940Y235774D01*
X403674Y237040D01*
X402020Y237725D01*
D02*
G37*
G36*
X131510Y236455D02*
X129720D01*
X128066Y235770D01*
X126800Y234504D01*
X126115Y232850D01*
Y231060D01*
X126800Y229406D01*
X128066Y228140D01*
X129720Y227455D01*
X131510D01*
X133164Y228140D01*
X134430Y229406D01*
X135115Y231060D01*
Y232850D01*
X134430Y234504D01*
X133164Y235770D01*
X131510Y236455D01*
D02*
G37*
G36*
X855625Y229230D02*
X853835D01*
X852181Y228545D01*
X850915Y227279D01*
X850230Y225625D01*
Y223835D01*
X850915Y222181D01*
X852181Y220915D01*
X853835Y220230D01*
X855625D01*
X857279Y220915D01*
X858545Y222181D01*
X859230Y223835D01*
Y225625D01*
X858545Y227279D01*
X857279Y228545D01*
X855625Y229230D01*
D02*
G37*
G36*
X795625D02*
X793835D01*
X792181Y228545D01*
X790915Y227279D01*
X790230Y225625D01*
Y223835D01*
X790915Y222181D01*
X792181Y220915D01*
X793835Y220230D01*
X795625D01*
X797279Y220915D01*
X798545Y222181D01*
X799230Y223835D01*
Y225625D01*
X798545Y227279D01*
X797279Y228545D01*
X795625Y229230D01*
D02*
G37*
G36*
X735625D02*
X733835D01*
X732181Y228545D01*
X730915Y227279D01*
X730230Y225625D01*
Y223835D01*
X730915Y222181D01*
X732181Y220915D01*
X733835Y220230D01*
X735625D01*
X737279Y220915D01*
X738545Y222181D01*
X739230Y223835D01*
Y225625D01*
X738545Y227279D01*
X737279Y228545D01*
X735625Y229230D01*
D02*
G37*
G36*
X315625D02*
X313835D01*
X312181Y228545D01*
X310915Y227279D01*
X310230Y225625D01*
Y223835D01*
X310915Y222181D01*
X312181Y220915D01*
X313835Y220230D01*
X315625D01*
X317279Y220915D01*
X318545Y222181D01*
X319230Y223835D01*
Y225625D01*
X318545Y227279D01*
X317279Y228545D01*
X315625Y229230D01*
D02*
G37*
G36*
X545058Y225135D02*
X543268D01*
X541614Y224450D01*
X540348Y223184D01*
X539663Y221530D01*
Y219740D01*
X540348Y218086D01*
X541614Y216820D01*
X543268Y216135D01*
X545058D01*
X546712Y216820D01*
X547978Y218086D01*
X548663Y219740D01*
Y221530D01*
X547978Y223184D01*
X546712Y224450D01*
X545058Y225135D01*
D02*
G37*
G36*
X273750Y225025D02*
X271960D01*
X270306Y224340D01*
X269040Y223074D01*
X268355Y221420D01*
Y219630D01*
X269040Y217976D01*
X270306Y216710D01*
X271960Y216025D01*
X273750D01*
X275404Y216710D01*
X276670Y217976D01*
X277355Y219630D01*
Y221420D01*
X276670Y223074D01*
X275404Y224340D01*
X273750Y225025D01*
D02*
G37*
G36*
X412180Y223755D02*
X410390D01*
X408736Y223070D01*
X407470Y221804D01*
X406785Y220150D01*
Y218360D01*
X407470Y216706D01*
X408736Y215440D01*
X410390Y214755D01*
X412180D01*
X413834Y215440D01*
X415100Y216706D01*
X415785Y218360D01*
Y220150D01*
X415100Y221804D01*
X413834Y223070D01*
X412180Y223755D01*
D02*
G37*
G36*
X141670Y222485D02*
X139880D01*
X138226Y221800D01*
X136960Y220534D01*
X136275Y218880D01*
Y217090D01*
X136960Y215436D01*
X138226Y214170D01*
X139880Y213485D01*
X141670D01*
X143324Y214170D01*
X144590Y215436D01*
X145275Y217090D01*
Y218880D01*
X144590Y220534D01*
X143324Y221800D01*
X141670Y222485D01*
D02*
G37*
G36*
X497801Y231600D02*
X495339D01*
X492961Y230963D01*
X490829Y229732D01*
X489088Y227991D01*
X487857Y225859D01*
X487220Y223481D01*
Y221019D01*
X487857Y218641D01*
X489088Y216509D01*
X490829Y214768D01*
X492961Y213537D01*
X495339Y212900D01*
X497801D01*
X500179Y213537D01*
X502311Y214768D01*
X504052Y216509D01*
X505283Y218641D01*
X505920Y221019D01*
Y223481D01*
X505283Y225859D01*
X504052Y227991D01*
X502311Y229732D01*
X500179Y230963D01*
X497801Y231600D01*
D02*
G37*
G36*
X480520D02*
X461820D01*
Y212900D01*
X480520D01*
Y231600D01*
D02*
G37*
G36*
X365721Y229060D02*
X363259D01*
X360881Y228423D01*
X358749Y227192D01*
X357008Y225451D01*
X355777Y223319D01*
X355140Y220941D01*
Y218479D01*
X355777Y216101D01*
X357008Y213969D01*
X358749Y212228D01*
X360881Y210997D01*
X363259Y210360D01*
X365721D01*
X368099Y210997D01*
X370231Y212228D01*
X371972Y213969D01*
X373203Y216101D01*
X373840Y218479D01*
Y220941D01*
X373203Y223319D01*
X371972Y225451D01*
X370231Y227192D01*
X368099Y228423D01*
X365721Y229060D01*
D02*
G37*
G36*
X348440D02*
X329740D01*
Y210360D01*
X348440D01*
Y229060D01*
D02*
G37*
G36*
X228561Y227790D02*
X226099D01*
X223721Y227153D01*
X221589Y225922D01*
X219848Y224181D01*
X218617Y222049D01*
X217980Y219671D01*
Y217209D01*
X218617Y214831D01*
X219848Y212699D01*
X221589Y210958D01*
X223721Y209727D01*
X226099Y209090D01*
X228561D01*
X230939Y209727D01*
X233071Y210958D01*
X234812Y212699D01*
X236043Y214831D01*
X236680Y217209D01*
Y219671D01*
X236043Y222049D01*
X234812Y224181D01*
X233071Y225922D01*
X230939Y227153D01*
X228561Y227790D01*
D02*
G37*
G36*
X211280D02*
X192580D01*
Y209090D01*
X211280D01*
Y227790D01*
D02*
G37*
G36*
X93941Y225796D02*
X91479D01*
X89101Y225159D01*
X86969Y223927D01*
X85228Y222187D01*
X83997Y220055D01*
X83360Y217677D01*
Y215215D01*
X83997Y212837D01*
X85228Y210705D01*
X86969Y208964D01*
X89101Y207733D01*
X91479Y207096D01*
X93941D01*
X96319Y207733D01*
X98451Y208964D01*
X100192Y210705D01*
X101423Y212837D01*
X102060Y215215D01*
Y217677D01*
X101423Y220055D01*
X100192Y222187D01*
X98451Y223927D01*
X96319Y225159D01*
X93941Y225796D01*
D02*
G37*
G36*
X76660D02*
X57960D01*
Y207096D01*
X76660D01*
Y225796D01*
D02*
G37*
G36*
X525405Y214050D02*
X523615D01*
X521961Y213365D01*
X520695Y212099D01*
X520010Y210445D01*
Y208655D01*
X520695Y207001D01*
X521961Y205735D01*
X523615Y205050D01*
X525405D01*
X527059Y205735D01*
X528325Y207001D01*
X529010Y208655D01*
Y210445D01*
X528325Y212099D01*
X527059Y213365D01*
X525405Y214050D01*
D02*
G37*
G36*
X359035Y200080D02*
X357245D01*
X355591Y199395D01*
X354325Y198129D01*
X353640Y196475D01*
Y194685D01*
X354325Y193031D01*
X355591Y191765D01*
X357245Y191080D01*
X359035D01*
X360689Y191765D01*
X361955Y193031D01*
X362640Y194685D01*
Y196475D01*
X361955Y198129D01*
X360689Y199395D01*
X359035Y200080D01*
D02*
G37*
G36*
X222950Y191655D02*
X221160D01*
X219506Y190970D01*
X218240Y189704D01*
X217555Y188050D01*
Y186260D01*
X218240Y184606D01*
X219506Y183340D01*
X221160Y182655D01*
X222950D01*
X224604Y183340D01*
X225870Y184606D01*
X226555Y186260D01*
Y188050D01*
X225870Y189704D01*
X224604Y190970D01*
X222950Y191655D01*
D02*
G37*
G36*
X126625Y186110D02*
X124835D01*
X123181Y185425D01*
X121915Y184159D01*
X121230Y182505D01*
Y180715D01*
X121915Y179061D01*
X123181Y177795D01*
X124835Y177110D01*
X126625D01*
X128279Y177795D01*
X129545Y179061D01*
X130230Y180715D01*
Y182505D01*
X129545Y184159D01*
X128279Y185425D01*
X126625Y186110D01*
D02*
G37*
G36*
X825625Y169230D02*
X823835D01*
X822181Y168545D01*
X820915Y167279D01*
X820230Y165625D01*
Y163835D01*
X820915Y162181D01*
X822181Y160915D01*
X823835Y160230D01*
X825625D01*
X827279Y160915D01*
X828545Y162181D01*
X829230Y163835D01*
Y165625D01*
X828545Y167279D01*
X827279Y168545D01*
X825625Y169230D01*
D02*
G37*
G36*
X765625D02*
X763835D01*
X762181Y168545D01*
X760915Y167279D01*
X760230Y165625D01*
Y163835D01*
X760915Y162181D01*
X762181Y160915D01*
X763835Y160230D01*
X765625D01*
X767279Y160915D01*
X768545Y162181D01*
X769230Y163835D01*
Y165625D01*
X768545Y167279D01*
X767279Y168545D01*
X765625Y169230D01*
D02*
G37*
G36*
X645625D02*
X643835D01*
X642181Y168545D01*
X640915Y167279D01*
X640230Y165625D01*
Y163835D01*
X640915Y162181D01*
X642181Y160915D01*
X643835Y160230D01*
X645625D01*
X647279Y160915D01*
X648545Y162181D01*
X649230Y163835D01*
Y165625D01*
X648545Y167279D01*
X647279Y168545D01*
X645625Y169230D01*
D02*
G37*
G36*
X525625D02*
X523835D01*
X522181Y168545D01*
X520915Y167279D01*
X520230Y165625D01*
Y163835D01*
X520915Y162181D01*
X522181Y160915D01*
X523835Y160230D01*
X525625D01*
X527279Y160915D01*
X528545Y162181D01*
X529230Y163835D01*
Y165625D01*
X528545Y167279D01*
X527279Y168545D01*
X525625Y169230D01*
D02*
G37*
G36*
X405625D02*
X403835D01*
X402181Y168545D01*
X400915Y167279D01*
X400230Y165625D01*
Y163835D01*
X400915Y162181D01*
X402181Y160915D01*
X403835Y160230D01*
X405625D01*
X407279Y160915D01*
X408545Y162181D01*
X409230Y163835D01*
Y165625D01*
X408545Y167279D01*
X407279Y168545D01*
X405625Y169230D01*
D02*
G37*
G36*
X345625D02*
X343835D01*
X342181Y168545D01*
X340915Y167279D01*
X340230Y165625D01*
Y163835D01*
X340915Y162181D01*
X342181Y160915D01*
X343835Y160230D01*
X345625D01*
X347279Y160915D01*
X348545Y162181D01*
X349230Y163835D01*
Y165625D01*
X348545Y167279D01*
X347279Y168545D01*
X345625Y169230D01*
D02*
G37*
G36*
X285625D02*
X283835D01*
X282181Y168545D01*
X280915Y167279D01*
X280230Y165625D01*
Y163835D01*
X280915Y162181D01*
X282181Y160915D01*
X283835Y160230D01*
X285625D01*
X287279Y160915D01*
X288545Y162181D01*
X289230Y163835D01*
Y165625D01*
X288545Y167279D01*
X287279Y168545D01*
X285625Y169230D01*
D02*
G37*
G36*
X165625D02*
X163835D01*
X162181Y168545D01*
X160915Y167279D01*
X160230Y165625D01*
Y163835D01*
X160915Y162181D01*
X162181Y160915D01*
X163835Y160230D01*
X165625D01*
X167279Y160915D01*
X168545Y162181D01*
X169230Y163835D01*
Y165625D01*
X168545Y167279D01*
X167279Y168545D01*
X165625Y169230D01*
D02*
G37*
G36*
X105625D02*
X103835D01*
X102181Y168545D01*
X100915Y167279D01*
X100230Y165625D01*
Y163835D01*
X100915Y162181D01*
X102181Y160915D01*
X103835Y160230D01*
X105625D01*
X107279Y160915D01*
X108545Y162181D01*
X109230Y163835D01*
Y165625D01*
X108545Y167279D01*
X107279Y168545D01*
X105625Y169230D01*
D02*
G37*
G36*
X45625D02*
X43835D01*
X42181Y168545D01*
X40915Y167279D01*
X40230Y165625D01*
Y163835D01*
X40915Y162181D01*
X42181Y160915D01*
X43835Y160230D01*
X45625D01*
X47279Y160915D01*
X48545Y162181D01*
X49230Y163835D01*
Y165625D01*
X48545Y167279D01*
X47279Y168545D01*
X45625Y169230D01*
D02*
G37*
G36*
X1371225Y167060D02*
X1369435D01*
X1367781Y166375D01*
X1366515Y165109D01*
X1365830Y163455D01*
Y161665D01*
X1366515Y160011D01*
X1367781Y158745D01*
X1369435Y158060D01*
X1371225D01*
X1372879Y158745D01*
X1374145Y160011D01*
X1374830Y161665D01*
Y163455D01*
X1374145Y165109D01*
X1372879Y166375D01*
X1371225Y167060D01*
D02*
G37*
G36*
X1456315Y150550D02*
X1454525D01*
X1452871Y149865D01*
X1451605Y148599D01*
X1450920Y146945D01*
Y145155D01*
X1451605Y143501D01*
X1452871Y142235D01*
X1454525Y141550D01*
X1456315D01*
X1457969Y142235D01*
X1459235Y143501D01*
X1459920Y145155D01*
Y146945D01*
X1459235Y148599D01*
X1457969Y149865D01*
X1456315Y150550D01*
D02*
G37*
G36*
X1246925Y145710D02*
X1245135D01*
X1243481Y145025D01*
X1242215Y143759D01*
X1241530Y142105D01*
Y140315D01*
X1242215Y138661D01*
X1243481Y137395D01*
X1245135Y136710D01*
X1246925D01*
X1248579Y137395D01*
X1249845Y138661D01*
X1250530Y140315D01*
Y142105D01*
X1249845Y143759D01*
X1248579Y145025D01*
X1246925Y145710D01*
D02*
G37*
G36*
X1302645Y145470D02*
X1300855D01*
X1299201Y144785D01*
X1297935Y143519D01*
X1297250Y141865D01*
Y140075D01*
X1297935Y138421D01*
X1299201Y137155D01*
X1300855Y136470D01*
X1302645D01*
X1304299Y137155D01*
X1305565Y138421D01*
X1306250Y140075D01*
Y141865D01*
X1305565Y143519D01*
X1304299Y144785D01*
X1302645Y145470D01*
D02*
G37*
G36*
X1281055D02*
X1279265D01*
X1277611Y144785D01*
X1276345Y143519D01*
X1275660Y141865D01*
Y140075D01*
X1276345Y138421D01*
X1277611Y137155D01*
X1279265Y136470D01*
X1281055D01*
X1282709Y137155D01*
X1283975Y138421D01*
X1284660Y140075D01*
Y141865D01*
X1283975Y143519D01*
X1282709Y144785D01*
X1281055Y145470D01*
D02*
G37*
G36*
X1165485Y144200D02*
X1163695D01*
X1162041Y143515D01*
X1160775Y142249D01*
X1160090Y140595D01*
Y138805D01*
X1160775Y137151D01*
X1162041Y135885D01*
X1163695Y135200D01*
X1165485D01*
X1167139Y135885D01*
X1168405Y137151D01*
X1169090Y138805D01*
Y140595D01*
X1168405Y142249D01*
X1167139Y143515D01*
X1165485Y144200D01*
D02*
G37*
G36*
X1152785D02*
X1150995D01*
X1149341Y143515D01*
X1148075Y142249D01*
X1147390Y140595D01*
Y138805D01*
X1148075Y137151D01*
X1149341Y135885D01*
X1150995Y135200D01*
X1152785D01*
X1154439Y135885D01*
X1155705Y137151D01*
X1156390Y138805D01*
Y140595D01*
X1155705Y142249D01*
X1154439Y143515D01*
X1152785Y144200D01*
D02*
G37*
G36*
X1121415Y139660D02*
X1119625D01*
X1117971Y138975D01*
X1116705Y137709D01*
X1116020Y136055D01*
Y134265D01*
X1116705Y132611D01*
X1117971Y131345D01*
X1119625Y130660D01*
X1121415D01*
X1123069Y131345D01*
X1124335Y132611D01*
X1125020Y134265D01*
Y136055D01*
X1124335Y137709D01*
X1123069Y138975D01*
X1121415Y139660D01*
D02*
G37*
G36*
X1068275Y131875D02*
X1066485D01*
X1064831Y131190D01*
X1063565Y129924D01*
X1062880Y128270D01*
Y126480D01*
X1063565Y124826D01*
X1064831Y123560D01*
X1066485Y122875D01*
X1068275D01*
X1069929Y123560D01*
X1071195Y124826D01*
X1071880Y126480D01*
Y128270D01*
X1071195Y129924D01*
X1069929Y131190D01*
X1068275Y131875D01*
D02*
G37*
G36*
X1340745Y118800D02*
X1338955D01*
X1337301Y118115D01*
X1336035Y116849D01*
X1335350Y115195D01*
Y113405D01*
X1336035Y111751D01*
X1337301Y110485D01*
X1338955Y109800D01*
X1340745D01*
X1342399Y110485D01*
X1343665Y111751D01*
X1344350Y113405D01*
Y115195D01*
X1343665Y116849D01*
X1342399Y118115D01*
X1340745Y118800D01*
D02*
G37*
G36*
X795625Y109230D02*
X793835D01*
X792181Y108545D01*
X790915Y107279D01*
X790230Y105625D01*
Y103835D01*
X790915Y102181D01*
X792181Y100915D01*
X793835Y100230D01*
X795625D01*
X797279Y100915D01*
X798545Y102181D01*
X799230Y103835D01*
Y105625D01*
X798545Y107279D01*
X797279Y108545D01*
X795625Y109230D01*
D02*
G37*
G36*
X735625D02*
X733835D01*
X732181Y108545D01*
X730915Y107279D01*
X730230Y105625D01*
Y103835D01*
X730915Y102181D01*
X732181Y100915D01*
X733835Y100230D01*
X735625D01*
X737279Y100915D01*
X738545Y102181D01*
X739230Y103835D01*
Y105625D01*
X738545Y107279D01*
X737279Y108545D01*
X735625Y109230D01*
D02*
G37*
G36*
X675625D02*
X673835D01*
X672181Y108545D01*
X670915Y107279D01*
X670230Y105625D01*
Y103835D01*
X670915Y102181D01*
X672181Y100915D01*
X673835Y100230D01*
X675625D01*
X677279Y100915D01*
X678545Y102181D01*
X679230Y103835D01*
Y105625D01*
X678545Y107279D01*
X677279Y108545D01*
X675625Y109230D01*
D02*
G37*
G36*
X615625D02*
X613835D01*
X612181Y108545D01*
X610915Y107279D01*
X610230Y105625D01*
Y103835D01*
X610915Y102181D01*
X612181Y100915D01*
X613835Y100230D01*
X615625D01*
X617279Y100915D01*
X618545Y102181D01*
X619230Y103835D01*
Y105625D01*
X618545Y107279D01*
X617279Y108545D01*
X615625Y109230D01*
D02*
G37*
G36*
X555625D02*
X553835D01*
X552181Y108545D01*
X550915Y107279D01*
X550230Y105625D01*
Y103835D01*
X550915Y102181D01*
X552181Y100915D01*
X553835Y100230D01*
X555625D01*
X557279Y100915D01*
X558545Y102181D01*
X559230Y103835D01*
Y105625D01*
X558545Y107279D01*
X557279Y108545D01*
X555625Y109230D01*
D02*
G37*
G36*
X495625D02*
X493835D01*
X492181Y108545D01*
X490915Y107279D01*
X490230Y105625D01*
Y103835D01*
X490915Y102181D01*
X492181Y100915D01*
X493835Y100230D01*
X495625D01*
X497279Y100915D01*
X498545Y102181D01*
X499230Y103835D01*
Y105625D01*
X498545Y107279D01*
X497279Y108545D01*
X495625Y109230D01*
D02*
G37*
G36*
X435625D02*
X433835D01*
X432181Y108545D01*
X430915Y107279D01*
X430230Y105625D01*
Y103835D01*
X430915Y102181D01*
X432181Y100915D01*
X433835Y100230D01*
X435625D01*
X437279Y100915D01*
X438545Y102181D01*
X439230Y103835D01*
Y105625D01*
X438545Y107279D01*
X437279Y108545D01*
X435625Y109230D01*
D02*
G37*
G36*
X195625D02*
X193835D01*
X192181Y108545D01*
X190915Y107279D01*
X190230Y105625D01*
Y103835D01*
X190915Y102181D01*
X192181Y100915D01*
X193835Y100230D01*
X195625D01*
X197279Y100915D01*
X198545Y102181D01*
X199230Y103835D01*
Y105625D01*
X198545Y107279D01*
X197279Y108545D01*
X195625Y109230D01*
D02*
G37*
G36*
X135625D02*
X133835D01*
X132181Y108545D01*
X130915Y107279D01*
X130230Y105625D01*
Y103835D01*
X130915Y102181D01*
X132181Y100915D01*
X133835Y100230D01*
X135625D01*
X137279Y100915D01*
X138545Y102181D01*
X139230Y103835D01*
Y105625D01*
X138545Y107279D01*
X137279Y108545D01*
X135625Y109230D01*
D02*
G37*
G36*
X75625D02*
X73835D01*
X72181Y108545D01*
X70915Y107279D01*
X70230Y105625D01*
Y103835D01*
X70915Y102181D01*
X72181Y100915D01*
X73835Y100230D01*
X75625D01*
X77279Y100915D01*
X78545Y102181D01*
X79230Y103835D01*
Y105625D01*
X78545Y107279D01*
X77279Y108545D01*
X75625Y109230D01*
D02*
G37*
G36*
X980065Y106100D02*
X978275D01*
X976621Y105415D01*
X975355Y104149D01*
X974670Y102495D01*
Y100705D01*
X975355Y99051D01*
X976621Y97785D01*
X978275Y97100D01*
X980065D01*
X981719Y97785D01*
X982985Y99051D01*
X983670Y100705D01*
Y102495D01*
X982985Y104149D01*
X981719Y105415D01*
X980065Y106100D01*
D02*
G37*
G36*
X861955D02*
X860165D01*
X858511Y105415D01*
X857245Y104149D01*
X856560Y102495D01*
Y100705D01*
X857245Y99051D01*
X858511Y97785D01*
X860165Y97100D01*
X861955D01*
X863609Y97785D01*
X864875Y99051D01*
X865560Y100705D01*
Y102495D01*
X864875Y104149D01*
X863609Y105415D01*
X861955Y106100D01*
D02*
G37*
G36*
X1069085Y105940D02*
X1067295D01*
X1065641Y105255D01*
X1064375Y103989D01*
X1063690Y102335D01*
Y100545D01*
X1064375Y98891D01*
X1065641Y97625D01*
X1067295Y96940D01*
X1069085D01*
X1070739Y97625D01*
X1072005Y98891D01*
X1072690Y100545D01*
Y102335D01*
X1072005Y103989D01*
X1070739Y105255D01*
X1069085Y105940D01*
D02*
G37*
G36*
X925455Y104830D02*
X923665D01*
X922011Y104145D01*
X920745Y102879D01*
X920060Y101225D01*
Y99435D01*
X920745Y97781D01*
X922011Y96515D01*
X923665Y95830D01*
X925455D01*
X927109Y96515D01*
X928375Y97781D01*
X929060Y99435D01*
Y101225D01*
X928375Y102879D01*
X927109Y104145D01*
X925455Y104830D01*
D02*
G37*
G36*
X446230Y95710D02*
X427530D01*
Y77010D01*
X446230D01*
Y95710D01*
D02*
G37*
G36*
X412711D02*
X410249D01*
X407871Y95073D01*
X405739Y93842D01*
X403998Y92101D01*
X402767Y89969D01*
X402130Y87591D01*
Y85129D01*
X402767Y82751D01*
X403998Y80619D01*
X405739Y78878D01*
X407871Y77647D01*
X410249Y77010D01*
X412711D01*
X415089Y77647D01*
X417221Y78878D01*
X418962Y80619D01*
X420193Y82751D01*
X420830Y85129D01*
Y87591D01*
X420193Y89969D01*
X418962Y92101D01*
X417221Y93842D01*
X415089Y95073D01*
X412711Y95710D01*
D02*
G37*
G36*
X257435Y76890D02*
X255645D01*
X253991Y76205D01*
X252725Y74939D01*
X252040Y73285D01*
Y71495D01*
X252725Y69841D01*
X253991Y68575D01*
X255645Y67890D01*
X257435D01*
X259089Y68575D01*
X260355Y69841D01*
X261040Y71495D01*
Y73285D01*
X260355Y74939D01*
X259089Y76205D01*
X257435Y76890D01*
D02*
G37*
G36*
X358144Y64954D02*
X356353D01*
X354700Y64269D01*
X353434Y63003D01*
X352749Y61349D01*
Y59559D01*
X353434Y57905D01*
X354700Y56639D01*
X356353Y55954D01*
X358144D01*
X359798Y56639D01*
X361063Y57905D01*
X361749Y59559D01*
Y61349D01*
X361063Y63003D01*
X359798Y64269D01*
X358144Y64954D01*
D02*
G37*
G36*
X1065155Y61650D02*
X1063365D01*
X1061711Y60965D01*
X1060445Y59699D01*
X1059760Y58045D01*
Y56255D01*
X1060445Y54601D01*
X1061711Y53335D01*
X1063365Y52650D01*
X1065155D01*
X1066809Y53335D01*
X1068075Y54601D01*
X1068760Y56255D01*
Y58045D01*
X1068075Y59699D01*
X1066809Y60965D01*
X1065155Y61650D01*
D02*
G37*
G36*
X1110075Y60220D02*
X1108285D01*
X1106631Y59535D01*
X1105365Y58269D01*
X1104680Y56615D01*
Y54825D01*
X1105365Y53171D01*
X1106631Y51905D01*
X1108285Y51220D01*
X1110075D01*
X1111729Y51905D01*
X1112995Y53171D01*
X1113680Y54825D01*
Y56615D01*
X1112995Y58269D01*
X1111729Y59535D01*
X1110075Y60220D01*
D02*
G37*
G36*
X1083405D02*
X1081615D01*
X1079961Y59535D01*
X1078695Y58269D01*
X1078010Y56615D01*
Y54825D01*
X1078695Y53171D01*
X1079961Y51905D01*
X1081615Y51220D01*
X1083405D01*
X1085059Y51905D01*
X1086325Y53171D01*
X1087010Y54825D01*
Y56615D01*
X1086325Y58269D01*
X1085059Y59535D01*
X1083405Y60220D01*
D02*
G37*
G36*
X1274125Y60005D02*
X1272335D01*
X1270681Y59320D01*
X1269415Y58054D01*
X1268730Y56400D01*
Y54610D01*
X1269415Y52956D01*
X1270681Y51690D01*
X1272335Y51005D01*
X1274125D01*
X1275779Y51690D01*
X1277045Y52956D01*
X1277730Y54610D01*
Y56400D01*
X1277045Y58054D01*
X1275779Y59320D01*
X1274125Y60005D01*
D02*
G37*
G36*
X1036635Y59485D02*
X1034845D01*
X1033191Y58800D01*
X1031925Y57534D01*
X1031240Y55880D01*
Y54090D01*
X1031925Y52436D01*
X1033191Y51170D01*
X1034845Y50485D01*
X1036635D01*
X1038289Y51170D01*
X1039555Y52436D01*
X1040240Y54090D01*
Y55880D01*
X1039555Y57534D01*
X1038289Y58800D01*
X1036635Y59485D01*
D02*
G37*
G36*
X1007425D02*
X1005635D01*
X1003981Y58800D01*
X1002715Y57534D01*
X1002030Y55880D01*
Y54090D01*
X1002715Y52436D01*
X1003981Y51170D01*
X1005635Y50485D01*
X1007425D01*
X1009079Y51170D01*
X1010345Y52436D01*
X1011030Y54090D01*
Y55880D01*
X1010345Y57534D01*
X1009079Y58800D01*
X1007425Y59485D01*
D02*
G37*
G36*
X1413135Y59110D02*
X1411345D01*
X1409691Y58425D01*
X1408425Y57159D01*
X1407740Y55505D01*
Y53715D01*
X1408425Y52061D01*
X1409691Y50795D01*
X1411345Y50110D01*
X1413135D01*
X1414789Y50795D01*
X1416055Y52061D01*
X1416740Y53715D01*
Y55505D01*
X1416055Y57159D01*
X1414789Y58425D01*
X1413135Y59110D01*
D02*
G37*
G36*
X1248035D02*
X1246245D01*
X1244591Y58425D01*
X1243325Y57159D01*
X1242640Y55505D01*
Y53715D01*
X1243325Y52061D01*
X1244591Y50795D01*
X1246245Y50110D01*
X1248035D01*
X1249689Y50795D01*
X1250955Y52061D01*
X1251640Y53715D01*
Y55505D01*
X1250955Y57159D01*
X1249689Y58425D01*
X1248035Y59110D01*
D02*
G37*
G36*
X1217555D02*
X1215765D01*
X1214111Y58425D01*
X1212845Y57159D01*
X1212160Y55505D01*
Y53715D01*
X1212845Y52061D01*
X1214111Y50795D01*
X1215765Y50110D01*
X1217555D01*
X1219209Y50795D01*
X1220475Y52061D01*
X1221160Y53715D01*
Y55505D01*
X1220475Y57159D01*
X1219209Y58425D01*
X1217555Y59110D01*
D02*
G37*
G36*
X1190885D02*
X1189095D01*
X1187441Y58425D01*
X1186175Y57159D01*
X1185490Y55505D01*
Y53715D01*
X1186175Y52061D01*
X1187441Y50795D01*
X1189095Y50110D01*
X1190885D01*
X1192539Y50795D01*
X1193805Y52061D01*
X1194490Y53715D01*
Y55505D01*
X1193805Y57159D01*
X1192539Y58425D01*
X1190885Y59110D01*
D02*
G37*
G36*
X1168495Y58950D02*
X1166705D01*
X1165051Y58265D01*
X1163785Y56999D01*
X1163100Y55345D01*
Y53555D01*
X1163785Y51901D01*
X1165051Y50635D01*
X1166705Y49950D01*
X1168495D01*
X1170149Y50635D01*
X1171415Y51901D01*
X1172100Y53555D01*
Y55345D01*
X1171415Y56999D01*
X1170149Y58265D01*
X1168495Y58950D01*
D02*
G37*
G36*
X1139285D02*
X1137495D01*
X1135841Y58265D01*
X1134575Y56999D01*
X1133890Y55345D01*
Y53555D01*
X1134575Y51901D01*
X1135841Y50635D01*
X1137495Y49950D01*
X1139285D01*
X1140939Y50635D01*
X1142205Y51901D01*
X1142890Y53555D01*
Y55345D01*
X1142205Y56999D01*
X1140939Y58265D01*
X1139285Y58950D01*
D02*
G37*
G36*
X980755Y58215D02*
X978965D01*
X977311Y57530D01*
X976045Y56264D01*
X975360Y54610D01*
Y52820D01*
X976045Y51166D01*
X977311Y49900D01*
X978965Y49215D01*
X980755D01*
X982409Y49900D01*
X983675Y51166D01*
X984360Y52820D01*
Y54610D01*
X983675Y56264D01*
X982409Y57530D01*
X980755Y58215D01*
D02*
G37*
G36*
X1386465Y57840D02*
X1384675D01*
X1383021Y57155D01*
X1381755Y55889D01*
X1381070Y54235D01*
Y52445D01*
X1381755Y50791D01*
X1383021Y49525D01*
X1384675Y48840D01*
X1386465D01*
X1388119Y49525D01*
X1389385Y50791D01*
X1390070Y52445D01*
Y54235D01*
X1389385Y55889D01*
X1388119Y57155D01*
X1386465Y57840D01*
D02*
G37*
G36*
X1355985D02*
X1354195D01*
X1352541Y57155D01*
X1351275Y55889D01*
X1350590Y54235D01*
Y52445D01*
X1351275Y50791D01*
X1352541Y49525D01*
X1354195Y48840D01*
X1355985D01*
X1357639Y49525D01*
X1358905Y50791D01*
X1359590Y52445D01*
Y54235D01*
X1358905Y55889D01*
X1357639Y57155D01*
X1355985Y57840D01*
D02*
G37*
G36*
X1330585D02*
X1328795D01*
X1327141Y57155D01*
X1325875Y55889D01*
X1325190Y54235D01*
Y52445D01*
X1325875Y50791D01*
X1327141Y49525D01*
X1328795Y48840D01*
X1330585D01*
X1332239Y49525D01*
X1333505Y50791D01*
X1334190Y52445D01*
Y54235D01*
X1333505Y55889D01*
X1332239Y57155D01*
X1330585Y57840D01*
D02*
G37*
G36*
X825625Y49230D02*
X823835D01*
X822181Y48545D01*
X820915Y47279D01*
X820230Y45625D01*
Y43835D01*
X820915Y42181D01*
X822181Y40915D01*
X823835Y40230D01*
X825625D01*
X827279Y40915D01*
X828545Y42181D01*
X829230Y43835D01*
Y45625D01*
X828545Y47279D01*
X827279Y48545D01*
X825625Y49230D01*
D02*
G37*
G36*
X765625D02*
X763835D01*
X762181Y48545D01*
X760915Y47279D01*
X760230Y45625D01*
Y43835D01*
X760915Y42181D01*
X762181Y40915D01*
X763835Y40230D01*
X765625D01*
X767279Y40915D01*
X768545Y42181D01*
X769230Y43835D01*
Y45625D01*
X768545Y47279D01*
X767279Y48545D01*
X765625Y49230D01*
D02*
G37*
G36*
X705625D02*
X703835D01*
X702181Y48545D01*
X700915Y47279D01*
X700230Y45625D01*
Y43835D01*
X700915Y42181D01*
X702181Y40915D01*
X703835Y40230D01*
X705625D01*
X707279Y40915D01*
X708545Y42181D01*
X709230Y43835D01*
Y45625D01*
X708545Y47279D01*
X707279Y48545D01*
X705625Y49230D01*
D02*
G37*
G36*
X645625D02*
X643835D01*
X642181Y48545D01*
X640915Y47279D01*
X640230Y45625D01*
Y43835D01*
X640915Y42181D01*
X642181Y40915D01*
X643835Y40230D01*
X645625D01*
X647279Y40915D01*
X648545Y42181D01*
X649230Y43835D01*
Y45625D01*
X648545Y47279D01*
X647279Y48545D01*
X645625Y49230D01*
D02*
G37*
G36*
X285625D02*
X283835D01*
X282181Y48545D01*
X280915Y47279D01*
X280230Y45625D01*
Y43835D01*
X280915Y42181D01*
X282181Y40915D01*
X283835Y40230D01*
X285625D01*
X287279Y40915D01*
X288545Y42181D01*
X289230Y43835D01*
Y45625D01*
X288545Y47279D01*
X287279Y48545D01*
X285625Y49230D01*
D02*
G37*
G36*
X225625D02*
X223835D01*
X222181Y48545D01*
X220915Y47279D01*
X220230Y45625D01*
Y43835D01*
X220915Y42181D01*
X222181Y40915D01*
X223835Y40230D01*
X225625D01*
X227279Y40915D01*
X228545Y42181D01*
X229230Y43835D01*
Y45625D01*
X228545Y47279D01*
X227279Y48545D01*
X225625Y49230D01*
D02*
G37*
G36*
X165625D02*
X163835D01*
X162181Y48545D01*
X160915Y47279D01*
X160230Y45625D01*
Y43835D01*
X160915Y42181D01*
X162181Y40915D01*
X163835Y40230D01*
X165625D01*
X167279Y40915D01*
X168545Y42181D01*
X169230Y43835D01*
Y45625D01*
X168545Y47279D01*
X167279Y48545D01*
X165625Y49230D01*
D02*
G37*
G36*
X105625D02*
X103835D01*
X102181Y48545D01*
X100915Y47279D01*
X100230Y45625D01*
Y43835D01*
X100915Y42181D01*
X102181Y40915D01*
X103835Y40230D01*
X105625D01*
X107279Y40915D01*
X108545Y42181D01*
X109230Y43835D01*
Y45625D01*
X108545Y47279D01*
X107279Y48545D01*
X105625Y49230D01*
D02*
G37*
G36*
X891165Y47680D02*
X889375D01*
X887721Y46995D01*
X886455Y45729D01*
X885770Y44075D01*
Y42285D01*
X886455Y40631D01*
X887721Y39365D01*
X889375Y38680D01*
X891165D01*
X892819Y39365D01*
X894085Y40631D01*
X894770Y42285D01*
Y44075D01*
X894085Y45729D01*
X892819Y46995D01*
X891165Y47680D01*
D02*
G37*
G36*
X1007425Y44245D02*
X1005635D01*
X1003981Y43560D01*
X1002715Y42294D01*
X1002030Y40640D01*
Y38850D01*
X1002715Y37196D01*
X1003981Y35930D01*
X1005635Y35245D01*
X1007425D01*
X1009079Y35930D01*
X1010345Y37196D01*
X1011030Y38850D01*
Y40640D01*
X1010345Y42294D01*
X1009079Y43560D01*
X1007425Y44245D01*
D02*
G37*
G36*
X1217555Y43870D02*
X1215765D01*
X1214111Y43185D01*
X1212845Y41919D01*
X1212160Y40265D01*
Y38475D01*
X1212845Y36821D01*
X1214111Y35555D01*
X1215765Y34870D01*
X1217555D01*
X1219209Y35555D01*
X1220475Y36821D01*
X1221160Y38475D01*
Y40265D01*
X1220475Y41919D01*
X1219209Y43185D01*
X1217555Y43870D01*
D02*
G37*
G36*
X980755Y42975D02*
X978965D01*
X977311Y42290D01*
X976045Y41024D01*
X975360Y39370D01*
Y37580D01*
X976045Y35926D01*
X977311Y34660D01*
X978965Y33975D01*
X980755D01*
X982409Y34660D01*
X983675Y35926D01*
X984360Y37580D01*
Y39370D01*
X983675Y41024D01*
X982409Y42290D01*
X980755Y42975D01*
D02*
G37*
G36*
X1413135Y42600D02*
X1411345D01*
X1409691Y41915D01*
X1408425Y40649D01*
X1407740Y38995D01*
Y37205D01*
X1408425Y35551D01*
X1409691Y34285D01*
X1411345Y33600D01*
X1413135D01*
X1414789Y34285D01*
X1416055Y35551D01*
X1416740Y37205D01*
Y38995D01*
X1416055Y40649D01*
X1414789Y41915D01*
X1413135Y42600D01*
D02*
G37*
G36*
X1355985D02*
X1354195D01*
X1352541Y41915D01*
X1351275Y40649D01*
X1350590Y38995D01*
Y37205D01*
X1351275Y35551D01*
X1352541Y34285D01*
X1354195Y33600D01*
X1355985D01*
X1357639Y34285D01*
X1358905Y35551D01*
X1359590Y37205D01*
Y38995D01*
X1358905Y40649D01*
X1357639Y41915D01*
X1355985Y42600D01*
D02*
G37*
G36*
X1248035D02*
X1246245D01*
X1244591Y41915D01*
X1243325Y40649D01*
X1242640Y38995D01*
Y37205D01*
X1243325Y35551D01*
X1244591Y34285D01*
X1246245Y33600D01*
X1248035D01*
X1249689Y34285D01*
X1250955Y35551D01*
X1251640Y37205D01*
Y38995D01*
X1250955Y40649D01*
X1249689Y41915D01*
X1248035Y42600D01*
D02*
G37*
G36*
X1168495Y42440D02*
X1166705D01*
X1165051Y41755D01*
X1163785Y40489D01*
X1163100Y38835D01*
Y37045D01*
X1163785Y35391D01*
X1165051Y34125D01*
X1166705Y33440D01*
X1168495D01*
X1170149Y34125D01*
X1171415Y35391D01*
X1172100Y37045D01*
Y38835D01*
X1171415Y40489D01*
X1170149Y41755D01*
X1168495Y42440D01*
D02*
G37*
G36*
X1139285D02*
X1137495D01*
X1135841Y41755D01*
X1134575Y40489D01*
X1133890Y38835D01*
Y37045D01*
X1134575Y35391D01*
X1135841Y34125D01*
X1137495Y33440D01*
X1139285D01*
X1140939Y34125D01*
X1142205Y35391D01*
X1142890Y37045D01*
Y38835D01*
X1142205Y40489D01*
X1140939Y41755D01*
X1139285Y42440D01*
D02*
G37*
G36*
X1110075D02*
X1108285D01*
X1106631Y41755D01*
X1105365Y40489D01*
X1104680Y38835D01*
Y37045D01*
X1105365Y35391D01*
X1106631Y34125D01*
X1108285Y33440D01*
X1110075D01*
X1111729Y34125D01*
X1112995Y35391D01*
X1113680Y37045D01*
Y38835D01*
X1112995Y40489D01*
X1111729Y41755D01*
X1110075Y42440D01*
D02*
G37*
G36*
X1083405D02*
X1081615D01*
X1079961Y41755D01*
X1078695Y40489D01*
X1078010Y38835D01*
Y37045D01*
X1078695Y35391D01*
X1079961Y34125D01*
X1081615Y33440D01*
X1083405D01*
X1085059Y34125D01*
X1086325Y35391D01*
X1087010Y37045D01*
Y38835D01*
X1086325Y40489D01*
X1085059Y41755D01*
X1083405Y42440D01*
D02*
G37*
G36*
X1274125Y42225D02*
X1272335D01*
X1270681Y41540D01*
X1269415Y40274D01*
X1268730Y38620D01*
Y36830D01*
X1269415Y35176D01*
X1270681Y33910D01*
X1272335Y33225D01*
X1274125D01*
X1275779Y33910D01*
X1277045Y35176D01*
X1277730Y36830D01*
Y38620D01*
X1277045Y40274D01*
X1275779Y41540D01*
X1274125Y42225D01*
D02*
G37*
G36*
X1036635Y41705D02*
X1034845D01*
X1033191Y41020D01*
X1031925Y39754D01*
X1031240Y38100D01*
Y36310D01*
X1031925Y34656D01*
X1033191Y33390D01*
X1034845Y32705D01*
X1036635D01*
X1038289Y33390D01*
X1039555Y34656D01*
X1040240Y36310D01*
Y38100D01*
X1039555Y39754D01*
X1038289Y41020D01*
X1036635Y41705D01*
D02*
G37*
G36*
X1386465Y41330D02*
X1384675D01*
X1383021Y40645D01*
X1381755Y39379D01*
X1381070Y37725D01*
Y35935D01*
X1381755Y34281D01*
X1383021Y33015D01*
X1384675Y32330D01*
X1386465D01*
X1388119Y33015D01*
X1389385Y34281D01*
X1390070Y35935D01*
Y37725D01*
X1389385Y39379D01*
X1388119Y40645D01*
X1386465Y41330D01*
D02*
G37*
G36*
X1330585D02*
X1328795D01*
X1327141Y40645D01*
X1325875Y39379D01*
X1325190Y37725D01*
Y35935D01*
X1325875Y34281D01*
X1327141Y33015D01*
X1328795Y32330D01*
X1330585D01*
X1332239Y33015D01*
X1333505Y34281D01*
X1334190Y35935D01*
Y37725D01*
X1333505Y39379D01*
X1332239Y40645D01*
X1330585Y41330D01*
D02*
G37*
G36*
X1190885D02*
X1189095D01*
X1187441Y40645D01*
X1186175Y39379D01*
X1185490Y37725D01*
Y35935D01*
X1186175Y34281D01*
X1187441Y33015D01*
X1189095Y32330D01*
X1190885D01*
X1192539Y33015D01*
X1193805Y34281D01*
X1194490Y35935D01*
Y37725D01*
X1193805Y39379D01*
X1192539Y40645D01*
X1190885Y41330D01*
D02*
G37*
G36*
X1065155D02*
X1063365D01*
X1061711Y40645D01*
X1060445Y39379D01*
X1059760Y37725D01*
Y35935D01*
X1060445Y34281D01*
X1061711Y33015D01*
X1063365Y32330D01*
X1065155D01*
X1066809Y33015D01*
X1068075Y34281D01*
X1068760Y35935D01*
Y37725D01*
X1068075Y39379D01*
X1066809Y40645D01*
X1065155Y41330D01*
D02*
G37*
G36*
X980755Y27735D02*
X978965D01*
X977311Y27050D01*
X976045Y25784D01*
X975360Y24130D01*
Y22340D01*
X976045Y20686D01*
X977311Y19420D01*
X978965Y18735D01*
X980755D01*
X982409Y19420D01*
X983675Y20686D01*
X984360Y22340D01*
Y24130D01*
X983675Y25784D01*
X982409Y27050D01*
X980755Y27735D01*
D02*
G37*
G36*
X1248035Y27360D02*
X1246245D01*
X1244591Y26675D01*
X1243325Y25409D01*
X1242640Y23755D01*
Y21965D01*
X1243325Y20311D01*
X1244591Y19045D01*
X1246245Y18360D01*
X1248035D01*
X1249689Y19045D01*
X1250955Y20311D01*
X1251640Y21965D01*
Y23755D01*
X1250955Y25409D01*
X1249689Y26675D01*
X1248035Y27360D01*
D02*
G37*
G36*
X1274125Y26985D02*
X1272335D01*
X1270681Y26300D01*
X1269415Y25034D01*
X1268730Y23380D01*
Y21590D01*
X1269415Y19936D01*
X1270681Y18670D01*
X1272335Y17985D01*
X1274125D01*
X1275779Y18670D01*
X1277045Y19936D01*
X1277730Y21590D01*
Y23380D01*
X1277045Y25034D01*
X1275779Y26300D01*
X1274125Y26985D01*
D02*
G37*
G36*
X1007425Y26465D02*
X1005635D01*
X1003981Y25780D01*
X1002715Y24514D01*
X1002030Y22860D01*
Y21070D01*
X1002715Y19416D01*
X1003981Y18150D01*
X1005635Y17465D01*
X1007425D01*
X1009079Y18150D01*
X1010345Y19416D01*
X1011030Y21070D01*
Y22860D01*
X1010345Y24514D01*
X1009079Y25780D01*
X1007425Y26465D01*
D02*
G37*
G36*
X1217555Y26090D02*
X1215765D01*
X1214111Y25405D01*
X1212845Y24139D01*
X1212160Y22485D01*
Y20695D01*
X1212845Y19041D01*
X1214111Y17775D01*
X1215765Y17090D01*
X1217555D01*
X1219209Y17775D01*
X1220475Y19041D01*
X1221160Y20695D01*
Y22485D01*
X1220475Y24139D01*
X1219209Y25405D01*
X1217555Y26090D01*
D02*
G37*
G36*
X1036635Y25195D02*
X1034845D01*
X1033191Y24510D01*
X1031925Y23244D01*
X1031240Y21590D01*
Y19800D01*
X1031925Y18146D01*
X1033191Y16880D01*
X1034845Y16195D01*
X1036635D01*
X1038289Y16880D01*
X1039555Y18146D01*
X1040240Y19800D01*
Y21590D01*
X1039555Y23244D01*
X1038289Y24510D01*
X1036635Y25195D01*
D02*
G37*
G36*
X1413135Y24820D02*
X1411345D01*
X1409691Y24135D01*
X1408425Y22869D01*
X1407740Y21215D01*
Y19425D01*
X1408425Y17771D01*
X1409691Y16505D01*
X1411345Y15820D01*
X1413135D01*
X1414789Y16505D01*
X1416055Y17771D01*
X1416740Y19425D01*
Y21215D01*
X1416055Y22869D01*
X1414789Y24135D01*
X1413135Y24820D01*
D02*
G37*
G36*
X1386465D02*
X1384675D01*
X1383021Y24135D01*
X1381755Y22869D01*
X1381070Y21215D01*
Y19425D01*
X1381755Y17771D01*
X1383021Y16505D01*
X1384675Y15820D01*
X1386465D01*
X1388119Y16505D01*
X1389385Y17771D01*
X1390070Y19425D01*
Y21215D01*
X1389385Y22869D01*
X1388119Y24135D01*
X1386465Y24820D01*
D02*
G37*
G36*
X1355985D02*
X1354195D01*
X1352541Y24135D01*
X1351275Y22869D01*
X1350590Y21215D01*
Y19425D01*
X1351275Y17771D01*
X1352541Y16505D01*
X1354195Y15820D01*
X1355985D01*
X1357639Y16505D01*
X1358905Y17771D01*
X1359590Y19425D01*
Y21215D01*
X1358905Y22869D01*
X1357639Y24135D01*
X1355985Y24820D01*
D02*
G37*
G36*
X1329315D02*
X1327525D01*
X1325871Y24135D01*
X1324605Y22869D01*
X1323920Y21215D01*
Y19425D01*
X1324605Y17771D01*
X1325871Y16505D01*
X1327525Y15820D01*
X1329315D01*
X1330969Y16505D01*
X1332235Y17771D01*
X1332920Y19425D01*
Y21215D01*
X1332235Y22869D01*
X1330969Y24135D01*
X1329315Y24820D01*
D02*
G37*
G36*
X1190885D02*
X1189095D01*
X1187441Y24135D01*
X1186175Y22869D01*
X1185490Y21215D01*
Y19425D01*
X1186175Y17771D01*
X1187441Y16505D01*
X1189095Y15820D01*
X1190885D01*
X1192539Y16505D01*
X1193805Y17771D01*
X1194490Y19425D01*
Y21215D01*
X1193805Y22869D01*
X1192539Y24135D01*
X1190885Y24820D01*
D02*
G37*
G36*
X1065155D02*
X1063365D01*
X1061711Y24135D01*
X1060445Y22869D01*
X1059760Y21215D01*
Y19425D01*
X1060445Y17771D01*
X1061711Y16505D01*
X1063365Y15820D01*
X1065155D01*
X1066809Y16505D01*
X1068075Y17771D01*
X1068760Y19425D01*
Y21215D01*
X1068075Y22869D01*
X1066809Y24135D01*
X1065155Y24820D01*
D02*
G37*
G36*
X1139285Y24660D02*
X1137495D01*
X1135841Y23975D01*
X1134575Y22709D01*
X1133890Y21055D01*
Y19265D01*
X1134575Y17611D01*
X1135841Y16345D01*
X1137495Y15660D01*
X1139285D01*
X1140939Y16345D01*
X1142205Y17611D01*
X1142890Y19265D01*
Y21055D01*
X1142205Y22709D01*
X1140939Y23975D01*
X1139285Y24660D01*
D02*
G37*
G36*
X1110075D02*
X1108285D01*
X1106631Y23975D01*
X1105365Y22709D01*
X1104680Y21055D01*
Y19265D01*
X1105365Y17611D01*
X1106631Y16345D01*
X1108285Y15660D01*
X1110075D01*
X1111729Y16345D01*
X1112995Y17611D01*
X1113680Y19265D01*
Y21055D01*
X1112995Y22709D01*
X1111729Y23975D01*
X1110075Y24660D01*
D02*
G37*
%LPD*%
G36*
X586274Y788670D02*
X737181D01*
X737986Y787404D01*
X733548Y777930D01*
X731895D01*
X730241Y777245D01*
X728975Y775979D01*
X728290Y774325D01*
Y772535D01*
X728975Y770881D01*
X729840Y770016D01*
X729060Y768350D01*
X707390D01*
X649605Y767715D01*
X624543Y746463D01*
X621109Y749897D01*
X623312Y747445D01*
X622701Y746075D01*
X154940D01*
Y759460D01*
X208280D01*
X247650Y798830D01*
X266700Y779780D01*
Y765810D01*
X327660D01*
X371205Y809355D01*
X567690D01*
X586274Y788670D01*
D02*
G37*
%LPC*%
G36*
X400945Y807140D02*
X399155D01*
X397501Y806455D01*
X396235Y805189D01*
X395550Y803535D01*
Y801745D01*
X396235Y800091D01*
X397501Y798825D01*
X399155Y798140D01*
X400945D01*
X402599Y798825D01*
X403865Y800091D01*
X404550Y801745D01*
Y803535D01*
X403865Y805189D01*
X402599Y806455D01*
X400945Y807140D01*
D02*
G37*
G36*
X469525Y805870D02*
X467735D01*
X466081Y805185D01*
X464815Y803919D01*
X464130Y802265D01*
Y800475D01*
X464815Y798821D01*
X466081Y797555D01*
X467735Y796870D01*
X469525D01*
X471179Y797555D01*
X472445Y798821D01*
X473130Y800475D01*
Y802265D01*
X472445Y803919D01*
X471179Y805185D01*
X469525Y805870D01*
D02*
G37*
G36*
X239655Y769040D02*
X237865D01*
X236211Y768355D01*
X234945Y767089D01*
X234260Y765435D01*
Y763645D01*
X234945Y761991D01*
X236211Y760725D01*
X237865Y760040D01*
X239655D01*
X241309Y760725D01*
X242575Y761991D01*
X243260Y763645D01*
Y765435D01*
X242575Y767089D01*
X241309Y768355D01*
X239655Y769040D01*
D02*
G37*
G36*
X425075Y763960D02*
X423285D01*
X421631Y763275D01*
X420365Y762009D01*
X419680Y760355D01*
Y758565D01*
X420365Y756911D01*
X421631Y755645D01*
X423285Y754960D01*
X425075D01*
X426729Y755645D01*
X427995Y756911D01*
X428680Y758565D01*
Y760355D01*
X427995Y762009D01*
X426729Y763275D01*
X425075Y763960D01*
D02*
G37*
G36*
X585470Y763380D02*
X583680D01*
X582026Y762695D01*
X580760Y761429D01*
X580075Y759775D01*
Y757985D01*
X580760Y756331D01*
X582026Y755065D01*
X583680Y754380D01*
X585470D01*
X587124Y755065D01*
X588390Y756331D01*
X589075Y757985D01*
Y759775D01*
X588390Y761429D01*
X587124Y762695D01*
X585470Y763380D01*
D02*
G37*
G36*
X509790D02*
X508000D01*
X506346Y762695D01*
X505080Y761429D01*
X504395Y759775D01*
Y757985D01*
X505080Y756331D01*
X506346Y755065D01*
X508000Y754380D01*
X509790D01*
X511444Y755065D01*
X512710Y756331D01*
X513395Y757985D01*
Y759775D01*
X512710Y761429D01*
X511444Y762695D01*
X509790Y763380D01*
D02*
G37*
G36*
X240925Y757610D02*
X239135D01*
X237481Y756925D01*
X236215Y755659D01*
X235530Y754005D01*
Y752215D01*
X236215Y750561D01*
X237481Y749295D01*
X239135Y748610D01*
X240925D01*
X242579Y749295D01*
X243845Y750561D01*
X244530Y752215D01*
Y754005D01*
X243845Y755659D01*
X242579Y756925D01*
X240925Y757610D01*
D02*
G37*
G36*
X309505Y98480D02*
X307715D01*
X306061Y97795D01*
X304795Y96529D01*
X304336Y95420D01*
X302724D01*
X302265Y96529D01*
X300999Y97795D01*
X299345Y98480D01*
X297555D01*
X295901Y97795D01*
X294635Y96529D01*
X293950Y94875D01*
Y93085D01*
X294635Y91431D01*
X295901Y90165D01*
X297555Y89480D01*
X299345D01*
X300999Y90165D01*
X302265Y91431D01*
X302724Y92540D01*
X304336D01*
X304795Y91431D01*
X306061Y90165D01*
X307715Y89480D01*
X309505D01*
X311159Y90165D01*
X312425Y91431D01*
X313110Y93085D01*
Y94875D01*
X312425Y96529D01*
X311159Y97795D01*
X309505Y98480D01*
D02*
G37*
G36*
X320935D02*
X319145D01*
X317491Y97795D01*
X316225Y96529D01*
X315540Y94875D01*
Y93085D01*
X316225Y91431D01*
X317491Y90165D01*
X319145Y89480D01*
X320935D01*
X322589Y90165D01*
X323855Y91431D01*
X324540Y93085D01*
Y94875D01*
X323855Y96529D01*
X322589Y97795D01*
X320935Y98480D01*
D02*
G37*
G36*
X1164210Y229281D02*
X1162420D01*
X1160766Y228596D01*
X1159500Y227330D01*
X1158815Y225676D01*
Y223886D01*
X1159500Y222232D01*
X1160766Y220966D01*
X1162420Y220281D01*
X1164210D01*
X1165864Y220966D01*
X1167130Y222232D01*
X1167815Y223886D01*
Y225676D01*
X1167130Y227330D01*
X1165864Y228596D01*
X1164210Y229281D01*
D02*
G37*
G36*
X1227715Y224210D02*
X1225925D01*
X1224271Y223525D01*
X1223005Y222259D01*
X1222320Y220605D01*
Y218815D01*
X1223005Y217161D01*
X1224271Y215895D01*
X1225925Y215210D01*
X1227715D01*
X1229369Y215895D01*
X1230635Y217161D01*
X1231320Y218815D01*
Y220605D01*
X1230635Y222259D01*
X1229369Y223525D01*
X1227715Y224210D01*
D02*
G37*
G36*
X1213745Y212780D02*
X1211955D01*
X1210301Y212095D01*
X1209035Y210829D01*
X1208350Y209175D01*
Y207385D01*
X1209035Y205731D01*
X1210301Y204465D01*
X1211955Y203780D01*
X1213745D01*
X1215399Y204465D01*
X1216665Y205731D01*
X1217350Y207385D01*
Y209175D01*
X1216665Y210829D01*
X1215399Y212095D01*
X1213745Y212780D01*
D02*
G37*
%LPD*%
D54*
X1311910Y976630D02*
D03*
X471170Y222250D02*
D03*
X201930Y218440D02*
D03*
X436880Y86360D02*
D03*
X105410Y778510D02*
D03*
X709930Y659130D02*
D03*
X855980D02*
D03*
X67310Y216446D02*
D03*
X339090Y219710D02*
D03*
X631190Y659130D02*
D03*
X779780D02*
D03*
D55*
X1286510Y976630D02*
D03*
X257810Y394970D02*
D03*
X199390D02*
D03*
X140970D02*
D03*
X82550D02*
D03*
X496570Y222250D02*
D03*
X227330Y218440D02*
D03*
X53340Y420370D02*
D03*
X287020D02*
D03*
X316230D02*
D03*
X345440D02*
D03*
X374650D02*
D03*
X403860D02*
D03*
X411480Y86360D02*
D03*
X433070Y420370D02*
D03*
X462280D02*
D03*
X491490D02*
D03*
X520700D02*
D03*
X549910D02*
D03*
X579120D02*
D03*
X130810Y778510D02*
D03*
X735330Y659130D02*
D03*
X881380D02*
D03*
X92710Y216446D02*
D03*
X364490Y219710D02*
D03*
X111760Y420370D02*
D03*
X170180D02*
D03*
X228600D02*
D03*
X637540D02*
D03*
X695960Y394970D02*
D03*
X608330Y420370D02*
D03*
X666750Y394970D02*
D03*
X656590Y659130D02*
D03*
X805180D02*
D03*
D56*
X257810Y420370D02*
D03*
X199390D02*
D03*
X140970D02*
D03*
X82550D02*
D03*
X53340Y394970D02*
D03*
X287020D02*
D03*
X316230D02*
D03*
X345440D02*
D03*
X374650D02*
D03*
X403860D02*
D03*
X433070D02*
D03*
X462280D02*
D03*
X491490D02*
D03*
X520700D02*
D03*
X549910D02*
D03*
X579120D02*
D03*
X111760D02*
D03*
X170180D02*
D03*
X228600D02*
D03*
X637540D02*
D03*
X695960Y420370D02*
D03*
X608330Y394970D02*
D03*
X666750Y420370D02*
D03*
D64*
X1343828Y85090D02*
G03*
X1361788Y92529I0J25400D01*
G01*
X1219200Y100330D02*
G03*
X1234440Y85090I15240J0D01*
G01*
X1108891Y107769D02*
G03*
X1126851Y100330I17960J17960D01*
G01*
X1130300Y201930D02*
X1145540D01*
X1117600D02*
X1130300D01*
X1145540D02*
X1184048D01*
X1219200Y166779D01*
X1361788Y92529D02*
X1391730Y122471D01*
X1281430Y85090D02*
X1343828D01*
X1234440D02*
X1281430D01*
X1219200Y100330D02*
Y166779D01*
X1206500Y100330D02*
X1219200D01*
X1101090Y115570D02*
X1108891Y107769D01*
X1126851Y100330D02*
X1177290D01*
X1192530D01*
X1206500D01*
D72*
X1356370Y924460D02*
D03*
X932170D02*
D03*
X1356370Y236160D02*
D03*
X932170D02*
D03*
X50800Y967740D02*
D03*
X1471930D02*
D03*
Y48260D02*
D03*
X50800D02*
D03*
D74*
X1347470Y309760D02*
D03*
X1372870D02*
D03*
X1347470Y335160D02*
D03*
X1372870D02*
D03*
X1347470Y360560D02*
D03*
X1372870D02*
D03*
X1347470Y385960D02*
D03*
X1372870D02*
D03*
X1347470Y411360D02*
D03*
X1372870D02*
D03*
X1347470Y436760D02*
D03*
X1372870D02*
D03*
X1347470Y462160D02*
D03*
X1372870D02*
D03*
X1347470Y487560D02*
D03*
X1372870D02*
D03*
X1347470Y512960D02*
D03*
X1372870D02*
D03*
X1347470Y538360D02*
D03*
X1372870D02*
D03*
X1347470Y563760D02*
D03*
X1372870D02*
D03*
X1347470Y589160D02*
D03*
X1372870D02*
D03*
X1347470Y614560D02*
D03*
X1372870D02*
D03*
X1347470Y639960D02*
D03*
X1372870D02*
D03*
X1347470Y665360D02*
D03*
X1372870D02*
D03*
X1347470Y690760D02*
D03*
X1372870D02*
D03*
X1347470Y716160D02*
D03*
X1372870D02*
D03*
X1347470Y741560D02*
D03*
X1372870D02*
D03*
X1347470Y766960D02*
D03*
X1372870D02*
D03*
X1347470Y792360D02*
D03*
X1372870D02*
D03*
X939770D02*
D03*
X914370D02*
D03*
X939770Y766960D02*
D03*
X914370D02*
D03*
X939770Y741560D02*
D03*
X914370D02*
D03*
X939770Y716160D02*
D03*
X914370D02*
D03*
X939770Y690760D02*
D03*
X914370D02*
D03*
X939770Y665360D02*
D03*
X914370D02*
D03*
X939770Y639960D02*
D03*
X914370D02*
D03*
X939770Y614560D02*
D03*
X914370D02*
D03*
X939770Y589160D02*
D03*
X914370D02*
D03*
X939770Y563760D02*
D03*
X914370D02*
D03*
X939770Y538360D02*
D03*
X914370D02*
D03*
X939770Y512960D02*
D03*
X914370D02*
D03*
X939770Y487560D02*
D03*
X914370D02*
D03*
X939770Y462160D02*
D03*
X914370D02*
D03*
X939770Y436760D02*
D03*
X914370D02*
D03*
X939770Y411360D02*
D03*
X914370D02*
D03*
X939770Y385960D02*
D03*
X914370D02*
D03*
X939770Y360560D02*
D03*
X914370D02*
D03*
X939770Y335160D02*
D03*
X914370D02*
D03*
X939770Y309760D02*
D03*
X914370D02*
D03*
D76*
X152400Y659130D02*
D03*
X283210D02*
D03*
X453390D02*
D03*
X589280D02*
D03*
D77*
X177800D02*
D03*
X203200D02*
D03*
X334010D02*
D03*
X308610D02*
D03*
X402590D02*
D03*
X427990D02*
D03*
X538480D02*
D03*
X563880D02*
D03*
D78*
X46600Y892810D02*
D03*
X101600D02*
D03*
D79*
X106600Y865310D02*
D03*
X114600Y920310D02*
D03*
D80*
X128600Y892810D02*
D03*
D81*
X1302965Y524730D02*
D03*
Y644730D02*
D03*
X1274730Y584730D02*
D03*
X1244730Y644730D02*
D03*
X1214730Y584730D02*
D03*
X1184730Y644730D02*
D03*
X1334730Y464730D02*
D03*
X1211587Y707873D02*
D03*
X1124730Y764730D02*
D03*
X1034730Y704730D02*
D03*
X1244730Y764730D02*
D03*
X1004730D02*
D03*
X1064730D02*
D03*
X974730Y704730D02*
D03*
X1184730Y764730D02*
D03*
X1274730Y824730D02*
D03*
X1034730Y584730D02*
D03*
X1154730Y704730D02*
D03*
X1124730Y644730D02*
D03*
X1094730Y584730D02*
D03*
X1064730Y524730D02*
D03*
X1074475Y284730D02*
D03*
X1040488Y350488D02*
D03*
X1004730Y404730D02*
D03*
X1064730D02*
D03*
X1228090Y248920D02*
D03*
X1243330Y262890D02*
D03*
X1262380Y281940D02*
D03*
X1280160Y298450D02*
D03*
X1296670Y313690D02*
D03*
X1313180Y328930D02*
D03*
X1330960Y344170D02*
D03*
X1324610Y306070D02*
D03*
X1311910Y295910D02*
D03*
X1250950Y302260D02*
D03*
X1299210Y284480D02*
D03*
X1285240Y271780D02*
D03*
X1270000Y257810D02*
D03*
X1163315Y224781D02*
D03*
X1145540Y201930D02*
D03*
X1212850Y208280D02*
D03*
X1202690Y275590D02*
D03*
X1176020Y241300D02*
D03*
X1189990Y259080D02*
D03*
X1200150Y242570D02*
D03*
X1216660Y294640D02*
D03*
X1223010Y269240D02*
D03*
X1212850Y256540D02*
D03*
X1266190Y320040D02*
D03*
X1236980Y284480D02*
D03*
X1242640Y232785D02*
D03*
X1257300Y245110D02*
D03*
X1226820Y219710D02*
D03*
X896620Y435610D02*
D03*
X795020Y789940D02*
D03*
X1064260Y228600D02*
D03*
Y187960D02*
D03*
Y203160D02*
D03*
Y216535D02*
D03*
X1154730Y824730D02*
D03*
X1274730Y944730D02*
D03*
X974730Y464730D02*
D03*
X1244730Y884730D02*
D03*
X1214730Y824730D02*
D03*
X1034730D02*
D03*
X1094730D02*
D03*
X1124730Y884730D02*
D03*
X1184730D02*
D03*
X1154730Y944730D02*
D03*
X1214730D02*
D03*
X1094730Y704730D02*
D03*
X848360Y375920D02*
D03*
X835660Y379730D02*
D03*
X853721Y703721D02*
D03*
X794730Y704730D02*
D03*
X1231900Y312420D02*
D03*
X1245870Y331470D02*
D03*
X1258570Y349250D02*
D03*
X1273810Y369570D02*
D03*
X1287780Y387350D02*
D03*
X1301750Y403860D02*
D03*
X1313180Y419100D02*
D03*
X1328420Y427990D02*
D03*
X1281430Y336550D02*
D03*
X1295400Y353060D02*
D03*
X1308100Y368300D02*
D03*
X1455420Y146050D02*
D03*
X979170Y101600D02*
D03*
X924560Y100330D02*
D03*
X861060Y101600D02*
D03*
X890270Y43180D02*
D03*
X1424730Y884730D02*
D03*
X1454730Y824730D02*
D03*
X1424730Y764730D02*
D03*
X1454730Y704730D02*
D03*
X1424730Y644730D02*
D03*
X1454730Y584730D02*
D03*
X1424730Y524730D02*
D03*
X1454730Y464730D02*
D03*
X1424730Y404730D02*
D03*
X1454730Y344730D02*
D03*
X1424730Y284730D02*
D03*
X1454730Y224730D02*
D03*
X1394730Y944730D02*
D03*
X1364730Y884730D02*
D03*
X1394730Y824730D02*
D03*
Y704730D02*
D03*
Y584730D02*
D03*
Y344730D02*
D03*
X1364730Y284730D02*
D03*
X1394730Y224730D02*
D03*
X1334730Y704730D02*
D03*
Y584730D02*
D03*
X1244730Y524730D02*
D03*
Y404730D02*
D03*
X1184730Y524730D02*
D03*
X1214730Y464730D02*
D03*
X1184730Y404730D02*
D03*
X1214730Y344730D02*
D03*
X1184730Y284730D02*
D03*
X1124730Y524730D02*
D03*
X1154730Y464730D02*
D03*
X1124730Y404730D02*
D03*
Y284730D02*
D03*
X1094730Y944730D02*
D03*
X1064730Y884730D02*
D03*
Y644730D02*
D03*
X1094730Y464730D02*
D03*
Y344730D02*
D03*
X1034730Y944730D02*
D03*
X1004730Y884730D02*
D03*
Y644730D02*
D03*
Y524730D02*
D03*
X1034730Y464730D02*
D03*
X1004730Y284730D02*
D03*
Y164730D02*
D03*
X974730Y944730D02*
D03*
X944730Y884730D02*
D03*
X974730Y824730D02*
D03*
Y584730D02*
D03*
Y344730D02*
D03*
X944730Y284730D02*
D03*
X974730Y224730D02*
D03*
X944730Y164730D02*
D03*
X884730Y884730D02*
D03*
Y524730D02*
D03*
Y284730D02*
D03*
Y164730D02*
D03*
X854730Y944730D02*
D03*
X824730Y884730D02*
D03*
Y764730D02*
D03*
Y644730D02*
D03*
X854730Y584730D02*
D03*
X824730Y524730D02*
D03*
X854730Y344730D02*
D03*
Y224730D02*
D03*
X824730Y164730D02*
D03*
Y44730D02*
D03*
X794730Y944730D02*
D03*
X764730Y884730D02*
D03*
Y644730D02*
D03*
Y404730D02*
D03*
X794730Y344730D02*
D03*
X764730Y284730D02*
D03*
X794730Y224730D02*
D03*
X764730Y164730D02*
D03*
X794730Y104730D02*
D03*
X764730Y44730D02*
D03*
X734730Y944730D02*
D03*
X704730Y884730D02*
D03*
X734730Y704730D02*
D03*
X704730Y644730D02*
D03*
Y524730D02*
D03*
Y404730D02*
D03*
X734730Y224730D02*
D03*
Y104730D02*
D03*
X704730Y44730D02*
D03*
X674730Y944730D02*
D03*
Y704730D02*
D03*
X644730Y644730D02*
D03*
X674730Y344730D02*
D03*
X644730Y164730D02*
D03*
X674730Y104730D02*
D03*
X644730Y44730D02*
D03*
X614730Y944730D02*
D03*
X584730Y884730D02*
D03*
Y644730D02*
D03*
X614730Y584730D02*
D03*
Y464730D02*
D03*
Y224730D02*
D03*
Y104730D02*
D03*
X554730Y944730D02*
D03*
Y584730D02*
D03*
X524730Y524730D02*
D03*
Y164730D02*
D03*
X554730Y104730D02*
D03*
X494730Y944730D02*
D03*
X464730Y884730D02*
D03*
Y644730D02*
D03*
Y524730D02*
D03*
X494730Y344730D02*
D03*
X464730Y284730D02*
D03*
X494730Y104730D02*
D03*
X434730Y944730D02*
D03*
X404730Y884730D02*
D03*
X434730Y584730D02*
D03*
X404730Y524730D02*
D03*
X434730Y344730D02*
D03*
X404730Y164730D02*
D03*
X434730Y104730D02*
D03*
X374730Y944730D02*
D03*
X344730Y884730D02*
D03*
X374730Y464730D02*
D03*
Y344730D02*
D03*
X344730Y164730D02*
D03*
X314730Y944730D02*
D03*
X284730Y884730D02*
D03*
X314730Y704730D02*
D03*
Y584730D02*
D03*
X284730Y524730D02*
D03*
X314730Y464730D02*
D03*
Y224730D02*
D03*
X284730Y164730D02*
D03*
Y44730D02*
D03*
X254730Y944730D02*
D03*
X224730Y524730D02*
D03*
X254730Y464730D02*
D03*
Y344730D02*
D03*
X224730Y44730D02*
D03*
X194730Y944730D02*
D03*
X164730Y884730D02*
D03*
X194730Y824730D02*
D03*
Y704730D02*
D03*
Y584730D02*
D03*
X164730Y284730D02*
D03*
Y164730D02*
D03*
X194730Y104730D02*
D03*
X164730Y44730D02*
D03*
X134730Y944730D02*
D03*
Y824730D02*
D03*
X104730Y764730D02*
D03*
X134730Y464730D02*
D03*
X104730Y164730D02*
D03*
X134730Y104730D02*
D03*
X104730Y44730D02*
D03*
X74730Y824730D02*
D03*
X44730Y764730D02*
D03*
X74730Y704730D02*
D03*
X44730Y644730D02*
D03*
Y524730D02*
D03*
X74730Y464730D02*
D03*
Y344730D02*
D03*
X44730Y284730D02*
D03*
Y164730D02*
D03*
X74730Y104730D02*
D03*
X584575Y758880D02*
D03*
X508895D02*
D03*
X468630Y801370D02*
D03*
X424180Y759460D02*
D03*
X400050Y802640D02*
D03*
X309685Y59335D02*
D03*
X1322070Y384810D02*
D03*
X1334770Y402590D02*
D03*
X1066800Y153670D02*
D03*
X1068190Y101440D02*
D03*
X1275080Y171450D02*
D03*
X1130300Y201930D02*
D03*
X1117600D02*
D03*
X1337310Y193040D02*
D03*
X1328420Y201930D02*
D03*
X1082040Y186690D02*
D03*
X196850Y534670D02*
D03*
X323850Y535940D02*
D03*
X455930Y538480D02*
D03*
X308610Y93980D02*
D03*
X298450D02*
D03*
X320040D02*
D03*
X377190Y77470D02*
D03*
X266831Y93585D02*
D03*
X816610Y424180D02*
D03*
X732790Y773430D02*
D03*
X741680Y807720D02*
D03*
X783590Y789940D02*
D03*
X240030Y753110D02*
D03*
X179070Y792480D02*
D03*
X307340Y779780D02*
D03*
X608965Y338455D02*
D03*
X581660Y344170D02*
D03*
X557530D02*
D03*
X531398Y338358D02*
D03*
X525585Y325249D02*
D03*
X478790Y339090D02*
D03*
Y327660D02*
D03*
X347980Y340360D02*
D03*
Y328930D02*
D03*
X196850Y332740D02*
D03*
X205740Y326390D02*
D03*
X31750Y297180D02*
D03*
X43180D02*
D03*
X580232Y517580D02*
D03*
X565150Y524510D02*
D03*
Y535940D02*
D03*
X430530Y518160D02*
D03*
Y528320D02*
D03*
X300990Y511810D02*
D03*
X303530Y523240D02*
D03*
X147320Y514350D02*
D03*
X154940Y521970D02*
D03*
X586740Y892810D02*
D03*
X1164590Y139700D02*
D03*
X1153160Y162560D02*
D03*
X580390Y285750D02*
D03*
X453390Y273050D02*
D03*
X485140D02*
D03*
X314960Y279400D02*
D03*
X336550Y271780D02*
D03*
X224790Y273050D02*
D03*
X186690Y271780D02*
D03*
X73660Y270510D02*
D03*
X549910Y577850D02*
D03*
X396240Y579120D02*
D03*
X266700Y577850D02*
D03*
X167640Y574040D02*
D03*
X502920Y915670D02*
D03*
X603250Y190500D02*
D03*
X614680Y201930D02*
D03*
X627380Y213360D02*
D03*
X654050Y238760D02*
D03*
X1177290Y100330D02*
D03*
X1192530D02*
D03*
X1206500D02*
D03*
X543560Y800100D02*
D03*
X563880D02*
D03*
X687070Y839470D02*
D03*
X152400Y896620D02*
D03*
X145155Y892120D02*
D03*
X153670Y911860D02*
D03*
X144780D02*
D03*
X142240Y864870D02*
D03*
X152400D02*
D03*
X158750Y869950D02*
D03*
X347980Y317500D02*
D03*
X430530Y539750D02*
D03*
X303530Y534670D02*
D03*
X146050Y854710D02*
D03*
Y875030D02*
D03*
X205740Y913130D02*
D03*
X195530Y913700D02*
D03*
X614680Y320040D02*
D03*
X478790Y316230D02*
D03*
X328930Y582930D02*
D03*
X66040Y553720D02*
D03*
X168910Y295910D02*
D03*
X715010Y311150D02*
D03*
X574040Y304800D02*
D03*
X441960Y309880D02*
D03*
X302260Y311150D02*
D03*
X87630Y270510D02*
D03*
X568960Y577850D02*
D03*
X455930Y580390D02*
D03*
X198120Y574040D02*
D03*
X885190Y425450D02*
D03*
X727710Y749300D02*
D03*
X732790Y361950D02*
D03*
X878840Y486410D02*
D03*
X1101090Y115570D02*
D03*
X1035740Y54985D02*
D03*
X1339850Y114300D02*
D03*
X208280Y316230D02*
D03*
X542095Y271325D02*
D03*
X408745D02*
D03*
X270315D02*
D03*
X1163320Y162560D02*
D03*
X262695Y234495D02*
D03*
X501650Y621030D02*
D03*
X497840Y572770D02*
D03*
X1315720Y205740D02*
D03*
X95250Y572770D02*
D03*
X364730D02*
D03*
X237490D02*
D03*
X1067380Y127375D02*
D03*
X370453Y619117D02*
D03*
X360592Y630737D02*
D03*
X292105Y577841D02*
D03*
X245110Y615950D02*
D03*
X102870Y612140D02*
D03*
X66040Y571500D02*
D03*
X529590Y577850D02*
D03*
X369570Y656590D02*
D03*
X252730Y660400D02*
D03*
X134620Y575310D02*
D03*
X234950Y629920D02*
D03*
X427990Y580390D02*
D03*
X490220Y631190D02*
D03*
X509270Y656590D02*
D03*
X138235Y271325D02*
D03*
X1167600Y18890D02*
D03*
Y37940D02*
D03*
Y54450D02*
D03*
X1064260Y20320D02*
D03*
Y36830D02*
D03*
Y57150D02*
D03*
X1370330Y162560D02*
D03*
X1412240Y20320D02*
D03*
Y38100D02*
D03*
Y54610D02*
D03*
X1328420Y20320D02*
D03*
X1329690Y36830D02*
D03*
Y53340D02*
D03*
X979860Y53715D02*
D03*
Y38475D02*
D03*
Y23235D02*
D03*
X1035740Y20695D02*
D03*
Y37205D02*
D03*
X1273230Y22485D02*
D03*
Y37725D02*
D03*
Y55505D02*
D03*
X1246030Y141210D02*
D03*
X1120520Y135160D02*
D03*
X1385570Y20320D02*
D03*
Y36830D02*
D03*
Y53340D02*
D03*
X1355090Y20320D02*
D03*
Y38100D02*
D03*
Y53340D02*
D03*
X1109180Y20160D02*
D03*
Y37940D02*
D03*
Y55720D02*
D03*
X1247140Y22860D02*
D03*
Y38100D02*
D03*
Y54610D02*
D03*
X1216660Y21590D02*
D03*
Y39370D02*
D03*
Y54610D02*
D03*
X1189990Y20320D02*
D03*
Y36830D02*
D03*
Y54610D02*
D03*
X1138390Y20160D02*
D03*
Y37940D02*
D03*
Y54450D02*
D03*
X1082510Y18890D02*
D03*
Y37940D02*
D03*
Y55720D02*
D03*
X1006530Y21965D02*
D03*
Y39745D02*
D03*
Y54985D02*
D03*
X195580Y902970D02*
D03*
Y892810D02*
D03*
X208280Y902970D02*
D03*
Y892810D02*
D03*
X200341Y869700D02*
D03*
X106680Y830580D02*
D03*
Y839470D02*
D03*
Y849630D02*
D03*
X114300Y955040D02*
D03*
Y944880D02*
D03*
Y935990D02*
D03*
X152400Y902970D02*
D03*
X146050D02*
D03*
X830580Y468630D02*
D03*
X163830Y751840D02*
D03*
X1391730Y122471D02*
D03*
X722630Y816610D02*
D03*
X1301750Y140970D02*
D03*
X662940Y773430D02*
D03*
X703589Y715005D02*
D03*
X866140Y453390D02*
D03*
X840740Y435610D02*
D03*
X823359Y429981D02*
D03*
X818460Y479165D02*
D03*
X524510Y209550D02*
D03*
X544163Y220635D02*
D03*
X590333Y273978D02*
D03*
X366135Y80700D02*
D03*
X304255Y80735D02*
D03*
X707390Y264160D02*
D03*
X732790Y802640D02*
D03*
X161665Y530280D02*
D03*
X811530Y339090D02*
D03*
X467365Y864879D02*
D03*
X236220Y831850D02*
D03*
X238760Y814070D02*
D03*
X588010Y863600D02*
D03*
X526444Y803531D02*
D03*
X246380Y779780D02*
D03*
X295910D02*
D03*
X238760Y764540D02*
D03*
X1151890Y139700D02*
D03*
X1219200Y100330D02*
D03*
X1281430Y85090D02*
D03*
X1280160Y140970D02*
D03*
X357249Y60454D02*
D03*
X256540Y72390D02*
D03*
X243645Y94345D02*
D03*
X364490Y99060D02*
D03*
X125730Y181610D02*
D03*
X222055Y187155D02*
D03*
X358140Y195580D02*
D03*
X140775Y217985D02*
D03*
X54610Y270510D02*
D03*
X53340Y297180D02*
D03*
X130615Y231955D02*
D03*
X241300Y273050D02*
D03*
X272855Y220525D02*
D03*
X359410Y271780D02*
D03*
X401125Y233225D02*
D03*
X411285Y219255D02*
D03*
X508000Y273050D02*
D03*
X534475Y234133D02*
D03*
X642983Y231693D02*
D03*
X676003Y273603D02*
D03*
X774700Y482600D02*
D03*
X92710Y626110D02*
D03*
X120650Y668020D02*
D03*
X189994Y792101D02*
D03*
X753110Y718820D02*
D03*
X553552Y864508D02*
D03*
X727626Y784184D02*
D03*
X740732Y775397D02*
D03*
X797132Y748872D02*
D03*
X1395730Y436880D02*
D03*
M02*
