G04*
G04 #@! TF.GenerationSoftware,Altium Limited,Altium Designer,25.3.3 (18)*
G04*
G04 Layer_Color=8421504*
%FSLAX44Y44*%
%MOMM*%
G71*
G04*
G04 #@! TF.SameCoordinates,8BA9F0F0-51DE-43A2-9AC8-778ADDE1523D*
G04*
G04*
G04 #@! TF.FilePolarity,Positive*
G04*
G01*
G75*
%ADD17R,0.6000X0.5100*%
G04:AMPARAMS|DCode=18|XSize=0.65mm|YSize=1.65mm|CornerRadius=0.0488mm|HoleSize=0mm|Usage=FLASHONLY|Rotation=180.000|XOffset=0mm|YOffset=0mm|HoleType=Round|Shape=RoundedRectangle|*
%AMROUNDEDRECTD18*
21,1,0.6500,1.5525,0,0,180.0*
21,1,0.5525,1.6500,0,0,180.0*
1,1,0.0975,-0.2763,0.7763*
1,1,0.0975,0.2763,0.7763*
1,1,0.0975,0.2763,-0.7763*
1,1,0.0975,-0.2763,-0.7763*
%
%ADD18ROUNDEDRECTD18*%
%ADD19R,1.3500X0.9500*%
%ADD20R,1.3562X1.0546*%
%ADD21R,0.9500X1.3500*%
%ADD22R,0.5725X0.6153*%
%ADD23R,0.2500X0.5500*%
%ADD24R,0.5500X0.2500*%
%ADD25R,2.0500X2.0500*%
%ADD26R,0.8121X0.6587*%
%ADD27R,1.1500X1.4500*%
%ADD28R,1.6000X5.0000*%
%ADD29R,1.2000X5.0000*%
G04:AMPARAMS|DCode=30|XSize=0.6mm|YSize=0.2mm|CornerRadius=0.05mm|HoleSize=0mm|Usage=FLASHONLY|Rotation=270.000|XOffset=0mm|YOffset=0mm|HoleType=Round|Shape=RoundedRectangle|*
%AMROUNDEDRECTD30*
21,1,0.6000,0.1000,0,0,270.0*
21,1,0.5000,0.2000,0,0,270.0*
1,1,0.1000,-0.0500,-0.2500*
1,1,0.1000,-0.0500,0.2500*
1,1,0.1000,0.0500,0.2500*
1,1,0.1000,0.0500,-0.2500*
%
%ADD30ROUNDEDRECTD30*%
G04:AMPARAMS|DCode=31|XSize=0.6mm|YSize=0.2mm|CornerRadius=0.05mm|HoleSize=0mm|Usage=FLASHONLY|Rotation=0.000|XOffset=0mm|YOffset=0mm|HoleType=Round|Shape=RoundedRectangle|*
%AMROUNDEDRECTD31*
21,1,0.6000,0.1000,0,0,0.0*
21,1,0.5000,0.2000,0,0,0.0*
1,1,0.1000,0.2500,-0.0500*
1,1,0.1000,-0.2500,-0.0500*
1,1,0.1000,-0.2500,0.0500*
1,1,0.1000,0.2500,0.0500*
%
%ADD31ROUNDEDRECTD31*%
G04:AMPARAMS|DCode=32|XSize=0.7mm|YSize=0.2mm|CornerRadius=0.05mm|HoleSize=0mm|Usage=FLASHONLY|Rotation=0.000|XOffset=0mm|YOffset=0mm|HoleType=Round|Shape=RoundedRectangle|*
%AMROUNDEDRECTD32*
21,1,0.7000,0.1000,0,0,0.0*
21,1,0.6000,0.2000,0,0,0.0*
1,1,0.1000,0.3000,-0.0500*
1,1,0.1000,-0.3000,-0.0500*
1,1,0.1000,-0.3000,0.0500*
1,1,0.1000,0.3000,0.0500*
%
%ADD32ROUNDEDRECTD32*%
G04:AMPARAMS|DCode=33|XSize=0.2mm|YSize=0.6mm|CornerRadius=0.05mm|HoleSize=0mm|Usage=FLASHONLY|Rotation=180.000|XOffset=0mm|YOffset=0mm|HoleType=Round|Shape=RoundedRectangle|*
%AMROUNDEDRECTD33*
21,1,0.2000,0.5000,0,0,180.0*
21,1,0.1000,0.6000,0,0,180.0*
1,1,0.1000,-0.0500,0.2500*
1,1,0.1000,0.0500,0.2500*
1,1,0.1000,0.0500,-0.2500*
1,1,0.1000,-0.0500,-0.2500*
%
%ADD33ROUNDEDRECTD33*%
G04:AMPARAMS|DCode=34|XSize=1.7883mm|YSize=0.4208mm|CornerRadius=0.2104mm|HoleSize=0mm|Usage=FLASHONLY|Rotation=0.000|XOffset=0mm|YOffset=0mm|HoleType=Round|Shape=RoundedRectangle|*
%AMROUNDEDRECTD34*
21,1,1.7883,0.0000,0,0,0.0*
21,1,1.3675,0.4208,0,0,0.0*
1,1,0.4208,0.6838,0.0000*
1,1,0.4208,-0.6838,0.0000*
1,1,0.4208,-0.6838,0.0000*
1,1,0.4208,0.6838,0.0000*
%
%ADD34ROUNDEDRECTD34*%
%ADD35R,1.7883X0.4208*%
%ADD36R,0.6587X0.8121*%
%ADD37R,2.8000X1.3500*%
%ADD38R,0.5000X0.4750*%
%ADD39R,2.8062X2.1029*%
%ADD40R,0.4750X0.5000*%
G04:AMPARAMS|DCode=41|XSize=1.7883mm|YSize=0.4208mm|CornerRadius=0.2104mm|HoleSize=0mm|Usage=FLASHONLY|Rotation=90.000|XOffset=0mm|YOffset=0mm|HoleType=Round|Shape=RoundedRectangle|*
%AMROUNDEDRECTD41*
21,1,1.7883,0.0000,0,0,90.0*
21,1,1.3675,0.4208,0,0,90.0*
1,1,0.4208,0.0000,0.6838*
1,1,0.4208,0.0000,-0.6838*
1,1,0.4208,0.0000,-0.6838*
1,1,0.4208,0.0000,0.6838*
%
%ADD41ROUNDEDRECTD41*%
%ADD42R,0.4208X1.7883*%
D17*
X289365Y226875D02*
D03*
Y236175D02*
D03*
X420370Y235790D02*
D03*
Y226490D02*
D03*
X151130Y233250D02*
D03*
Y223950D02*
D03*
X561145Y226513D02*
D03*
Y235813D02*
D03*
X345680Y624840D02*
D03*
Y615540D02*
D03*
X218440Y623570D02*
D03*
Y614270D02*
D03*
X477520Y616380D02*
D03*
Y625680D02*
D03*
X76200Y619760D02*
D03*
Y610460D02*
D03*
D18*
X850900Y557840D02*
D03*
X838200D02*
D03*
X825500D02*
D03*
X812800D02*
D03*
X850900Y501340D02*
D03*
X838200D02*
D03*
X825500D02*
D03*
X812800D02*
D03*
X830580Y364800D02*
D03*
X817880D02*
D03*
X805180D02*
D03*
X792480D02*
D03*
X830580Y308300D02*
D03*
X817880D02*
D03*
X805180D02*
D03*
X792480D02*
D03*
X788670Y556570D02*
D03*
X775970D02*
D03*
X763270D02*
D03*
X750570D02*
D03*
X788670Y500070D02*
D03*
X775970D02*
D03*
X763270D02*
D03*
X750570D02*
D03*
X763270Y434650D02*
D03*
X750570D02*
D03*
X737870D02*
D03*
X725170D02*
D03*
X763270Y378150D02*
D03*
X750570D02*
D03*
X737870D02*
D03*
X725170D02*
D03*
D19*
X487512Y875938D02*
D03*
Y890938D02*
D03*
X233680Y283330D02*
D03*
Y298330D02*
D03*
Y261500D02*
D03*
Y246500D02*
D03*
X535940Y548640D02*
D03*
Y563640D02*
D03*
X534670Y609480D02*
D03*
Y594480D02*
D03*
X403860Y567450D02*
D03*
Y552450D02*
D03*
X401560Y594480D02*
D03*
Y609480D02*
D03*
X278130Y563640D02*
D03*
Y548640D02*
D03*
X274320Y593210D02*
D03*
Y608210D02*
D03*
X135890Y559830D02*
D03*
Y544830D02*
D03*
X132080Y589400D02*
D03*
Y604400D02*
D03*
X504190Y300870D02*
D03*
Y285870D02*
D03*
X502920Y246138D02*
D03*
Y261138D02*
D03*
X1210310Y118230D02*
D03*
Y133230D02*
D03*
X1207770Y163710D02*
D03*
Y148710D02*
D03*
X368388Y260249D02*
D03*
Y245249D02*
D03*
X611233Y264593D02*
D03*
Y249593D02*
D03*
X640080Y282060D02*
D03*
Y297060D02*
D03*
X488782Y840498D02*
D03*
Y855498D02*
D03*
X99060Y243236D02*
D03*
Y258236D02*
D03*
X372110Y285870D02*
D03*
Y300870D02*
D03*
X101600Y297180D02*
D03*
Y282180D02*
D03*
D20*
X346710Y300628D02*
D03*
Y286112D02*
D03*
X1182370Y163468D02*
D03*
Y148952D02*
D03*
X208280Y261258D02*
D03*
Y246742D02*
D03*
Y284842D02*
D03*
Y299358D02*
D03*
X563880Y549002D02*
D03*
Y563518D02*
D03*
X561340Y609238D02*
D03*
Y594722D02*
D03*
X428230D02*
D03*
Y609238D02*
D03*
X430530Y567328D02*
D03*
Y552812D02*
D03*
X300990Y593452D02*
D03*
Y607968D02*
D03*
X303530Y563156D02*
D03*
Y548640D02*
D03*
X161290Y558076D02*
D03*
Y543560D02*
D03*
X158750Y589642D02*
D03*
Y604158D02*
D03*
X477520Y246380D02*
D03*
Y260896D02*
D03*
X478790Y300628D02*
D03*
Y286112D02*
D03*
X1184910Y117202D02*
D03*
Y131718D02*
D03*
X342988Y260006D02*
D03*
Y245491D02*
D03*
X639173Y264351D02*
D03*
Y249835D02*
D03*
X614680Y281032D02*
D03*
Y295548D02*
D03*
X516722Y840740D02*
D03*
Y855256D02*
D03*
Y876300D02*
D03*
Y890816D02*
D03*
X76200Y296818D02*
D03*
Y282302D02*
D03*
X73660Y243478D02*
D03*
Y257994D02*
D03*
D21*
X222130Y536430D02*
D03*
X207130D02*
D03*
X288290Y309880D02*
D03*
X273290D02*
D03*
X483750Y537210D02*
D03*
X468750D02*
D03*
X1261270Y177880D02*
D03*
X1246270D02*
D03*
X335400Y535940D02*
D03*
X350400D02*
D03*
X66160D02*
D03*
X81160D02*
D03*
X411720Y308610D02*
D03*
X426720D02*
D03*
X1068310Y166370D02*
D03*
X1083310D02*
D03*
X1068190Y114300D02*
D03*
X1083190D02*
D03*
X1338460Y154940D02*
D03*
X1323460D02*
D03*
X1338580Y129540D02*
D03*
X1323580D02*
D03*
X560142Y900068D02*
D03*
X575142D02*
D03*
X697593Y309163D02*
D03*
X682593D02*
D03*
X560070Y309518D02*
D03*
X545070D02*
D03*
X141210Y307340D02*
D03*
X156210D02*
D03*
D22*
X304800Y236220D02*
D03*
Y227649D02*
D03*
X462280Y616269D02*
D03*
Y624840D02*
D03*
X329170D02*
D03*
Y616269D02*
D03*
X201930Y623570D02*
D03*
Y614999D02*
D03*
X59690Y619760D02*
D03*
Y611189D02*
D03*
X576580Y227287D02*
D03*
Y235858D02*
D03*
X1248810Y108981D02*
D03*
Y100410D02*
D03*
X680720Y242251D02*
D03*
Y233680D02*
D03*
X166370Y231616D02*
D03*
Y223044D02*
D03*
X435610Y225584D02*
D03*
Y234156D02*
D03*
X598170Y834866D02*
D03*
Y826294D02*
D03*
D23*
X260315Y254575D02*
D03*
X265315D02*
D03*
X270315D02*
D03*
X275315D02*
D03*
X280315D02*
D03*
Y288075D02*
D03*
X275315D02*
D03*
X270315D02*
D03*
X265315D02*
D03*
X260315D02*
D03*
X507840Y556020D02*
D03*
X502840D02*
D03*
X497840D02*
D03*
X492840D02*
D03*
X487840D02*
D03*
Y589520D02*
D03*
X492840D02*
D03*
X497840D02*
D03*
X502840D02*
D03*
X507840D02*
D03*
X374730D02*
D03*
X369730D02*
D03*
X364730D02*
D03*
X359730D02*
D03*
X354730D02*
D03*
Y556020D02*
D03*
X359730D02*
D03*
X364730D02*
D03*
X369730D02*
D03*
X374730D02*
D03*
X247490Y589520D02*
D03*
X242490D02*
D03*
X237490D02*
D03*
X232490D02*
D03*
X227490D02*
D03*
Y556020D02*
D03*
X232490D02*
D03*
X237490D02*
D03*
X242490D02*
D03*
X247490D02*
D03*
X105250Y589520D02*
D03*
X100250D02*
D03*
X95250D02*
D03*
X90250D02*
D03*
X85250D02*
D03*
Y556020D02*
D03*
X90250D02*
D03*
X95250D02*
D03*
X100250D02*
D03*
X105250D02*
D03*
X1236030Y157960D02*
D03*
X1241030D02*
D03*
X1246030D02*
D03*
X1251030D02*
D03*
X1256030D02*
D03*
Y124460D02*
D03*
X1251030D02*
D03*
X1246030D02*
D03*
X1241030D02*
D03*
X1236030D02*
D03*
X666003Y288075D02*
D03*
X671003D02*
D03*
X676003D02*
D03*
X681003D02*
D03*
X686003D02*
D03*
Y254575D02*
D03*
X681003D02*
D03*
X676003D02*
D03*
X671003D02*
D03*
X666003D02*
D03*
X543552Y881258D02*
D03*
X548552D02*
D03*
X553552D02*
D03*
X558552D02*
D03*
X563552D02*
D03*
Y847758D02*
D03*
X558552D02*
D03*
X553552D02*
D03*
X548552D02*
D03*
X543552D02*
D03*
X128235Y254575D02*
D03*
X133235D02*
D03*
X138235D02*
D03*
X143235D02*
D03*
X148235D02*
D03*
Y288075D02*
D03*
X143235D02*
D03*
X138235D02*
D03*
X133235D02*
D03*
X128235D02*
D03*
X398745Y254575D02*
D03*
X403745D02*
D03*
X408745D02*
D03*
X413745D02*
D03*
X418745D02*
D03*
Y288075D02*
D03*
X413745D02*
D03*
X408745D02*
D03*
X403745D02*
D03*
X398745D02*
D03*
X532095Y254575D02*
D03*
X537095D02*
D03*
X542095D02*
D03*
X547095D02*
D03*
X552095D02*
D03*
Y288075D02*
D03*
X547095D02*
D03*
X542095D02*
D03*
X537095D02*
D03*
X532095D02*
D03*
D24*
X287065Y261325D02*
D03*
Y266325D02*
D03*
Y271325D02*
D03*
Y276325D02*
D03*
Y281325D02*
D03*
X253565D02*
D03*
Y276325D02*
D03*
Y271325D02*
D03*
Y266325D02*
D03*
Y261325D02*
D03*
X514590Y582770D02*
D03*
Y577770D02*
D03*
Y572770D02*
D03*
Y567770D02*
D03*
Y562770D02*
D03*
X481090D02*
D03*
Y567770D02*
D03*
Y572770D02*
D03*
Y577770D02*
D03*
Y582770D02*
D03*
X347980D02*
D03*
Y577770D02*
D03*
Y572770D02*
D03*
Y567770D02*
D03*
Y562770D02*
D03*
X381480D02*
D03*
Y567770D02*
D03*
Y572770D02*
D03*
Y577770D02*
D03*
Y582770D02*
D03*
X220740D02*
D03*
Y577770D02*
D03*
Y572770D02*
D03*
Y567770D02*
D03*
Y562770D02*
D03*
X254240D02*
D03*
Y567770D02*
D03*
Y572770D02*
D03*
Y577770D02*
D03*
Y582770D02*
D03*
X78500D02*
D03*
Y577770D02*
D03*
Y572770D02*
D03*
Y567770D02*
D03*
Y562770D02*
D03*
X112000D02*
D03*
Y567770D02*
D03*
Y572770D02*
D03*
Y577770D02*
D03*
Y582770D02*
D03*
X1229280Y131210D02*
D03*
Y136210D02*
D03*
Y141210D02*
D03*
Y146210D02*
D03*
Y151210D02*
D03*
X1262780D02*
D03*
Y146210D02*
D03*
Y141210D02*
D03*
Y136210D02*
D03*
Y131210D02*
D03*
X659253Y261325D02*
D03*
Y266325D02*
D03*
Y271325D02*
D03*
Y276325D02*
D03*
Y281325D02*
D03*
X692753D02*
D03*
Y276325D02*
D03*
Y271325D02*
D03*
Y266325D02*
D03*
Y261325D02*
D03*
X536802Y854508D02*
D03*
Y859508D02*
D03*
Y864508D02*
D03*
Y869508D02*
D03*
Y874508D02*
D03*
X570302D02*
D03*
Y869508D02*
D03*
Y864508D02*
D03*
Y859508D02*
D03*
Y854508D02*
D03*
X154985Y261325D02*
D03*
Y266325D02*
D03*
Y271325D02*
D03*
Y276325D02*
D03*
Y281325D02*
D03*
X121485D02*
D03*
Y276325D02*
D03*
Y271325D02*
D03*
Y266325D02*
D03*
Y261325D02*
D03*
X425495D02*
D03*
Y266325D02*
D03*
Y271325D02*
D03*
Y276325D02*
D03*
Y281325D02*
D03*
X391995D02*
D03*
Y276325D02*
D03*
Y271325D02*
D03*
Y266325D02*
D03*
Y261325D02*
D03*
X558845D02*
D03*
Y266325D02*
D03*
Y271325D02*
D03*
Y276325D02*
D03*
Y281325D02*
D03*
X525345D02*
D03*
Y276325D02*
D03*
Y271325D02*
D03*
Y266325D02*
D03*
Y261325D02*
D03*
D25*
X270315Y271325D02*
D03*
X497840Y572770D02*
D03*
X364730D02*
D03*
X237490D02*
D03*
X95250D02*
D03*
X1246030Y141210D02*
D03*
X676003Y271325D02*
D03*
X553552Y864508D02*
D03*
X138235Y271325D02*
D03*
X408745D02*
D03*
X542095D02*
D03*
D26*
X1101090Y171450D02*
D03*
Y184984D02*
D03*
X1121410Y184567D02*
D03*
Y171033D02*
D03*
D27*
X1086070Y91440D02*
D03*
X1068070D02*
D03*
X1085850Y140970D02*
D03*
X1067850D02*
D03*
X1321960Y177800D02*
D03*
X1339960D02*
D03*
X1323270Y99060D02*
D03*
X1341270D02*
D03*
D28*
X1342630Y37415D02*
D03*
X1398030D02*
D03*
X992800D02*
D03*
X1048200D02*
D03*
X1096250D02*
D03*
X1151650D02*
D03*
X1204200D02*
D03*
X1259600D02*
D03*
D29*
X1370330D02*
D03*
X1020500D02*
D03*
X1123950D02*
D03*
X1231900D02*
D03*
D30*
X1114520Y147160D02*
D03*
X1118520D02*
D03*
X1122520D02*
D03*
X1126520D02*
D03*
Y123160D02*
D03*
X1122520D02*
D03*
X1118520D02*
D03*
X1114520D02*
D03*
D31*
X1128520Y141160D02*
D03*
Y137160D02*
D03*
Y133160D02*
D03*
Y129160D02*
D03*
X1112520D02*
D03*
Y133160D02*
D03*
Y137160D02*
D03*
X1360330Y140620D02*
D03*
Y144620D02*
D03*
X1372330D02*
D03*
D32*
X1113020Y141160D02*
D03*
X1371830Y140620D02*
D03*
D33*
X1370330Y134620D02*
D03*
X1366330D02*
D03*
X1362330D02*
D03*
Y150620D02*
D03*
X1366330D02*
D03*
X1370330D02*
D03*
D34*
X338597Y139085D02*
D03*
Y132585D02*
D03*
Y126085D02*
D03*
Y119585D02*
D03*
Y113085D02*
D03*
Y106585D02*
D03*
Y100085D02*
D03*
Y93585D02*
D03*
Y87085D02*
D03*
Y80585D02*
D03*
Y74085D02*
D03*
Y67585D02*
D03*
X280773D02*
D03*
Y74085D02*
D03*
Y80585D02*
D03*
Y87085D02*
D03*
Y93585D02*
D03*
Y100085D02*
D03*
Y106585D02*
D03*
Y113085D02*
D03*
Y119585D02*
D03*
Y126085D02*
D03*
Y132585D02*
D03*
X761702Y744180D02*
D03*
Y750680D02*
D03*
Y757180D02*
D03*
Y763680D02*
D03*
Y770180D02*
D03*
Y776680D02*
D03*
Y783180D02*
D03*
Y789680D02*
D03*
Y796180D02*
D03*
Y802680D02*
D03*
Y809180D02*
D03*
X703878D02*
D03*
Y802680D02*
D03*
Y796180D02*
D03*
Y789680D02*
D03*
Y783180D02*
D03*
Y776680D02*
D03*
Y770180D02*
D03*
Y763680D02*
D03*
Y757180D02*
D03*
Y750680D02*
D03*
Y744180D02*
D03*
Y737680D02*
D03*
X209848Y728790D02*
D03*
Y735290D02*
D03*
Y741790D02*
D03*
Y748290D02*
D03*
Y754790D02*
D03*
Y761290D02*
D03*
Y767790D02*
D03*
Y774290D02*
D03*
Y780790D02*
D03*
Y787290D02*
D03*
Y793790D02*
D03*
Y800290D02*
D03*
X267672D02*
D03*
Y793790D02*
D03*
Y787290D02*
D03*
Y780790D02*
D03*
Y774290D02*
D03*
Y767790D02*
D03*
Y761290D02*
D03*
Y754790D02*
D03*
Y748290D02*
D03*
Y741790D02*
D03*
Y735290D02*
D03*
D35*
X280773Y139085D02*
D03*
X761702Y737680D02*
D03*
X267672Y728790D02*
D03*
D36*
X1409264Y142240D02*
D03*
X1395730D02*
D03*
D37*
X176530Y869700D02*
D03*
Y901700D02*
D03*
D38*
X382270Y97835D02*
D03*
Y87585D02*
D03*
X163830Y778555D02*
D03*
Y768305D02*
D03*
D39*
X227330Y872878D02*
D03*
Y897890D02*
D03*
D40*
X836840Y474980D02*
D03*
X847090D02*
D03*
X662850Y789940D02*
D03*
X673100D02*
D03*
D41*
X789750Y453092D02*
D03*
X796250D02*
D03*
X802750D02*
D03*
X809250D02*
D03*
X815750D02*
D03*
X822250D02*
D03*
X828750D02*
D03*
X835250D02*
D03*
X841750D02*
D03*
X848250D02*
D03*
X854750D02*
D03*
X861250D02*
D03*
Y395268D02*
D03*
X854750D02*
D03*
X848250D02*
D03*
X841750D02*
D03*
X835250D02*
D03*
X828750D02*
D03*
X822250D02*
D03*
X815750D02*
D03*
X809250D02*
D03*
X802750D02*
D03*
X796250D02*
D03*
D42*
X789750D02*
D03*
M02*
