G04*
G04 #@! TF.GenerationSoftware,Altium Limited,Altium Designer,25.3.3 (18)*
G04*
G04 Layer_Color=16711935*
%FSLAX44Y44*%
%MOMM*%
G71*
G04*
G04 #@! TF.SameCoordinates,8BA9F0F0-51DE-43A2-9AC8-778ADDE1523D*
G04*
G04*
G04 #@! TF.FilePolarity,Negative*
G04*
G01*
G75*
%ADD28R,1.6000X5.0000*%
%ADD50C,6.4700*%
%ADD51R,1.7100X1.7100*%
%ADD52C,1.7100*%
%ADD53R,1.7100X1.7100*%
%ADD54R,1.5700X1.5700*%
%ADD55C,1.5700*%
%ADD56R,1.5700X1.5700*%
%ADD57R,1.6700X1.6700*%
%ADD58C,1.6700*%
%ADD59C,1.8200*%
G04:AMPARAMS|DCode=60|XSize=1.62mm|YSize=3.12mm|CornerRadius=0.435mm|HoleSize=0mm|Usage=FLASHONLY|Rotation=270.000|XOffset=0mm|YOffset=0mm|HoleType=Round|Shape=RoundedRectangle|*
%AMROUNDEDRECTD60*
21,1,1.6200,2.2500,0,0,270.0*
21,1,0.7500,3.1200,0,0,270.0*
1,1,0.8700,-1.1250,-0.3750*
1,1,0.8700,-1.1250,0.3750*
1,1,0.8700,1.1250,0.3750*
1,1,0.8700,1.1250,-0.3750*
%
%ADD60ROUNDEDRECTD60*%
G04:AMPARAMS|DCode=61|XSize=1.62mm|YSize=2.62mm|CornerRadius=0.435mm|HoleSize=0mm|Usage=FLASHONLY|Rotation=0.000|XOffset=0mm|YOffset=0mm|HoleType=Round|Shape=RoundedRectangle|*
%AMROUNDEDRECTD61*
21,1,1.6200,1.7500,0,0,0.0*
21,1,0.7500,2.6200,0,0,0.0*
1,1,0.8700,0.3750,-0.8750*
1,1,0.8700,-0.3750,-0.8750*
1,1,0.8700,-0.3750,0.8750*
1,1,0.8700,0.3750,0.8750*
%
%ADD61ROUNDEDRECTD61*%
%ADD62C,0.7200*%
D28*
X1342630Y37415D02*
D03*
X1398030D02*
D03*
X992800D02*
D03*
X1048200D02*
D03*
X1096250D02*
D03*
X1151650D02*
D03*
X1204200D02*
D03*
X1259600D02*
D03*
D50*
X1356370Y924460D02*
D03*
X932170D02*
D03*
X1356370Y236160D02*
D03*
X932170D02*
D03*
X50800Y967740D02*
D03*
X1471930D02*
D03*
Y48260D02*
D03*
X50800D02*
D03*
D51*
X1347470Y309760D02*
D03*
D52*
X1372870D02*
D03*
X1347470Y335160D02*
D03*
X1372870D02*
D03*
X1347470Y360560D02*
D03*
X1372870D02*
D03*
X1347470Y385960D02*
D03*
X1372870D02*
D03*
X1347470Y411360D02*
D03*
X1372870D02*
D03*
X1347470Y436760D02*
D03*
X1372870D02*
D03*
X1347470Y462160D02*
D03*
X1372870D02*
D03*
X1347470Y487560D02*
D03*
X1372870D02*
D03*
X1347470Y512960D02*
D03*
X1372870D02*
D03*
X1347470Y538360D02*
D03*
X1372870D02*
D03*
X1347470Y563760D02*
D03*
X1372870D02*
D03*
X1347470Y589160D02*
D03*
X1372870D02*
D03*
X1347470Y614560D02*
D03*
X1372870D02*
D03*
X1347470Y639960D02*
D03*
X1372870D02*
D03*
X1347470Y665360D02*
D03*
X1372870D02*
D03*
X1347470Y690760D02*
D03*
X1372870D02*
D03*
X1347470Y716160D02*
D03*
X1372870D02*
D03*
X1347470Y741560D02*
D03*
X1372870D02*
D03*
X1347470Y766960D02*
D03*
X1372870D02*
D03*
X1347470Y792360D02*
D03*
X1372870D02*
D03*
X914370D02*
D03*
X939770Y766960D02*
D03*
X914370D02*
D03*
X939770Y741560D02*
D03*
X914370D02*
D03*
X939770Y716160D02*
D03*
X914370D02*
D03*
X939770Y690760D02*
D03*
X914370D02*
D03*
X939770Y665360D02*
D03*
X914370D02*
D03*
X939770Y639960D02*
D03*
X914370D02*
D03*
X939770Y614560D02*
D03*
X914370D02*
D03*
X939770Y589160D02*
D03*
X914370D02*
D03*
X939770Y563760D02*
D03*
X914370D02*
D03*
X939770Y538360D02*
D03*
X914370D02*
D03*
X939770Y512960D02*
D03*
X914370D02*
D03*
X939770Y487560D02*
D03*
X914370D02*
D03*
X939770Y462160D02*
D03*
X914370D02*
D03*
X939770Y436760D02*
D03*
X914370D02*
D03*
X939770Y411360D02*
D03*
X914370D02*
D03*
X939770Y385960D02*
D03*
X914370D02*
D03*
X939770Y360560D02*
D03*
X914370D02*
D03*
X939770Y335160D02*
D03*
X914370D02*
D03*
X939770Y309760D02*
D03*
X914370D02*
D03*
D53*
X939770Y792360D02*
D03*
D54*
X1311910Y976630D02*
D03*
X471170Y222250D02*
D03*
X201930Y218440D02*
D03*
X436880Y86360D02*
D03*
X105410Y778510D02*
D03*
X709930Y659130D02*
D03*
X855980D02*
D03*
X67310Y216446D02*
D03*
X339090Y219710D02*
D03*
X631190Y659130D02*
D03*
X779780D02*
D03*
D55*
X1286510Y976630D02*
D03*
X257810Y394970D02*
D03*
X199390D02*
D03*
X140970D02*
D03*
X82550D02*
D03*
X496570Y222250D02*
D03*
X227330Y218440D02*
D03*
X53340Y420370D02*
D03*
X287020D02*
D03*
X316230D02*
D03*
X345440D02*
D03*
X374650D02*
D03*
X403860D02*
D03*
X411480Y86360D02*
D03*
X433070Y420370D02*
D03*
X462280D02*
D03*
X491490D02*
D03*
X520700D02*
D03*
X549910D02*
D03*
X579120D02*
D03*
X130810Y778510D02*
D03*
X735330Y659130D02*
D03*
X881380D02*
D03*
X92710Y216446D02*
D03*
X364490Y219710D02*
D03*
X111760Y420370D02*
D03*
X170180D02*
D03*
X228600D02*
D03*
X637540D02*
D03*
X695960Y394970D02*
D03*
X608330Y420370D02*
D03*
X666750Y394970D02*
D03*
X656590Y659130D02*
D03*
X805180D02*
D03*
D56*
X257810Y420370D02*
D03*
X199390D02*
D03*
X140970D02*
D03*
X82550D02*
D03*
X53340Y394970D02*
D03*
X287020D02*
D03*
X316230D02*
D03*
X345440D02*
D03*
X374650D02*
D03*
X403860D02*
D03*
X433070D02*
D03*
X462280D02*
D03*
X491490D02*
D03*
X520700D02*
D03*
X549910D02*
D03*
X579120D02*
D03*
X111760D02*
D03*
X170180D02*
D03*
X228600D02*
D03*
X637540D02*
D03*
X695960Y420370D02*
D03*
X608330Y394970D02*
D03*
X666750Y420370D02*
D03*
D57*
X152400Y659130D02*
D03*
X283210D02*
D03*
X453390D02*
D03*
X589280D02*
D03*
D58*
X177800D02*
D03*
X203200D02*
D03*
X334010D02*
D03*
X308610D02*
D03*
X402590D02*
D03*
X427990D02*
D03*
X538480D02*
D03*
X563880D02*
D03*
D59*
X46600Y892810D02*
D03*
X101600D02*
D03*
D60*
X106600Y865310D02*
D03*
X114600Y920310D02*
D03*
D61*
X128600Y892810D02*
D03*
D62*
X1302965Y524730D02*
D03*
Y644730D02*
D03*
X1274730Y584730D02*
D03*
X1244730Y644730D02*
D03*
X1214730Y584730D02*
D03*
X1184730Y644730D02*
D03*
X1334730Y464730D02*
D03*
X1211587Y707873D02*
D03*
X1124730Y764730D02*
D03*
X1034730Y704730D02*
D03*
X1244730Y764730D02*
D03*
X1004730D02*
D03*
X1064730D02*
D03*
X974730Y704730D02*
D03*
X1184730Y764730D02*
D03*
X1274730Y824730D02*
D03*
X1034730Y584730D02*
D03*
X1154730Y704730D02*
D03*
X1124730Y644730D02*
D03*
X1094730Y584730D02*
D03*
X1064730Y524730D02*
D03*
X1074475Y284730D02*
D03*
X1040488Y350488D02*
D03*
X1004730Y404730D02*
D03*
X1064730D02*
D03*
X1228090Y248920D02*
D03*
X1243330Y262890D02*
D03*
X1262380Y281940D02*
D03*
X1280160Y298450D02*
D03*
X1296670Y313690D02*
D03*
X1313180Y328930D02*
D03*
X1330960Y344170D02*
D03*
X1324610Y306070D02*
D03*
X1311910Y295910D02*
D03*
X1250950Y302260D02*
D03*
X1299210Y284480D02*
D03*
X1285240Y271780D02*
D03*
X1270000Y257810D02*
D03*
X1163315Y224781D02*
D03*
X1145540Y201930D02*
D03*
X1212850Y208280D02*
D03*
X1202690Y275590D02*
D03*
X1176020Y241300D02*
D03*
X1189990Y259080D02*
D03*
X1200150Y242570D02*
D03*
X1216660Y294640D02*
D03*
X1223010Y269240D02*
D03*
X1212850Y256540D02*
D03*
X1266190Y320040D02*
D03*
X1236980Y284480D02*
D03*
X1242640Y232785D02*
D03*
X1257300Y245110D02*
D03*
X1226820Y219710D02*
D03*
X896620Y435610D02*
D03*
X795020Y789940D02*
D03*
X1064260Y228600D02*
D03*
Y187960D02*
D03*
Y203160D02*
D03*
Y216535D02*
D03*
X1154730Y824730D02*
D03*
X1274730Y944730D02*
D03*
X974730Y464730D02*
D03*
X1244730Y884730D02*
D03*
X1214730Y824730D02*
D03*
X1034730D02*
D03*
X1094730D02*
D03*
X1124730Y884730D02*
D03*
X1184730D02*
D03*
X1154730Y944730D02*
D03*
X1214730D02*
D03*
X1094730Y704730D02*
D03*
X848360Y375920D02*
D03*
X835660Y379730D02*
D03*
X853721Y703721D02*
D03*
X794730Y704730D02*
D03*
X1231900Y312420D02*
D03*
X1245870Y331470D02*
D03*
X1258570Y349250D02*
D03*
X1273810Y369570D02*
D03*
X1287780Y387350D02*
D03*
X1301750Y403860D02*
D03*
X1313180Y419100D02*
D03*
X1328420Y427990D02*
D03*
X1281430Y336550D02*
D03*
X1295400Y353060D02*
D03*
X1308100Y368300D02*
D03*
X1455420Y146050D02*
D03*
X979170Y101600D02*
D03*
X924560Y100330D02*
D03*
X861060Y101600D02*
D03*
X890270Y43180D02*
D03*
X1424730Y884730D02*
D03*
X1454730Y824730D02*
D03*
X1424730Y764730D02*
D03*
X1454730Y704730D02*
D03*
X1424730Y644730D02*
D03*
X1454730Y584730D02*
D03*
X1424730Y524730D02*
D03*
X1454730Y464730D02*
D03*
X1424730Y404730D02*
D03*
X1454730Y344730D02*
D03*
X1424730Y284730D02*
D03*
X1454730Y224730D02*
D03*
X1394730Y944730D02*
D03*
X1364730Y884730D02*
D03*
X1394730Y824730D02*
D03*
Y704730D02*
D03*
Y584730D02*
D03*
Y344730D02*
D03*
X1364730Y284730D02*
D03*
X1394730Y224730D02*
D03*
X1334730Y704730D02*
D03*
Y584730D02*
D03*
X1244730Y524730D02*
D03*
Y404730D02*
D03*
X1184730Y524730D02*
D03*
X1214730Y464730D02*
D03*
X1184730Y404730D02*
D03*
X1214730Y344730D02*
D03*
X1184730Y284730D02*
D03*
X1124730Y524730D02*
D03*
X1154730Y464730D02*
D03*
X1124730Y404730D02*
D03*
Y284730D02*
D03*
X1094730Y944730D02*
D03*
X1064730Y884730D02*
D03*
Y644730D02*
D03*
X1094730Y464730D02*
D03*
Y344730D02*
D03*
X1034730Y944730D02*
D03*
X1004730Y884730D02*
D03*
Y644730D02*
D03*
Y524730D02*
D03*
X1034730Y464730D02*
D03*
X1004730Y284730D02*
D03*
Y164730D02*
D03*
X974730Y944730D02*
D03*
X944730Y884730D02*
D03*
X974730Y824730D02*
D03*
Y584730D02*
D03*
Y344730D02*
D03*
X944730Y284730D02*
D03*
X974730Y224730D02*
D03*
X944730Y164730D02*
D03*
X884730Y884730D02*
D03*
Y524730D02*
D03*
Y284730D02*
D03*
Y164730D02*
D03*
X854730Y944730D02*
D03*
X824730Y884730D02*
D03*
Y764730D02*
D03*
Y644730D02*
D03*
X854730Y584730D02*
D03*
X824730Y524730D02*
D03*
X854730Y344730D02*
D03*
Y224730D02*
D03*
X824730Y164730D02*
D03*
Y44730D02*
D03*
X794730Y944730D02*
D03*
X764730Y884730D02*
D03*
Y644730D02*
D03*
Y404730D02*
D03*
X794730Y344730D02*
D03*
X764730Y284730D02*
D03*
X794730Y224730D02*
D03*
X764730Y164730D02*
D03*
X794730Y104730D02*
D03*
X764730Y44730D02*
D03*
X734730Y944730D02*
D03*
X704730Y884730D02*
D03*
X734730Y704730D02*
D03*
X704730Y644730D02*
D03*
Y524730D02*
D03*
Y404730D02*
D03*
X734730Y224730D02*
D03*
Y104730D02*
D03*
X704730Y44730D02*
D03*
X674730Y944730D02*
D03*
Y704730D02*
D03*
X644730Y644730D02*
D03*
X674730Y344730D02*
D03*
X644730Y164730D02*
D03*
X674730Y104730D02*
D03*
X644730Y44730D02*
D03*
X614730Y944730D02*
D03*
X584730Y884730D02*
D03*
Y644730D02*
D03*
X614730Y584730D02*
D03*
Y464730D02*
D03*
Y224730D02*
D03*
Y104730D02*
D03*
X554730Y944730D02*
D03*
Y584730D02*
D03*
X524730Y524730D02*
D03*
Y164730D02*
D03*
X554730Y104730D02*
D03*
X494730Y944730D02*
D03*
X464730Y884730D02*
D03*
Y644730D02*
D03*
Y524730D02*
D03*
X494730Y344730D02*
D03*
X464730Y284730D02*
D03*
X494730Y104730D02*
D03*
X434730Y944730D02*
D03*
X404730Y884730D02*
D03*
X434730Y584730D02*
D03*
X404730Y524730D02*
D03*
X434730Y344730D02*
D03*
X404730Y164730D02*
D03*
X434730Y104730D02*
D03*
X374730Y944730D02*
D03*
X344730Y884730D02*
D03*
X374730Y464730D02*
D03*
Y344730D02*
D03*
X344730Y164730D02*
D03*
X314730Y944730D02*
D03*
X284730Y884730D02*
D03*
X314730Y704730D02*
D03*
Y584730D02*
D03*
X284730Y524730D02*
D03*
X314730Y464730D02*
D03*
Y224730D02*
D03*
X284730Y164730D02*
D03*
Y44730D02*
D03*
X254730Y944730D02*
D03*
X224730Y524730D02*
D03*
X254730Y464730D02*
D03*
Y344730D02*
D03*
X224730Y44730D02*
D03*
X194730Y944730D02*
D03*
X164730Y884730D02*
D03*
X194730Y824730D02*
D03*
Y704730D02*
D03*
Y584730D02*
D03*
X164730Y284730D02*
D03*
Y164730D02*
D03*
X194730Y104730D02*
D03*
X164730Y44730D02*
D03*
X134730Y944730D02*
D03*
Y824730D02*
D03*
X104730Y764730D02*
D03*
X134730Y464730D02*
D03*
X104730Y164730D02*
D03*
X134730Y104730D02*
D03*
X104730Y44730D02*
D03*
X74730Y824730D02*
D03*
X44730Y764730D02*
D03*
X74730Y704730D02*
D03*
X44730Y644730D02*
D03*
Y524730D02*
D03*
X74730Y464730D02*
D03*
Y344730D02*
D03*
X44730Y284730D02*
D03*
Y164730D02*
D03*
X74730Y104730D02*
D03*
X584575Y758880D02*
D03*
X508895D02*
D03*
X468630Y801370D02*
D03*
X424180Y759460D02*
D03*
X400050Y802640D02*
D03*
X309685Y59335D02*
D03*
X1322070Y384810D02*
D03*
X1334770Y402590D02*
D03*
X1066800Y153670D02*
D03*
X1068190Y101440D02*
D03*
X1275080Y171450D02*
D03*
X1130300Y201930D02*
D03*
X1117600D02*
D03*
X1337310Y193040D02*
D03*
X1328420Y201930D02*
D03*
X1082040Y186690D02*
D03*
X196850Y534670D02*
D03*
X323850Y535940D02*
D03*
X455930Y538480D02*
D03*
X308610Y93980D02*
D03*
X298450D02*
D03*
X320040D02*
D03*
X377190Y77470D02*
D03*
X266831Y93585D02*
D03*
X816610Y424180D02*
D03*
X732790Y773430D02*
D03*
X741680Y807720D02*
D03*
X783590Y789940D02*
D03*
X240030Y753110D02*
D03*
X179070Y792480D02*
D03*
X307340Y779780D02*
D03*
X608965Y338455D02*
D03*
X581660Y344170D02*
D03*
X557530D02*
D03*
X531398Y338358D02*
D03*
X525585Y325249D02*
D03*
X478790Y339090D02*
D03*
Y327660D02*
D03*
X347980Y340360D02*
D03*
Y328930D02*
D03*
X196850Y332740D02*
D03*
X205740Y326390D02*
D03*
X31750Y297180D02*
D03*
X43180D02*
D03*
X580232Y517580D02*
D03*
X565150Y524510D02*
D03*
Y535940D02*
D03*
X430530Y518160D02*
D03*
Y528320D02*
D03*
X300990Y511810D02*
D03*
X303530Y523240D02*
D03*
X147320Y514350D02*
D03*
X154940Y521970D02*
D03*
X586740Y892810D02*
D03*
X1164590Y139700D02*
D03*
X1153160Y162560D02*
D03*
X580390Y285750D02*
D03*
X453390Y273050D02*
D03*
X485140D02*
D03*
X314960Y279400D02*
D03*
X336550Y271780D02*
D03*
X224790Y273050D02*
D03*
X186690Y271780D02*
D03*
X73660Y270510D02*
D03*
X549910Y577850D02*
D03*
X396240Y579120D02*
D03*
X266700Y577850D02*
D03*
X167640Y574040D02*
D03*
X502920Y915670D02*
D03*
X603250Y190500D02*
D03*
X614680Y201930D02*
D03*
X627380Y213360D02*
D03*
X654050Y238760D02*
D03*
X1177290Y100330D02*
D03*
X1192530D02*
D03*
X1206500D02*
D03*
X543560Y800100D02*
D03*
X563880D02*
D03*
X687070Y839470D02*
D03*
X152400Y896620D02*
D03*
X145155Y892120D02*
D03*
X153670Y911860D02*
D03*
X144780D02*
D03*
X142240Y864870D02*
D03*
X152400D02*
D03*
X158750Y869950D02*
D03*
X347980Y317500D02*
D03*
X430530Y539750D02*
D03*
X303530Y534670D02*
D03*
X146050Y854710D02*
D03*
Y875030D02*
D03*
X205740Y913130D02*
D03*
X195530Y913700D02*
D03*
X614680Y320040D02*
D03*
X478790Y316230D02*
D03*
X328930Y582930D02*
D03*
X66040Y553720D02*
D03*
X168910Y295910D02*
D03*
X715010Y311150D02*
D03*
X574040Y304800D02*
D03*
X441960Y309880D02*
D03*
X302260Y311150D02*
D03*
X87630Y270510D02*
D03*
X568960Y577850D02*
D03*
X455930Y580390D02*
D03*
X198120Y574040D02*
D03*
X885190Y425450D02*
D03*
X727710Y749300D02*
D03*
X732790Y361950D02*
D03*
X878840Y486410D02*
D03*
X1101090Y115570D02*
D03*
X1035740Y54985D02*
D03*
X1339850Y114300D02*
D03*
X208280Y316230D02*
D03*
X542095Y271325D02*
D03*
X408745D02*
D03*
X270315D02*
D03*
X1163320Y162560D02*
D03*
X262695Y234495D02*
D03*
X501650Y621030D02*
D03*
X497840Y572770D02*
D03*
X1315720Y205740D02*
D03*
X95250Y572770D02*
D03*
X364730D02*
D03*
X237490D02*
D03*
X1067380Y127375D02*
D03*
X370453Y619117D02*
D03*
X360592Y630737D02*
D03*
X292105Y577841D02*
D03*
X245110Y615950D02*
D03*
X102870Y612140D02*
D03*
X66040Y571500D02*
D03*
X529590Y577850D02*
D03*
X369570Y656590D02*
D03*
X252730Y660400D02*
D03*
X134620Y575310D02*
D03*
X234950Y629920D02*
D03*
X427990Y580390D02*
D03*
X490220Y631190D02*
D03*
X509270Y656590D02*
D03*
X138235Y271325D02*
D03*
X1167600Y18890D02*
D03*
Y37940D02*
D03*
Y54450D02*
D03*
X1064260Y20320D02*
D03*
Y36830D02*
D03*
Y57150D02*
D03*
X1370330Y162560D02*
D03*
X1412240Y20320D02*
D03*
Y38100D02*
D03*
Y54610D02*
D03*
X1328420Y20320D02*
D03*
X1329690Y36830D02*
D03*
Y53340D02*
D03*
X979860Y53715D02*
D03*
Y38475D02*
D03*
Y23235D02*
D03*
X1035740Y20695D02*
D03*
Y37205D02*
D03*
X1273230Y22485D02*
D03*
Y37725D02*
D03*
Y55505D02*
D03*
X1246030Y141210D02*
D03*
X1120520Y135160D02*
D03*
X1385570Y20320D02*
D03*
Y36830D02*
D03*
Y53340D02*
D03*
X1355090Y20320D02*
D03*
Y38100D02*
D03*
Y53340D02*
D03*
X1109180Y20160D02*
D03*
Y37940D02*
D03*
Y55720D02*
D03*
X1247140Y22860D02*
D03*
Y38100D02*
D03*
Y54610D02*
D03*
X1216660Y21590D02*
D03*
Y39370D02*
D03*
Y54610D02*
D03*
X1189990Y20320D02*
D03*
Y36830D02*
D03*
Y54610D02*
D03*
X1138390Y20160D02*
D03*
Y37940D02*
D03*
Y54450D02*
D03*
X1082510Y18890D02*
D03*
Y37940D02*
D03*
Y55720D02*
D03*
X1006530Y21965D02*
D03*
Y39745D02*
D03*
Y54985D02*
D03*
X195580Y902970D02*
D03*
Y892810D02*
D03*
X208280Y902970D02*
D03*
Y892810D02*
D03*
X200341Y869700D02*
D03*
X106680Y830580D02*
D03*
Y839470D02*
D03*
Y849630D02*
D03*
X114300Y955040D02*
D03*
Y944880D02*
D03*
Y935990D02*
D03*
X152400Y902970D02*
D03*
X146050D02*
D03*
X830580Y468630D02*
D03*
X163830Y751840D02*
D03*
X1391730Y122471D02*
D03*
X722630Y816610D02*
D03*
X1301750Y140970D02*
D03*
X662940Y773430D02*
D03*
X703589Y715005D02*
D03*
X866140Y453390D02*
D03*
X840740Y435610D02*
D03*
X823359Y429981D02*
D03*
X818460Y479165D02*
D03*
X524510Y209550D02*
D03*
X544163Y220635D02*
D03*
X590333Y273978D02*
D03*
X366135Y80700D02*
D03*
X304255Y80735D02*
D03*
X707390Y264160D02*
D03*
X732790Y802640D02*
D03*
X161665Y530280D02*
D03*
X811530Y339090D02*
D03*
X467365Y864879D02*
D03*
X236220Y831850D02*
D03*
X238760Y814070D02*
D03*
X588010Y863600D02*
D03*
X526444Y803531D02*
D03*
X246380Y779780D02*
D03*
X295910D02*
D03*
X238760Y764540D02*
D03*
X1151890Y139700D02*
D03*
X1219200Y100330D02*
D03*
X1281430Y85090D02*
D03*
X1280160Y140970D02*
D03*
X357249Y60454D02*
D03*
X256540Y72390D02*
D03*
X243645Y94345D02*
D03*
X364490Y99060D02*
D03*
X125730Y181610D02*
D03*
X222055Y187155D02*
D03*
X358140Y195580D02*
D03*
X140775Y217985D02*
D03*
X54610Y270510D02*
D03*
X53340Y297180D02*
D03*
X130615Y231955D02*
D03*
X241300Y273050D02*
D03*
X272855Y220525D02*
D03*
X359410Y271780D02*
D03*
X401125Y233225D02*
D03*
X411285Y219255D02*
D03*
X508000Y273050D02*
D03*
X534475Y234133D02*
D03*
X642983Y231693D02*
D03*
X676003Y273603D02*
D03*
X774700Y482600D02*
D03*
X92710Y626110D02*
D03*
X120650Y668020D02*
D03*
X189994Y792101D02*
D03*
X753110Y718820D02*
D03*
X553552Y864508D02*
D03*
X727626Y784184D02*
D03*
X740732Y775397D02*
D03*
X797132Y748872D02*
D03*
X1395730Y436880D02*
D03*
M02*
