G04*
G04 #@! TF.GenerationSoftware,Altium Limited,Altium Designer,25.3.3 (18)*
G04*
G04 Layer_Color=255*
%FSLAX44Y44*%
%MOMM*%
G71*
G04*
G04 #@! TF.SameCoordinates,8BA9F0F0-51DE-43A2-9AC8-778ADDE1523D*
G04*
G04*
G04 #@! TF.FilePolarity,Positive*
G04*
G01*
G75*
%ADD28R,1.6000X5.0000*%
%ADD54R,1.5700X1.5700*%
%ADD55C,1.5700*%
%ADD56R,1.5700X1.5700*%
%ADD72C,6.3500*%
%ADD73R,1.5900X1.5900*%
%ADD74C,1.5900*%
%ADD75R,1.5900X1.5900*%
%ADD76R,1.5500X1.5500*%
%ADD77C,1.5500*%
%ADD78C,1.7000*%
G04:AMPARAMS|DCode=79|XSize=1.5mm|YSize=3mm|CornerRadius=0.375mm|HoleSize=0mm|Usage=FLASHONLY|Rotation=270.000|XOffset=0mm|YOffset=0mm|HoleType=Round|Shape=RoundedRectangle|*
%AMROUNDEDRECTD79*
21,1,1.5000,2.2500,0,0,270.0*
21,1,0.7500,3.0000,0,0,270.0*
1,1,0.7500,-1.1250,-0.3750*
1,1,0.7500,-1.1250,0.3750*
1,1,0.7500,1.1250,0.3750*
1,1,0.7500,1.1250,-0.3750*
%
%ADD79ROUNDEDRECTD79*%
G04:AMPARAMS|DCode=80|XSize=1.5mm|YSize=2.5mm|CornerRadius=0.375mm|HoleSize=0mm|Usage=FLASHONLY|Rotation=0.000|XOffset=0mm|YOffset=0mm|HoleType=Round|Shape=RoundedRectangle|*
%AMROUNDEDRECTD80*
21,1,1.5000,1.7500,0,0,0.0*
21,1,0.7500,2.5000,0,0,0.0*
1,1,0.7500,0.3750,-0.8750*
1,1,0.7500,-0.3750,-0.8750*
1,1,0.7500,-0.3750,0.8750*
1,1,0.7500,0.3750,0.8750*
%
%ADD80ROUNDEDRECTD80*%
D28*
X1342630Y37415D02*
D03*
X1398030D02*
D03*
X992800D02*
D03*
X1048200D02*
D03*
X1096250D02*
D03*
X1151650D02*
D03*
X1204200D02*
D03*
X1259600D02*
D03*
D54*
X1311910Y976630D02*
D03*
X471170Y222250D02*
D03*
X201930Y218440D02*
D03*
X436880Y86360D02*
D03*
X105410Y778510D02*
D03*
X709930Y659130D02*
D03*
X855980D02*
D03*
X67310Y216446D02*
D03*
X339090Y219710D02*
D03*
X631190Y659130D02*
D03*
X779780D02*
D03*
D55*
X1286510Y976630D02*
D03*
X257810Y394970D02*
D03*
X199390D02*
D03*
X140970D02*
D03*
X82550D02*
D03*
X496570Y222250D02*
D03*
X227330Y218440D02*
D03*
X53340Y420370D02*
D03*
X287020D02*
D03*
X316230D02*
D03*
X345440D02*
D03*
X374650D02*
D03*
X403860D02*
D03*
X411480Y86360D02*
D03*
X433070Y420370D02*
D03*
X462280D02*
D03*
X491490D02*
D03*
X520700D02*
D03*
X549910D02*
D03*
X579120D02*
D03*
X130810Y778510D02*
D03*
X735330Y659130D02*
D03*
X881380D02*
D03*
X92710Y216446D02*
D03*
X364490Y219710D02*
D03*
X111760Y420370D02*
D03*
X170180D02*
D03*
X228600D02*
D03*
X637540D02*
D03*
X695960Y394970D02*
D03*
X608330Y420370D02*
D03*
X666750Y394970D02*
D03*
X656590Y659130D02*
D03*
X805180D02*
D03*
D56*
X257810Y420370D02*
D03*
X199390D02*
D03*
X140970D02*
D03*
X82550D02*
D03*
X53340Y394970D02*
D03*
X287020D02*
D03*
X316230D02*
D03*
X345440D02*
D03*
X374650D02*
D03*
X403860D02*
D03*
X433070D02*
D03*
X462280D02*
D03*
X491490D02*
D03*
X520700D02*
D03*
X549910D02*
D03*
X579120D02*
D03*
X111760D02*
D03*
X170180D02*
D03*
X228600D02*
D03*
X637540D02*
D03*
X695960Y420370D02*
D03*
X608330Y394970D02*
D03*
X666750Y420370D02*
D03*
D72*
X1356370Y924460D02*
D03*
X932170D02*
D03*
X1356370Y236160D02*
D03*
X932170D02*
D03*
X50800Y967740D02*
D03*
X1471930D02*
D03*
Y48260D02*
D03*
X50800D02*
D03*
D73*
X1347470Y309760D02*
D03*
D74*
X1372870D02*
D03*
X1347470Y335160D02*
D03*
X1372870D02*
D03*
X1347470Y360560D02*
D03*
X1372870D02*
D03*
X1347470Y385960D02*
D03*
X1372870D02*
D03*
X1347470Y411360D02*
D03*
X1372870D02*
D03*
X1347470Y436760D02*
D03*
X1372870D02*
D03*
X1347470Y462160D02*
D03*
X1372870D02*
D03*
X1347470Y487560D02*
D03*
X1372870D02*
D03*
X1347470Y512960D02*
D03*
X1372870D02*
D03*
X1347470Y538360D02*
D03*
X1372870D02*
D03*
X1347470Y563760D02*
D03*
X1372870D02*
D03*
X1347470Y589160D02*
D03*
X1372870D02*
D03*
X1347470Y614560D02*
D03*
X1372870D02*
D03*
X1347470Y639960D02*
D03*
X1372870D02*
D03*
X1347470Y665360D02*
D03*
X1372870D02*
D03*
X1347470Y690760D02*
D03*
X1372870D02*
D03*
X1347470Y716160D02*
D03*
X1372870D02*
D03*
X1347470Y741560D02*
D03*
X1372870D02*
D03*
X1347470Y766960D02*
D03*
X1372870D02*
D03*
X1347470Y792360D02*
D03*
X1372870D02*
D03*
X914370D02*
D03*
X939770Y766960D02*
D03*
X914370D02*
D03*
X939770Y741560D02*
D03*
X914370D02*
D03*
X939770Y716160D02*
D03*
X914370D02*
D03*
X939770Y690760D02*
D03*
X914370D02*
D03*
X939770Y665360D02*
D03*
X914370D02*
D03*
X939770Y639960D02*
D03*
X914370D02*
D03*
X939770Y614560D02*
D03*
X914370D02*
D03*
X939770Y589160D02*
D03*
X914370D02*
D03*
X939770Y563760D02*
D03*
X914370D02*
D03*
X939770Y538360D02*
D03*
X914370D02*
D03*
X939770Y512960D02*
D03*
X914370D02*
D03*
X939770Y487560D02*
D03*
X914370D02*
D03*
X939770Y462160D02*
D03*
X914370D02*
D03*
X939770Y436760D02*
D03*
X914370D02*
D03*
X939770Y411360D02*
D03*
X914370D02*
D03*
X939770Y385960D02*
D03*
X914370D02*
D03*
X939770Y360560D02*
D03*
X914370D02*
D03*
X939770Y335160D02*
D03*
X914370D02*
D03*
X939770Y309760D02*
D03*
X914370D02*
D03*
D75*
X939770Y792360D02*
D03*
D76*
X152400Y659130D02*
D03*
X283210D02*
D03*
X453390D02*
D03*
X589280D02*
D03*
D77*
X177800D02*
D03*
X203200D02*
D03*
X334010D02*
D03*
X308610D02*
D03*
X402590D02*
D03*
X427990D02*
D03*
X538480D02*
D03*
X563880D02*
D03*
D78*
X46600Y892810D02*
D03*
X101600D02*
D03*
D79*
X106600Y865310D02*
D03*
X114600Y920310D02*
D03*
D80*
X128600Y892810D02*
D03*
M02*
